{
.appVersion = "99";
DisplayStrings = (
A
);
copyright = "Copyright (c) 2018 by Rajesh Rajput. All rights reserved.";
date = "2017-02-05 23:58:31 +0000";
designer = "Rajesh Rajput";
designerURL = "https://behance.net/rajputrajesh";
familyName = Morganite;
featurePrefixes = (
{
automatic = 1;
code = "languagesystem DFLT dflt;\012languagesystem latn dflt;\012languagesystem latn CAT;\012";
name = Languagesystems;
}
);
features = (
{
automatic = 1;
code = "feature locl;\012feature frac;\012feature ordn;\012";
name = aalt;
},
{
automatic = 1;
code = "script latn;\012language CAT;\012sub  l' periodcentered' l by ldot;\012sub  L' periodcentered' L by Ldot;\012";
name = locl;
},
{
automatic = 1;
code = "sub one slash four by onequarter;\012sub one slash two by onehalf;\012sub three slash four by threequarters;\012";
name = frac;
},
{
automatic = 1;
code = "sub [zero one two three four five six seven eight nine] [A a]' by ordfeminine;\012sub [zero one two three four five six seven eight nine] [O o]' by ordmasculine;\012";
name = ordn;
},
{
automatic = 1;
code = "sub f i by fi;\012sub f l by fl;\012";
name = liga;
}
);
fontMaster = (
{
ascender = 750;
capHeight = 699;
customParameters = (
{
name = "Prep Table Assembly";

glyphs = (
{
glyphname = A;
lastChange = "2020-02-04 22:39:47 +0000";
layers = (
{
layerId = "14B2064F-49AA-4860-BD4E-8ABAFB41335C";
paths = (
{
closed = 1;
nodes = (
"155 0 LINE",
"235 0 LINE",
"164 699 LINE",
"25 698 LINE",
"-45 -1 LINE",
"35 0 LINE",
"55 188 LINE",
"135 188 LINE"
);
},
{
closed = 1;
nodes = (
"95 593 LINE",
"96 593 LINE",
"132 264 LINE",
"58 264 LINE"
);
}
);
userData = {
assembly = "SVTCA[0]\011/* SetFreedomAndProjectionVectorToAxis */
PUSHW[ ]\011/* 1 value pushed */
0 
RCVT[ ]\011/* ReadCVT */
IF[ ]\011/* If */
PUSHW[ ]\011/* 1 value pushed */
4 
MDAP[1]\011/* MoveDirectAbsPt */
ELSE[ ]\011/* Else */
PUSHW[ ]\011/* 2 values pushed */
4 13 
MIAP[0]\011/* MoveIndirectAbsPt */
EIF[ ]\011/* EndIf */
PUSHW[ ]\011/* 1 value pushed */
0 
RCVT[ ]\011/* ReadCVT */
IF[ ]\011/* If */
PUSHW[ ]\011/* 1 value pushed */
2 
MDAP[1]\011/* MoveDirectAbsPt */
ELSE[ ]\011/* Else */
PUSHW[ ]\011/* 2 values pushed */
2 7 
MIAP[0]\011/* MoveIndirectAbsPt */
EIF[ ]\011/* EndIf */
PUSHW[ ]\011/* 1 value pushed */
0 
RCVT[ ]\011/* ReadCVT */
IF[ ]\011/* If */
PUSHW[ ]\011/* 1 value pushed */
6 
MDAP[1]\011/* MoveDirectAbsPt */
ELSE[ ]\011/* Else */
PUSHW[ ]\011/* 2 values pushed */
6 7 
MIAP[0]\011/* MoveIndirectAbsPt */
EIF[ ]\011/* EndIf */
PUSHW[ ]\011/* 4 values pushed */
9 3 0 4 
CALL[ ]\011/* CallFunction */
PUSHW[ ]\011/* 3 values pushed */
11 2 4 
SRP1[ ]\011/* SetRefPoint1 */
SRP2[ ]\011/* SetRefPoint2 */
IP[ ]\011/* InterpolatePts */
IUP[0]\011/* InterpolateUntPts */
IUP[1]\011/* InterpolateUntPts */";
};
width = 194;
}
);
note = A;
unicode = 0041;
},
{
glyphname = Aacute;
layers = (
{
layerId = "14B2064F-49AA-4860-BD4E-8ABAFB41335C";
paths = (
{
closed = 1;
nodes = (
"155 0 LINE",
"190 0 LINE",
"119 699 LINE",
"73 699 LINE",
"3 0 LINE",
"35 0 LINE",
"55 203 LINE",
"135 203 LINE"
);
},
{
closed = 1;
nodes = (
"95 593 LINE",
"96 593 LINE",
"132 231 LINE",
"58 231 LINE"
);
},
{
closed = 1;
nodes = (
"107 738 LINE",
"162 824 LINE",
"130 824 LINE",
"84 738 LINE"
);
}
);
userData = {
assembly = "SVTCA[0]\011/* SetFreedomAndProjectionVectorToAxis */
PUSHW[ ]\011/* 1 value pushed */
13 
MDAP[1]\011/* MoveDirectAbsPt */
PUSHW[ ]\011/* 1 value pushed */
0 
RCVT[ ]\011/* ReadCVT */
IF[ ]\011/* If */
PUSHW[ ]\011/* 1 value pushed */
4 
MDAP[1]\011/* MoveDirectAbsPt */
ELSE[ ]\011/* Else */
PUSHW[ ]\011/* 2 values pushed */
4 13 
MIAP[0]\011/* MoveIndirectAbsPt */
EIF[ ]\011/* EndIf */
PUSHW[ ]\011/* 1 value pushed */
0 
RCVT[ ]\011/* ReadCVT */
IF[ ]\011/* If */
PUSHW[ ]\011/* 1 value pushed */
2 
MDAP[1]\011/* MoveDirectAbsPt */
ELSE[ ]\011/* Else */
PUSHW[ ]\011/* 2 values pushed */
2 7 
MIAP[0]\011/* MoveIndirectAbsPt */
EIF[ ]\011/* EndIf */
PUSHW[ ]\011/* 1 value pushed */
0 
RCVT[ ]\011/* ReadCVT */
IF[ ]\011/* If */
PUSHW[ ]\011/* 1 value pushed */
6 
MDAP[1]\011/* MoveDirectAbsPt */
ELSE[ ]\011/* Else */
PUSHW[ ]\011/* 2 values pushed */
6 7 
MIAP[0]\011/* MoveIndirectAbsPt */
EIF[ ]\011/* EndIf */
PUSHW[ ]\011/* 4 values pushed */
9 3 0 4 
CALL[ ]\011/* CallFunction */
PUSHW[ ]\011/* 3 values pushed */
11 2 13 
SRP1[ ]\011/* SetRefPoint1 */
SRP2[ ]\011/* SetRefPoint2 */
IP[ ]\011/* InterpolatePts */
PUSHW[ ]\011/* 3 values pushed */
12 2 13 
SRP1[ ]\011/* SetRefPoint1 */
SRP2[ ]\011/* SetRefPoint2 */
IP[ ]\011/* InterpolatePts */
IUP[0]\011/* InterpolateUntPts */
IUP[1]\011/* InterpolateUntPts */";
};
width = 194;
}
);
note = Aacute;
unicode = 00C1;
},
{
glyphname = Abreve;
layers = (
{
layerId = "14B2064F-49AA-4860-BD4E-8ABAFB41335C";
paths = (
{
closed = 1;
nodes = (
"135 203 LINE",
"55 203 LINE",
"35 0 LINE",
"3 0 LINE",
"73 699 LINE",
"119 699 LINE",
"190 0 LINE",
"155 0 LINE"
);
},
{
closed = 1;
nodes = (
"58 231 LINE",
"132 231 LINE",
"96 593 LINE",
"95 593 LINE"
);
},
{
closed = 1;
nodes = (
"40 813 LINE",
"40 781 OFFCURVE",
"66.667 756 OFFCURVE",
"96 756 CURVE SMOOTH",
"129.333 756 OFFCURVE",
"155 782.333 OFFCURVE",
"155 813 CURVE",
"133 813 LINE",
"133 794.333 OFFCURVE",
"115.667 777 OFFCURVE",
"97 777 CURVE SMOOTH",
"78.333 777 OFFCURVE",
"61 794.333 OFFCURVE",
"61 813 CURVE"
);
}
);
userData = {
assembly = "SVTCA[0]\011/* SetFreedomAndProjectionVectorToAxis */
PUSHW[ ]\011/* 1 value pushed */
12 
MDAP[1]\011/* MoveDirectAbsPt */
PUSHW[ ]\011/* 1 value pushed */
18 
MDAP[1]\011/* MoveDirectAbsPt */
PUSHW[ ]\011/* 1 value pushed */
22 
MDAP[1]\011/* MoveDirectAbsPt */
PUSHW[ ]\011/* 1 value pushed */
0 
RCVT[ ]\011/* ReadCVT */
IF[ ]\011/* If */
PUSHW[ ]\011/* 1 value pushed */
2 
MDAP[1]\011/* MoveDirectAbsPt */
ELSE[ ]\011/* Else */
PUSHW[ ]\011/* 2 values pushed */
2 13 
MIAP[0]\011/* MoveIndirectAbsPt */
EIF[ ]\011/* EndIf */
PUSHW[ ]\011/* 1 value pushed */
0 
RCVT[ ]\011/* ReadCVT */
IF[ ]\011/* If */
PUSHW[ ]\011/* 1 value pushed */
0 
MDAP[1]\011/* MoveDirectAbsPt */
ELSE[ ]\011/* Else */
PUSHW[ ]\011/* 2 values pushed */
0 7 
MIAP[0]\011/* MoveIndirectAbsPt */
EIF[ ]\011/* EndIf */
PUSHW[ ]\011/* 1 value pushed */
0 
RCVT[ ]\011/* ReadCVT */
IF[ ]\011/* If */
PUSHW[ ]\011/* 1 value pushed */
4 
MDAP[1]\011/* MoveDirectAbsPt */
ELSE[ ]\011/* Else */
PUSHW[ ]\011/* 2 values pushed */
4 7 
MIAP[0]\011/* MoveIndirectAbsPt */
EIF[ ]\011/* EndIf */
PUSHW[ ]\011/* 4 values pushed */
11 3 6 4 
CALL[ ]\011/* CallFunction */
PUSHW[ ]\011/* 3 values pushed */
9 0 12 
SRP1[ ]\011/* SetRefPoint1 */
SRP2[ ]\011/* SetRefPoint2 */
IP[ ]\011/* InterpolatePts */
IUP[0]\011/* InterpolateUntPts */
IUP[1]\011/* InterpolateUntPts */";
};
width = 194;
}
);
note = Abreve;
unicode = 0102;
},
{
glyphname = Acircumflex;
layers = (
{
layerId = "14B2064F-49AA-4860-BD4E-8ABAFB41335C";
paths = (
{
closed = 1;
nodes = (
"155 0 LINE",
"190 0 LINE",
"119 699 LINE",
"73 699 LINE",
"3 0 LINE",
"35 0 LINE",
"55 203 LINE",
"135 203 LINE"
);
},
{
closed = 1;
nodes = (
"95 593 LINE",
"96 593 LINE",
"132 231 LINE",
"58 231 LINE"
);
},
{
closed = 1;
nodes = (
"80 824 LINE",
"25 738 LINE",
"58 738 LINE",
"97 806 LINE",
"136 738 LINE",
"168 738 LINE",
"113 824 LINE"
);
}
);
userData = {
assembly = "SVTCA[0]\011/* SetFreedomAndProjectionVectorToAxis */
PUSHW[ ]\011/* 1 value pushed */
12 
MDAP[1]\011/* MoveDirectAbsPt */
PUSHW[ ]\011/* 1 value pushed */
0 
RCVT[ ]\011/* ReadCVT */
IF[ ]\011/* If */
PUSHW[ ]\011/* 1 value pushed */
4 
MDAP[1]\011/* MoveDirectAbsPt */
ELSE[ ]\011/* Else */
PUSHW[ ]\011/* 2 values pushed */
4 13 
MIAP[0]\011/* MoveIndirectAbsPt */
EIF[ ]\011/* EndIf */
PUSHW[ ]\011/* 1 value pushed */
0 
RCVT[ ]\011/* ReadCVT */
IF[ ]\011/* If */
PUSHW[ ]\011/* 1 value pushed */
2 
MDAP[1]\011/* MoveDirectAbsPt */
ELSE[ ]\011/* Else */
PUSHW[ ]\011/* 2 values pushed */
2 7 
MIAP[0]\011/* MoveIndirectAbsPt */
EIF[ ]\011/* EndIf */
PUSHW[ ]\011/* 1 value pushed */
0 
RCVT[ ]\011/* ReadCVT */
IF[ ]\011/* If */
PUSHW[ ]\011/* 1 value pushed */
6 
MDAP[1]\011/* MoveDirectAbsPt */
ELSE[ ]\011/* Else */
PUSHW[ ]\011/* 2 values pushed */
6 7 
MIAP[0]\011/* MoveIndirectAbsPt */
EIF[ ]\011/* EndIf */
PUSHW[ ]\011/* 3 values pushed */
11 2 12 
SRP1[ ]\011/* SetRefPoint1 */
SRP2[ ]\011/* SetRefPoint2 */
IP[ ]\011/* InterpolatePts */
PUSHW[ ]\011/* 3 values pushed */
13 2 12 
SRP1[ ]\011/* SetRefPoint1 */
SRP2[ ]\011/* SetRefPoint2 */
IP[ ]\011/* InterpolatePts */
PUSHW[ ]\011/* 3 values pushed */
15 2 12 
SRP1[ ]\011/* SetRefPoint1 */
SRP2[ ]\011/* SetRefPoint2 */
IP[ ]\011/* InterpolatePts */
PUSHW[ ]\011/* 3 values pushed */
17 2 12 
SRP1[ ]\011/* SetRefPoint1 */
SRP2[ ]\011/* SetRefPoint2 */
IP[ ]\011/* InterpolatePts */
IUP[0]\011/* InterpolateUntPts */
IUP[1]\011/* InterpolateUntPts */";
};
width = 194;
}
);
note = Acircumflex;
unicode = 00C2;
},
{
glyphname = Adieresis;
layers = (
{
layerId = "14B2064F-49AA-4860-BD4E-8ABAFB41335C";
paths = (
{
closed = 1;
nodes = (
"135 203 LINE",
"55 203 LINE",
"35 0 LINE",
"3 0 LINE",
"73 699 LINE",
"119 699 LINE",
"190 0 LINE",
"155 0 LINE"
);
},
{
closed = 1;
nodes = (
"58 231 LINE",
"132 231 LINE",
"96 593 LINE",
"95 593 LINE"
);
},
{
closed = 1;
nodes = (
"137 816 LINE",
"112 816 LINE",
"112 753 LINE",
"137 753 LINE"
);
},
{
closed = 1;
nodes = (
"80 816 LINE",
"56 816 LINE",
"56 753 LINE",
"80 753 LINE"
);
}
);
userData = {
assembly = "PUSHW[ ]\011/* 1 value pushed */
20 
MDAP[1]\011/* MoveDirectAbsPt */
PUSHW[ ]\011/* 1 value pushed */
13 
MDAP[1]\011/* MoveDirectAbsPt */
PUSHW[ ]\011/* 1 value pushed */
2 
MDRP[10000]\011/* MoveDirectRelPt */
PUSHW[ ]\011/* 1 value pushed */
2 
MDAP[1]\011/* MoveDirectAbsPt */
PUSHW[ ]\011/* 1 value pushed */
20 
SRP0[ ]\011/* SetRefPoint0 */
PUSHW[ ]\011/* 1 value pushed */
17 
MDRP[10000]\011/* MoveDirectRelPt */
PUSHW[ ]\011/* 1 value pushed */
17 
MDAP[1]\011/* MoveDirectAbsPt */
PUSHW[ ]\011/* 2 values pushed */
16 5 
MIRP[10100]\011/* MoveIndirectRelPt */
PUSHW[ ]\011/* 1 value pushed */
3 
MDRP[10000]\011/* MoveDirectRelPt */
PUSHW[ ]\011/* 1 value pushed */
3 
MDAP[1]\011/* MoveDirectAbsPt */
PUSHW[ ]\011/* 1 value pushed */
17 
SRP0[ ]\011/* SetRefPoint0 */
PUSHW[ ]\011/* 1 value pushed */
6 
MDRP[10000]\011/* MoveDirectRelPt */
PUSHW[ ]\011/* 1 value pushed */
6 
MDAP[1]\011/* MoveDirectAbsPt */
PUSHW[ ]\011/* 1 value pushed */
13 
SRP0[ ]\011/* SetRefPoint0 */
PUSHW[ ]\011/* 2 values pushed */
12 5 
MIRP[10100]\011/* MoveIndirectRelPt */
PUSHW[ ]\011/* 1 value pushed */
7 
MDRP[10000]\011/* MoveDirectRelPt */
PUSHW[ ]\011/* 1 value pushed */
7 
MDAP[1]\011/* MoveDirectAbsPt */
PUSHW[ ]\011/* 1 value pushed */
12 
SRP0[ ]\011/* SetRefPoint0 */
PUSHW[ ]\011/* 1 value pushed */
10 
MDRP[10000]\011/* MoveDirectRelPt */
PUSHW[ ]\011/* 1 value pushed */
10 
MDAP[1]\011/* MoveDirectAbsPt */
PUSHW[ ]\011/* 1 value pushed */
17 
SRP0[ ]\011/* SetRefPoint0 */
PUSHW[ ]\011/* 1 value pushed */
11 
MDRP[10000]\011/* MoveDirectRelPt */
PUSHW[ ]\011/* 1 value pushed */
11 
MDAP[1]\011/* MoveDirectAbsPt */
SVTCA[0]\011/* SetFreedomAndProjectionVectorToAxis */
PUSHW[ ]\011/* 1 value pushed */
14 
MDAP[1]\011/* MoveDirectAbsPt */
PUSHW[ ]\011/* 1 value pushed */
18 
MDAP[1]\011/* MoveDirectAbsPt */
PUSHW[ ]\011/* 1 value pushed */
0 
RCVT[ ]\011/* ReadCVT */
IF[ ]\011/* If */
PUSHW[ ]\011/* 1 value pushed */
2 
MDAP[1]\011/* MoveDirectAbsPt */
ELSE[ ]\011/* Else */
PUSHW[ ]\011/* 2 values pushed */
2 13 
MIAP[0]\011/* MoveIndirectAbsPt */
EIF[ ]\011/* EndIf */
PUSHW[ ]\011/* 1 value pushed */
0 
RCVT[ ]\011/* ReadCVT */
IF[ ]\011/* If */
PUSHW[ ]\011/* 1 value pushed */
0 
MDAP[1]\011/* MoveDirectAbsPt */
ELSE[ ]\011/* Else */
PUSHW[ ]\011/* 2 values pushed */
0 7 
MIAP[0]\011/* MoveIndirectAbsPt */
EIF[ ]\011/* EndIf */
PUSHW[ ]\011/* 1 value pushed */
0 
RCVT[ ]\011/* ReadCVT */
IF[ ]\011/* If */
PUSHW[ ]\011/* 1 value pushed */
4 
MDAP[1]\011/* MoveDirectAbsPt */
ELSE[ ]\011/* Else */
PUSHW[ ]\011/* 2 values pushed */
4 7 
MIAP[0]\011/* MoveIndirectAbsPt */
EIF[ ]\011/* EndIf */
PUSHW[ ]\011/* 4 values pushed */
11 3 6 4 
CALL[ ]\011/* CallFunction */
PUSHW[ ]\011/* 3 values pushed */
9 0 14 
SRP1[ ]\011/* SetRefPoint1 */
SRP2[ ]\011/* SetRefPoint2 */
IP[ ]\011/* InterpolatePts */
IUP[0]\011/* InterpolateUntPts */
IUP[1]\011/* InterpolateUntPts */";
};
width = 194;
}
);
note = Adieresis;
unicode = 00C4;
},
{
glyphname = Agrave;
layers = (
{
layerId = "14B2064F-49AA-4860-BD4E-8ABAFB41335C";
paths = (
{
closed = 1;
nodes = (
"135 203 LINE",
"55 203 LINE",
"35 0 LINE",
"3 0 LINE",
"73 699 LINE",
"119 699 LINE",
"190 0 LINE",
"155 0 LINE"
);
},
{
closed = 1;
nodes = (
"58 231 LINE",
"132 231 LINE",
"96 593 LINE",
"95 593 LINE"
);
},
{
closed = 1;
nodes = (
"108 738 LINE",
"62 824 LINE",
"30 824 LINE",
"85 738 LINE"
);
}
);
userData = {
assembly = "SVTCA[0]\011/* SetFreedomAndProjectionVectorToAxis */
PUSHW[ ]\011/* 1 value pushed */
13 
MDAP[1]\011/* MoveDirectAbsPt */
PUSHW[ ]\011/* 1 value pushed */
0 
RCVT[ ]\011/* ReadCVT */
IF[ ]\011/* If */
PUSHW[ ]\011/* 1 value pushed */
2 
MDAP[1]\011/* MoveDirectAbsPt */
ELSE[ ]\011/* Else */
PUSHW[ ]\011/* 2 values pushed */
2 13 
MIAP[0]\011/* MoveIndirectAbsPt */
EIF[ ]\011/* EndIf */
PUSHW[ ]\011/* 1 value pushed */
0 
RCVT[ ]\011/* ReadCVT */
IF[ ]\011/* If */
PUSHW[ ]\011/* 1 value pushed */
0 
MDAP[1]\011/* MoveDirectAbsPt */
ELSE[ ]\011/* Else */
PUSHW[ ]\011/* 2 values pushed */
0 7 
MIAP[0]\011/* MoveIndirectAbsPt */
EIF[ ]\011/* EndIf */
PUSHW[ ]\011/* 1 value pushed */
0 
RCVT[ ]\011/* ReadCVT */
IF[ ]\011/* If */
PUSHW[ ]\011/* 1 value pushed */
4 
MDAP[1]\011/* MoveDirectAbsPt */
ELSE[ ]\011/* Else */
PUSHW[ ]\011/* 2 values pushed */
4 7 
MIAP[0]\011/* MoveIndirectAbsPt */
EIF[ ]\011/* EndIf */
PUSHW[ ]\011/* 4 values pushed */
11 3 6 4 
CALL[ ]\011/* CallFunction */
PUSHW[ ]\011/* 3 values pushed */
9 0 13 
SRP1[ ]\011/* SetRefPoint1 */
SRP2[ ]\011/* SetRefPoint2 */
IP[ ]\011/* InterpolatePts */
PUSHW[ ]\011/* 3 values pushed */
15 0 13 
SRP1[ ]\011/* SetRefPoint1 */
SRP2[ ]\011/* SetRefPoint2 */
IP[ ]\011/* InterpolatePts */
IUP[0]\011/* InterpolateUntPts */
IUP[1]\011/* InterpolateUntPts */";
};
width = 194;
}
);
note = Agrave;
unicode = 00C0;
},
{
glyphname = Amacron;
layers = (
{
layerId = "14B2064F-49AA-4860-BD4E-8ABAFB41335C";
paths = (
{
closed = 1;
nodes = (
"155 0 LINE",
"190 0 LINE",
"119 699 LINE",
"73 699 LINE",
"3 0 LINE",
"35 0 LINE",
"55 203 LINE",
"135 203 LINE"
);
},
{
closed = 1;
nodes = (
"95 593 LINE",
"96 593 LINE",
"132 231 LINE",
"58 231 LINE"
);
},
{
closed = 1;
nodes = (
"152 797 LINE",
"38 797 LINE",
"38 772 LINE",
"152 772 LINE"
);
}
);
userData = {
assembly = "SVTCA[0]\011/* SetFreedomAndProjectionVectorToAxis */
PUSHW[ ]\011/* 1 value pushed */
0 
RCVT[ ]\011/* ReadCVT */
IF[ ]\011/* If */
PUSHW[ ]\011/* 1 value pushed */
4 
MDAP[1]\011/* MoveDirectAbsPt */
ELSE[ ]\011/* Else */
PUSHW[ ]\011/* 2 values pushed */
4 13 
MIAP[0]\011/* MoveIndirectAbsPt */
EIF[ ]\011/* EndIf */
PUSHW[ ]\011/* 1 value pushed */
0 
RCVT[ ]\011/* ReadCVT */
IF[ ]\011/* If */
PUSHW[ ]\011/* 1 value pushed */
2 
MDAP[1]\011/* MoveDirectAbsPt */
ELSE[ ]\011/* Else */
PUSHW[ ]\011/* 2 values pushed */
2 7 
MIAP[0]\011/* MoveIndirectAbsPt */
EIF[ ]\011/* EndIf */
PUSHW[ ]\011/* 1 value pushed */
0 
RCVT[ ]\011/* ReadCVT */
IF[ ]\011/* If */
PUSHW[ ]\011/* 1 value pushed */
6 
MDAP[1]\011/* MoveDirectAbsPt */
ELSE[ ]\011/* Else */
PUSHW[ ]\011/* 2 values pushed */
6 7 
MIAP[0]\011/* MoveIndirectAbsPt */
EIF[ ]\011/* EndIf */
PUSHW[ ]\011/* 4 values pushed */
15 3 12 4 
CALL[ ]\011/* CallFunction */
PUSHW[ ]\011/* 4 values pushed */
9 3 0 4 
CALL[ ]\011/* CallFunction */
PUSHW[ ]\011/* 3 values pushed */
11 2 4 
SRP1[ ]\011/* SetRefPoint1 */
SRP2[ ]\011/* SetRefPoint2 */
IP[ ]\011/* InterpolatePts */
IUP[0]\011/* InterpolateUntPts */
IUP[1]\011/* InterpolateUntPts */";
};
width = 194;
}
);
note = Amacron;
unicode = 0100;
},
{
glyphname = Aogonek;
layers = (
{
layerId = "14B2064F-49AA-4860-BD4E-8ABAFB41335C";
paths = (
{
closed = 1;
nodes = (
"208 -53 LINE",
"191.066 -81.224 OFFCURVE",
"154 -76.339 OFFCURVE",
"154 -45 CURVE",
"152.667 -29 OFFCURVE",
"167.667 -9.333 OFFCURVE",
"189 0 CURVE",
"190 0 LINE",
"119 699 LINE",
"73 699 LINE",
"3 0 LINE",
"35 0 LINE",
"55 203 LINE",
"135 203 LINE",
"155 0 LINE",
"161 0 LINE",
"143.667 -13.333 OFFCURVE",
"133 -29 OFFCURVE",
"133 -49 CURVE SMOOTH",
"133 -97.676 OFFCURVE",
"202.082 -104.242 OFFCURVE",
"221 -61 CURVE"
);
},
{
closed = 1;
nodes = (
"95 593 LINE",
"96 593 LINE",
"132 231 LINE",
"58 231 LINE"
);
}
);
userData = {
assembly = "PUSHW[ ]\011/* 4 values pushed */
20 5 5 4 
CALL[ ]\011/* CallFunction */
NPUSHW[ ]\011/* 5 values pushed */
154 5 170 5 2 
DELTAP3[ ]\011/* DeltaExceptionP3 */
NPUSHW[ ]\011/* 33 values pushed */
9 5 25 5 41 5 57 5 73 5 89 5 105 5 121 5 137 5 153 5 169 5 185 5 201 5 217 5 233 5 249 5 16 
DELTAP1[ ]\011/* DeltaExceptionP1 */
NPUSHW[ ]\011/* 33 values pushed */
9 5 25 5 41 5 57 5 73 5 89 5 105 5 121 5 137 5 153 5 169 5 185 5 201 5 217 5 233 5 249 5 16 
DELTAP2[ ]\011/* DeltaExceptionP2 */
NPUSHW[ ]\011/* 19 values pushed */
9 5 25 5 41 5 57 5 73 5 89 5 105 5 121 5 137 5 9 
DELTAP3[ ]\011/* DeltaExceptionP3 */
PUSHW[ ]\011/* 1 value pushed */
20 
SRP0[ ]\011/* SetRefPoint0 */
PUSHW[ ]\011/* 1 value pushed */
9 
MDRP[10000]\011/* MoveDirectRelPt */
PUSHW[ ]\011/* 1 value pushed */
9 
MDAP[1]\011/* MoveDirectAbsPt */
PUSHW[ ]\011/* 1 value pushed */
5 
SRP0[ ]\011/* SetRefPoint0 */
PUSHW[ ]\011/* 1 value pushed */
10 
MDRP[10000]\011/* MoveDirectRelPt */
PUSHW[ ]\011/* 1 value pushed */
10 
MDAP[1]\011/* MoveDirectAbsPt */
PUSHW[ ]\011/* 1 value pushed */
5 
SRP0[ ]\011/* SetRefPoint0 */
PUSHW[ ]\011/* 1 value pushed */
27 
MDRP[10000]\011/* MoveDirectRelPt */
PUSHW[ ]\011/* 1 value pushed */
27 
MDAP[1]\011/* MoveDirectAbsPt */
PUSHW[ ]\011/* 1 value pushed */
20 
SRP0[ ]\011/* SetRefPoint0 */
PUSHW[ ]\011/* 1 value pushed */
31 
MDRP[11100]\011/* MoveDirectRelPt */
SVTCA[0]\011/* SetFreedomAndProjectionVectorToAxis */
PUSHW[ ]\011/* 1 value pushed */
0 
RCVT[ ]\011/* ReadCVT */
IF[ ]\011/* If */
PUSHW[ ]\011/* 1 value pushed */
14 
MDAP[1]\011/* MoveDirectAbsPt */
ELSE[ ]\011/* Else */
PUSHW[ ]\011/* 2 values pushed */
14 13 
MIAP[0]\011/* MoveIndirectAbsPt */
EIF[ ]\011/* EndIf */
PUSHW[ ]\011/* 1 value pushed */
0 
RCVT[ ]\011/* ReadCVT */
IF[ ]\011/* If */
PUSHW[ ]\011/* 1 value pushed */
8 
MDAP[1]\011/* MoveDirectAbsPt */
ELSE[ ]\011/* Else */
PUSHW[ ]\011/* 2 values pushed */
8 7 
MIAP[0]\011/* MoveIndirectAbsPt */
EIF[ ]\011/* EndIf */
PUSHW[ ]\011/* 1 value pushed */
0 
RCVT[ ]\011/* ReadCVT */
IF[ ]\011/* If */
PUSHW[ ]\011/* 1 value pushed */
12 
MDAP[1]\011/* MoveDirectAbsPt */
ELSE[ ]\011/* Else */
PUSHW[ ]\011/* 2 values pushed */
12 7 
MIAP[0]\011/* MoveIndirectAbsPt */
EIF[ ]\011/* EndIf */
PUSHW[ ]\011/* 1 value pushed */
0 
RCVT[ ]\011/* ReadCVT */
IF[ ]\011/* If */
PUSHW[ ]\011/* 1 value pushed */
16 
MDAP[1]\011/* MoveDirectAbsPt */
ELSE[ ]\011/* Else */
PUSHW[ ]\011/* 2 values pushed */
16 7 
MIAP[0]\011/* MoveIndirectAbsPt */
EIF[ ]\011/* EndIf */
PUSHW[ ]\011/* 4 values pushed */
27 3 10 4 
CALL[ ]\011/* CallFunction */
PUSHW[ ]\011/* 3 values pushed */
29 8 14 
SRP1[ ]\011/* SetRefPoint1 */
SRP2[ ]\011/* SetRefPoint2 */
IP[ ]\011/* InterpolatePts */
IUP[0]\011/* InterpolateUntPts */
IUP[1]\011/* InterpolateUntPts */";
};
width = 194;
}
);
note = Aogonek;
unicode = 0104;
},
{
glyphname = Aring;
layers = (
{
layerId = "14B2064F-49AA-4860-BD4E-8ABAFB41335C";
paths = (
{
closed = 1;
nodes = (
"135 203 LINE",
"55 203 LINE",
"35 0 LINE",
"3 0 LINE",
"73 699 LINE",
"119 699 LINE",
"190 0 LINE",
"155 0 LINE"
);
},
{
closed = 1;
nodes = (
"58 231 LINE",
"132 231 LINE",
"96 593 LINE",
"95 593 LINE"
);
},
{
closed = 1;
nodes = (
"128 734 OFFCURVE",
"152 760 OFFCURVE",
"152 788 CURVE SMOOTH",
"152 818.667 OFFCURVE",
"126.667 844 OFFCURVE",
"96 844 CURVE SMOOTH",
"66.667 844 OFFCURVE",
"43 818.667 OFFCURVE",
"43 788 CURVE SMOOTH",
"43 757.333 OFFCURVE",
"69.333 734 OFFCURVE",
"96 734 CURVE SMOOTH"
);
},
{
closed = 1;
nodes = (
"116 825 OFFCURVE",
"133 806.667 OFFCURVE",
"133 788 CURVE SMOOTH",
"133 769.333 OFFCURVE",
"116 753 OFFCURVE",
"96 753 CURVE SMOOTH",
"78.667 753 OFFCURVE",
"61 769.333 OFFCURVE",
"61 788 CURVE SMOOTH",
"61 806.667 OFFCURVE",
"78.667 825 OFFCURVE",
"96 825 CURVE SMOOTH"
);
}
);
userData = {
assembly = "PUSHW[ ]\011/* 3 values pushed */
21 15 3 
CALL[ ]\011/* CallFunction */
PUSHW[ ]\011/* 1 value pushed */
21 
SRP0[ ]\011/* SetRefPoint0 */
PUSHW[ ]\011/* 1 value pushed */
0 
MDRP[10000]\011/* MoveDirectRelPt */
PUSHW[ ]\011/* 1 value pushed */
0 
MDAP[1]\011/* MoveDirectAbsPt */
NPUSHW[ ]\011/* 5 values pushed */
218 15 234 15 2 
DELTAP1[ ]\011/* DeltaExceptionP1 */
NPUSHW[ ]\011/* 27 values pushed */
9 15 25 15 41 15 57 15 73 15 89 15 105 15 121 15 137 15 153 15 169 15 185 15 201 15 13 
DELTAP1[ ]\011/* DeltaExceptionP1 */
PUSHW[ ]\011/* 3 values pushed */
9 15 21 
SRP1[ ]\011/* SetRefPoint1 */
SRP2[ ]\011/* SetRefPoint2 */
IP[ ]\011/* InterpolatePts */
PUSHW[ ]\011/* 1 value pushed */
21 
SRP0[ ]\011/* SetRefPoint0 */
PUSHW[ ]\011/* 1 value pushed */
37 
MDRP[11100]\011/* MoveDirectRelPt */
SVTCA[0]\011/* SetFreedomAndProjectionVectorToAxis */
PUSHW[ ]\011/* 1 value pushed */
0 
RCVT[ ]\011/* ReadCVT */
IF[ ]\011/* If */
PUSHW[ ]\011/* 1 value pushed */
2 
MDAP[1]\011/* MoveDirectAbsPt */
ELSE[ ]\011/* Else */
PUSHW[ ]\011/* 2 values pushed */
2 13 
MIAP[0]\011/* MoveIndirectAbsPt */
EIF[ ]\011/* EndIf */
PUSHW[ ]\011/* 1 value pushed */
0 
RCVT[ ]\011/* ReadCVT */
IF[ ]\011/* If */
PUSHW[ ]\011/* 1 value pushed */
0 
MDAP[1]\011/* MoveDirectAbsPt */
ELSE[ ]\011/* Else */
PUSHW[ ]\011/* 2 values pushed */
0 7 
MIAP[0]\011/* MoveIndirectAbsPt */
EIF[ ]\011/* EndIf */
PUSHW[ ]\011/* 1 value pushed */
0 
RCVT[ ]\011/* ReadCVT */
IF[ ]\011/* If */
PUSHW[ ]\011/* 1 value pushed */
4 
MDAP[1]\011/* MoveDirectAbsPt */
ELSE[ ]\011/* Else */
PUSHW[ ]\011/* 2 values pushed */
4 7 
MIAP[0]\011/* MoveIndirectAbsPt */
EIF[ ]\011/* EndIf */
PUSHW[ ]\011/* 3 values pushed */
18 12 3 
CALL[ ]\011/* CallFunction */
PUSHW[ ]\011/* 3 values pushed */
9 0 2 
SRP1[ ]\011/* SetRefPoint1 */
SRP2[ ]\011/* SetRefPoint2 */
IP[ ]\011/* InterpolatePts */
IUP[0]\011/* InterpolateUntPts */
IUP[1]\011/* InterpolateUntPts */";
};
width = 194;
}
);
note = Aring;
unicode = 00C5;
},
{
glyphname = Atilde;
layers = (
{
layerId = "14B2064F-49AA-4860-BD4E-8ABAFB41335C";
paths = (
{
closed = 1;
nodes = (
"135 203 LINE",
"55 203 LINE",
"35 0 LINE",
"3 0 LINE",
"73 699 LINE",
"119 699 LINE",
"190 0 LINE",
"155 0 LINE"
);
},
{
closed = 1;
nodes = (
"58 231 LINE",
"132 231 LINE",
"96 593 LINE",
"95 593 LINE"
);
},
{
closed = 1;
nodes = (
"40 770 LINE",
"47.333 779.333 OFFCURVE",
"57 784 OFFCURVE",
"69 784 CURVE SMOOTH",
"88.889 784 OFFCURVE",
"111.276 762 OFFCURVE",
"131 762 CURVE SMOOTH",
"147.667 762 OFFCURVE",
"160.667 770 OFFCURVE",
"170 786 CURVE",
"153 797 LINE",
"145.667 787.667 OFFCURVE",
"136.667 783 OFFCURVE",
"126 783 CURVE SMOOTH",
"115.333 783 OFFCURVE",
"104.833 786.667 OFFCURVE",
"94.5 794 CURVE SMOOTH",
"84.167 801.333 OFFCURVE",
"73.667 805 OFFCURVE",
"63 805 CURVE SMOOTH",
"47.667 805 OFFCURVE",
"35 797 OFFCURVE",
"25 781 CURVE"
);
}
);
userData = {
assembly = "SVTCA[0]\011/* SetFreedomAndProjectionVectorToAxis */
PUSHW[ ]\011/* 1 value pushed */
12 
MDAP[1]\011/* MoveDirectAbsPt */
PUSHW[ ]\011/* 1 value pushed */
17 
MDAP[1]\011/* MoveDirectAbsPt */
PUSHW[ ]\011/* 1 value pushed */
20 
MDAP[1]\011/* MoveDirectAbsPt */
PUSHW[ ]\011/* 1 value pushed */
27 
MDAP[1]\011/* MoveDirectAbsPt */
PUSHW[ ]\011/* 1 value pushed */
22 
MDAP[1]\011/* MoveDirectAbsPt */
PUSHW[ ]\011/* 1 value pushed */
0 
RCVT[ ]\011/* ReadCVT */
IF[ ]\011/* If */
PUSHW[ ]\011/* 1 value pushed */
2 
MDAP[1]\011/* MoveDirectAbsPt */
ELSE[ ]\011/* Else */
PUSHW[ ]\011/* 2 values pushed */
2 13 
MIAP[0]\011/* MoveIndirectAbsPt */
EIF[ ]\011/* EndIf */
PUSHW[ ]\011/* 1 value pushed */
0 
RCVT[ ]\011/* ReadCVT */
IF[ ]\011/* If */
PUSHW[ ]\011/* 1 value pushed */
0 
MDAP[1]\011/* MoveDirectAbsPt */
ELSE[ ]\011/* Else */
PUSHW[ ]\011/* 2 values pushed */
0 7 
MIAP[0]\011/* MoveIndirectAbsPt */
EIF[ ]\011/* EndIf */
PUSHW[ ]\011/* 1 value pushed */
0 
RCVT[ ]\011/* ReadCVT */
IF[ ]\011/* If */
PUSHW[ ]\011/* 1 value pushed */
4 
MDAP[1]\011/* MoveDirectAbsPt */
ELSE[ ]\011/* Else */
PUSHW[ ]\011/* 2 values pushed */
4 7 
MIAP[0]\011/* MoveIndirectAbsPt */
EIF[ ]\011/* EndIf */
PUSHW[ ]\011/* 4 values pushed */
11 3 6 4 
CALL[ ]\011/* CallFunction */
PUSHW[ ]\011/* 3 values pushed */
9 0 20 
SRP1[ ]\011/* SetRefPoint1 */
SRP2[ ]\011/* SetRefPoint2 */
IP[ ]\011/* InterpolatePts */
IUP[0]\011/* InterpolateUntPts */
IUP[1]\011/* InterpolateUntPts */";
};
width = 194;
}
);
note = Atilde;
unicode = 00C3;
},
{
glyphname = AE;
layers = (
{
layerId = "14B2064F-49AA-4860-BD4E-8ABAFB41335C";
paths = (
{
closed = 1;
nodes = (
"260 669 LINE",
"260 699 LINE",
"73 699 LINE",
"3 0 LINE",
"35 0 LINE",
"54 203 LINE",
"129 203 LINE",
"129 0 LINE",
"263 0 LINE",
"263 30 LINE",
"165 30 LINE",
"165 336 LINE",
"238 336 LINE",
"238 363 LINE",
"165 363 LINE",
"165 669 LINE"
);
},
{
closed = 1;
nodes = (
"97 669 LINE",
"129 669 LINE",
"129 231 LINE",
"56 231 LINE"
);
}
);
userData = {
assembly = "PUSHW[ ]\011/* 4 values pushed */
5 4 8 4 
CALL[ ]\011/* CallFunction */
PUSHW[ ]\011/* 1 value pushed */
5 
SRP0[ ]\011/* SetRefPoint0 */
PUSHW[ ]\011/* 1 value pushed */
0 
MDRP[10000]\011/* MoveDirectRelPt */
PUSHW[ ]\011/* 1 value pushed */
8 
SRP0[ ]\011/* SetRefPoint0 */
PUSHW[ ]\011/* 1 value pushed */
15 
MDRP[11100]\011/* MoveDirectRelPt */
PUSHW[ ]\011/* 1 value pushed */
6 
MDRP[10000]\011/* MoveDirectRelPt */
PUSHW[ ]\011/* 1 value pushed */
6 
MDAP[1]\011/* MoveDirectAbsPt */
PUSHW[ ]\011/* 1 value pushed */
8 
SRP0[ ]\011/* SetRefPoint0 */
PUSHW[ ]\011/* 1 value pushed */
17 
MDRP[10000]\011/* MoveDirectRelPt */
SVTCA[0]\011/* SetFreedomAndProjectionVectorToAxis */
PUSHW[ ]\011/* 1 value pushed */
0 
RCVT[ ]\011/* ReadCVT */
IF[ ]\011/* If */
PUSHW[ ]\011/* 1 value pushed */
13 
MDAP[1]\011/* MoveDirectAbsPt */
ELSE[ ]\011/* Else */
PUSHW[ ]\011/* 2 values pushed */
13 13 
MIAP[0]\011/* MoveIndirectAbsPt */
EIF[ ]\011/* EndIf */
PUSHW[ ]\011/* 1 value pushed */
0 
RCVT[ ]\011/* ReadCVT */
IF[ ]\011/* If */
PUSHW[ ]\011/* 1 value pushed */
7 
MDAP[1]\011/* MoveDirectAbsPt */
ELSE[ ]\011/* Else */
PUSHW[ ]\011/* 2 values pushed */
7 7 
MIAP[0]\011/* MoveIndirectAbsPt */
EIF[ ]\011/* EndIf */
PUSHW[ ]\011/* 1 value pushed */
0 
RCVT[ ]\011/* ReadCVT */
IF[ ]\011/* If */
PUSHW[ ]\011/* 1 value pushed */
11 
MDAP[1]\011/* MoveDirectAbsPt */
ELSE[ ]\011/* Else */
PUSHW[ ]\011/* 2 values pushed */
11 7 
MIAP[0]\011/* MoveIndirectAbsPt */
EIF[ ]\011/* EndIf */
PUSHW[ ]\011/* 4 values pushed */
17 3 9 4 
CALL[ ]\011/* CallFunction */
PUSHW[ ]\011/* 4 values pushed */
2 3 3 4 
CALL[ ]\011/* CallFunction */
PUSHW[ ]\011/* 1 value pushed */
13 
SRP0[ ]\011/* SetRefPoint0 */
PUSHW[ ]\011/* 2 values pushed */
0 1 
MIRP[10100]\011/* MoveIndirectRelPt */
PUSHW[ ]\011/* 1 value pushed */
7 
SRP0[ ]\011/* SetRefPoint0 */
PUSHW[ ]\011/* 2 values pushed */
5 1 
MIRP[10100]\011/* MoveIndirectRelPt */
PUSHW[ ]\011/* 1 value pushed */
0 
SRP0[ ]\011/* SetRefPoint0 */
PUSHW[ ]\011/* 1 value pushed */
18 
MDRP[10000]\011/* MoveDirectRelPt */
PUSHW[ ]\011/* 1 value pushed */
19 
MDRP[10000]\011/* MoveDirectRelPt */
IUP[0]\011/* InterpolateUntPts */
IUP[1]\011/* InterpolateUntPts */";
};
width = 275;
}
);
note = AE;
unicode = 00C6;
},
{
glyphname = B;
layers = (
{
layerId = "14B2064F-49AA-4860-BD4E-8ABAFB41335C";
paths = (
{
closed = 1;
nodes = (
"186 611 LINE SMOOTH",
"186 673.667 OFFCURVE",
"148 699 OFFCURVE",
"112 699 CURVE SMOOTH",
"24 699 LINE",
"24 0 LINE",
"112 0 LINE SMOOTH",
"148 0 OFFCURVE",
"186 25 OFFCURVE",
"186 81 CURVE SMOOTH",
"186 291 LINE SMOOTH",
"186 333.667 OFFCURVE",
"171 352.667 OFFCURVE",
"151 358 CURVE",
"171 364.667 OFFCURVE",
"186 383.333 OFFCURVE",
"186 426 CURVE SMOOTH"
);
},
{
closed = 1;
nodes = (
"150 86 LINE SMOOTH",
"150 47.333 OFFCURVE",
"129 30 OFFCURVE",
"109 30 CURVE SMOOTH",
"60 30 LINE",
"60 345 LINE",
"116 345 LINE SMOOTH",
"136 345 OFFCURVE",
"150 327.667 OFFCURVE",
"150 289 CURVE SMOOTH"
);
},
{
closed = 1;
nodes = (
"60 372 LINE",
"60 669 LINE",
"109 669 LINE SMOOTH",
"129 669 OFFCURVE",
"150 651.333 OFFCURVE",
"150 606 CURVE SMOOTH",
"150 428 LINE SMOOTH",
"150 389.333 OFFCURVE",
"136 372 OFFCURVE",
"116 372 CURVE SMOOTH"
);
}
);
userData = {
assembly = "PUSHW[ ]\011/* 1 value pushed */
37 
MDAP[1]\011/* MoveDirectAbsPt */
PUSHW[ ]\011/* 1 value pushed */
17 
MDAP[1]\011/* MoveDirectAbsPt */
PUSHW[ ]\011/* 2 values pushed */
6 4 
MIRP[10100]\011/* MoveIndirectRelPt */
PUSHW[ ]\011/* 1 value pushed */
0 
MDRP[10000]\011/* MoveDirectRelPt */
PUSHW[ ]\011/* 1 value pushed */
17 
SRP0[ ]\011/* SetRefPoint0 */
PUSHW[ ]\011/* 1 value pushed */
3 
MDRP[10000]\011/* MoveDirectRelPt */
PUSHW[ ]\011/* 1 value pushed */
3 
MDAP[1]\011/* MoveDirectAbsPt */
PUSHW[ ]\011/* 1 value pushed */
37 
SRP0[ ]\011/* SetRefPoint0 */
PUSHW[ ]\011/* 1 value pushed */
11 
MDRP[10000]\011/* MoveDirectRelPt */
PUSHW[ ]\011/* 1 value pushed */
11 
MDAP[1]\011/* MoveDirectAbsPt */
PUSHW[ ]\011/* 2 values pushed */
22 4 
MIRP[10100]\011/* MoveIndirectRelPt */
PUSHW[ ]\011/* 1 value pushed */
17 
SRP0[ ]\011/* SetRefPoint0 */
PUSHW[ ]\011/* 1 value pushed */
30 
MDRP[10000]\011/* MoveDirectRelPt */
PUSHW[ ]\011/* 1 value pushed */
22 
SRP0[ ]\011/* SetRefPoint0 */
PUSHW[ ]\011/* 1 value pushed */
35 
MDRP[10000]\011/* MoveDirectRelPt */
PUSHW[ ]\011/* 1 value pushed */
6 
SRP0[ ]\011/* SetRefPoint0 */
PUSHW[ ]\011/* 1 value pushed */
38 
MDRP[11100]\011/* MoveDirectRelPt */
SVTCA[0]\011/* SetFreedomAndProjectionVectorToAxis */
PUSHW[ ]\011/* 1 value pushed */
0 
RCVT[ ]\011/* ReadCVT */
IF[ ]\011/* If */
PUSHW[ ]\011/* 1 value pushed */
12 
MDAP[1]\011/* MoveDirectAbsPt */
ELSE[ ]\011/* Else */
PUSHW[ ]\011/* 2 values pushed */
12 13 
MIAP[0]\011/* MoveIndirectAbsPt */
EIF[ ]\011/* EndIf */
PUSHW[ ]\011/* 1 value pushed */
0 
RCVT[ ]\011/* ReadCVT */
IF[ ]\011/* If */
PUSHW[ ]\011/* 1 value pushed */
10 
MDAP[1]\011/* MoveDirectAbsPt */
ELSE[ ]\011/* Else */
PUSHW[ ]\011/* 2 values pushed */
10 7 
MIAP[0]\011/* MoveIndirectAbsPt */
EIF[ ]\011/* EndIf */
PUSHW[ ]\011/* 4 values pushed */
27 3 20 4 
CALL[ ]\011/* CallFunction */
PUSHW[ ]\011/* 3 values pushed */
3 20 27 
SRP1[ ]\011/* SetRefPoint1 */
SRP2[ ]\011/* SetRefPoint2 */
IP[ ]\011/* InterpolatePts */
PUSHW[ ]\011/* 1 value pushed */
10 
SRP0[ ]\011/* SetRefPoint0 */
PUSHW[ ]\011/* 2 values pushed */
22 1 
MIRP[10100]\011/* MoveIndirectRelPt */
PUSHW[ ]\011/* 1 value pushed */
12 
SRP0[ ]\011/* SetRefPoint0 */
PUSHW[ ]\011/* 2 values pushed */
34 1 
MIRP[10100]\011/* MoveIndirectRelPt */
IUP[0]\011/* InterpolateUntPts */
IUP[1]\011/* InterpolateUntPts */";
};
width = 203;
}
);
note = B;
unicode = 0042;
},
{
glyphname = C;
layers = (
{
layerId = "14B2064F-49AA-4860-BD4E-8ABAFB41335C";
paths = (
{
closed = 1;
nodes = (
"109 -6 LINE SMOOTH",
"145 -6 OFFCURVE",
"183 19.333 OFFCURVE",
"183 82 CURVE SMOOTH",
"183 283 LINE",
"148 283 LINE",
"148 87 LINE SMOOTH",
"148 41.667 OFFCURVE",
"127.333 24 OFFCURVE",
"106 24 CURVE SMOOTH",
"98 24 LINE SMOOTH",
"78 24 OFFCURVE",
"57 41.667 OFFCURVE",
"57 87 CURVE SMOOTH",
"57 612 LINE SMOOTH",
"57 657.333 OFFCURVE",
"78 675 OFFCURVE",
"98 675 CURVE SMOOTH",
"106 675 LINE SMOOTH",
"127.333 675 OFFCURVE",
"148 657.333 OFFCURVE",
"148 612 CURVE SMOOTH",
"148 417 LINE",
"183 417 LINE",
"183 617 LINE SMOOTH",
"183 679.667 OFFCURVE",
"145 705 OFFCURVE",
"109 705 CURVE SMOOTH",
"95 705 LINE SMOOTH",
"54.357 705 OFFCURVE",
"21 674.421 OFFCURVE",
"21 617 CURVE SMOOTH",
"21 82 LINE SMOOTH",
"21 24.579 OFFCURVE",
"54.357 -6 OFFCURVE",
"95 -6 CURVE SMOOTH"
);
}
);
userData = {
assembly = "PUSHW[ ]\011/* 1 value pushed */
40 
MDAP[1]\011/* MoveDirectAbsPt */
PUSHW[ ]\011/* 1 value pushed */
17 
MDAP[1]\011/* MoveDirectAbsPt */
PUSHW[ ]\011/* 1 value pushed */
40 
SRP0[ ]\011/* SetRefPoint0 */
PUSHW[ ]\011/* 1 value pushed */
5 
MDRP[10000]\011/* MoveDirectRelPt */
PUSHW[ ]\011/* 1 value pushed */
5 
MDAP[1]\011/* MoveDirectAbsPt */
PUSHW[ ]\011/* 1 value pushed */
17 
SRP0[ ]\011/* SetRefPoint0 */
PUSHW[ ]\011/* 2 values pushed */
16 4 
MIRP[10100]\011/* MoveIndirectRelPt */
PUSHW[ ]\011/* 1 value pushed */
5 
SRP0[ ]\011/* SetRefPoint0 */
PUSHW[ ]\011/* 2 values pushed */
26 4 
MIRP[10100]\011/* MoveIndirectRelPt */
PUSHW[ ]\011/* 1 value pushed */
17 
SRP0[ ]\011/* SetRefPoint0 */
PUSHW[ ]\011/* 1 value pushed */
33 
MDRP[10000]\011/* MoveDirectRelPt */
PUSHW[ ]\011/* 1 value pushed */
16 
SRP0[ ]\011/* SetRefPoint0 */
PUSHW[ ]\011/* 1 value pushed */
35 
MDRP[10000]\011/* MoveDirectRelPt */
PUSHW[ ]\011/* 1 value pushed */
16 
SRP0[ ]\011/* SetRefPoint0 */
PUSHW[ ]\011/* 1 value pushed */
41 
MDRP[11100]\011/* MoveDirectRelPt */
SVTCA[0]\011/* SetFreedomAndProjectionVectorToAxis */
PUSHW[ ]\011/* 1 value pushed */
0 
RCVT[ ]\011/* ReadCVT */
IF[ ]\011/* If */
PUSHW[ ]\011/* 1 value pushed */
11 
MDAP[1]\011/* MoveDirectAbsPt */
ELSE[ ]\011/* Else */
PUSHW[ ]\011/* 2 values pushed */
11 13 
MIAP[0]\011/* MoveIndirectAbsPt */
EIF[ ]\011/* EndIf */
PUSHW[ ]\011/* 1 value pushed */
0 
RCVT[ ]\011/* ReadCVT */
IF[ ]\011/* If */
PUSHW[ ]\011/* 1 value pushed */
0 
MDAP[1]\011/* MoveDirectAbsPt */
ELSE[ ]\011/* Else */
PUSHW[ ]\011/* 2 values pushed */
0 7 
MIAP[0]\011/* MoveIndirectAbsPt */
EIF[ ]\011/* EndIf */
PUSHW[ ]\011/* 1 value pushed */
11 
SRP0[ ]\011/* SetRefPoint0 */
PUSHW[ ]\011/* 2 values pushed */
21 1 
MIRP[10100]\011/* MoveIndirectRelPt */
PUSHW[ ]\011/* 1 value pushed */
0 
SRP0[ ]\011/* SetRefPoint0 */
PUSHW[ ]\011/* 2 values pushed */
29 1 
MIRP[10100]\011/* MoveIndirectRelPt */
IUP[0]\011/* InterpolateUntPts */
IUP[1]\011/* InterpolateUntPts */";
};
width = 205;
}
);
note = C;
unicode = 0043;
},
{
glyphname = Cacute;
layers = (
{
layerId = "14B2064F-49AA-4860-BD4E-8ABAFB41335C";
paths = (
{
closed = 1;
nodes = (
"109 -6 LINE SMOOTH",
"145 -6 OFFCURVE",
"183 19.333 OFFCURVE",
"183 82 CURVE SMOOTH",
"183 283 LINE",
"148 283 LINE",
"148 87 LINE SMOOTH",
"148 41.667 OFFCURVE",
"127.333 24 OFFCURVE",
"106 24 CURVE SMOOTH",
"98 24 LINE SMOOTH",
"78 24 OFFCURVE",
"57 41.667 OFFCURVE",
"57 87 CURVE SMOOTH",
"57 612 LINE SMOOTH",
"57 657.333 OFFCURVE",
"78 675 OFFCURVE",
"98 675 CURVE SMOOTH",
"106 675 LINE SMOOTH",
"127.333 675 OFFCURVE",
"148 657.333 OFFCURVE",
"148 612 CURVE SMOOTH",
"148 417 LINE",
"183 417 LINE",
"183 617 LINE SMOOTH",
"183 679.667 OFFCURVE",
"145 705 OFFCURVE",
"109 705 CURVE SMOOTH",
"95 705 LINE SMOOTH",
"54.357 705 OFFCURVE",
"21 674.421 OFFCURVE",
"21 617 CURVE SMOOTH",
"21 82 LINE SMOOTH",
"21 24.579 OFFCURVE",
"54.357 -6 OFFCURVE",
"95 -6 CURVE SMOOTH"
);
},
{
closed = 1;
nodes = (
"113 743 LINE",
"168 829 LINE",
"136 829 LINE",
"90 743 LINE"
);
}
);
userData = {
assembly = "PUSHW[ ]\011/* 1 value pushed */
44 
MDAP[1]\011/* MoveDirectAbsPt */
PUSHW[ ]\011/* 1 value pushed */
17 
MDAP[1]\011/* MoveDirectAbsPt */
PUSHW[ ]\011/* 1 value pushed */
44 
SRP0[ ]\011/* SetRefPoint0 */
PUSHW[ ]\011/* 1 value pushed */
5 
MDRP[10000]\011/* MoveDirectRelPt */
PUSHW[ ]\011/* 1 value pushed */
5 
MDAP[1]\011/* MoveDirectAbsPt */
PUSHW[ ]\011/* 1 value pushed */
17 
SRP0[ ]\011/* SetRefPoint0 */
PUSHW[ ]\011/* 2 values pushed */
16 4 
MIRP[10100]\011/* MoveIndirectRelPt */
PUSHW[ ]\011/* 1 value pushed */
5 
SRP0[ ]\011/* SetRefPoint0 */
PUSHW[ ]\011/* 2 values pushed */
26 4 
MIRP[10100]\011/* MoveIndirectRelPt */
PUSHW[ ]\011/* 1 value pushed */
17 
SRP0[ ]\011/* SetRefPoint0 */
PUSHW[ ]\011/* 1 value pushed */
33 
MDRP[10000]\011/* MoveDirectRelPt */
PUSHW[ ]\011/* 1 value pushed */
16 
SRP0[ ]\011/* SetRefPoint0 */
PUSHW[ ]\011/* 1 value pushed */
35 
MDRP[10000]\011/* MoveDirectRelPt */
PUSHW[ ]\011/* 3 values pushed */
40 5 16 
SRP1[ ]\011/* SetRefPoint1 */
SRP2[ ]\011/* SetRefPoint2 */
IP[ ]\011/* InterpolatePts */
PUSHW[ ]\011/* 3 values pushed */
42 17 16 
SRP1[ ]\011/* SetRefPoint1 */
SRP2[ ]\011/* SetRefPoint2 */
IP[ ]\011/* InterpolatePts */
PUSHW[ ]\011/* 1 value pushed */
16 
SRP0[ ]\011/* SetRefPoint0 */
PUSHW[ ]\011/* 1 value pushed */
45 
MDRP[11100]\011/* MoveDirectRelPt */
SVTCA[0]\011/* SetFreedomAndProjectionVectorToAxis */
PUSHW[ ]\011/* 1 value pushed */
41 
MDAP[1]\011/* MoveDirectAbsPt */
PUSHW[ ]\011/* 1 value pushed */
0 
RCVT[ ]\011/* ReadCVT */
IF[ ]\011/* If */
PUSHW[ ]\011/* 1 value pushed */
11 
MDAP[1]\011/* MoveDirectAbsPt */
ELSE[ ]\011/* Else */
PUSHW[ ]\011/* 2 values pushed */
11 13 
MIAP[0]\011/* MoveIndirectAbsPt */
EIF[ ]\011/* EndIf */
PUSHW[ ]\011/* 1 value pushed */
0 
RCVT[ ]\011/* ReadCVT */
IF[ ]\011/* If */
PUSHW[ ]\011/* 1 value pushed */
0 
MDAP[1]\011/* MoveDirectAbsPt */
ELSE[ ]\011/* Else */
PUSHW[ ]\011/* 2 values pushed */
0 7 
MIAP[0]\011/* MoveIndirectAbsPt */
EIF[ ]\011/* EndIf */
PUSHW[ ]\011/* 1 value pushed */
11 
SRP0[ ]\011/* SetRefPoint0 */
PUSHW[ ]\011/* 2 values pushed */
21 1 
MIRP[10100]\011/* MoveIndirectRelPt */
PUSHW[ ]\011/* 1 value pushed */
0 
SRP0[ ]\011/* SetRefPoint0 */
PUSHW[ ]\011/* 2 values pushed */
29 1 
MIRP[10100]\011/* MoveIndirectRelPt */
PUSHW[ ]\011/* 3 values pushed */
40 0 41 
SRP1[ ]\011/* SetRefPoint1 */
SRP2[ ]\011/* SetRefPoint2 */
IP[ ]\011/* InterpolatePts */
IUP[0]\011/* InterpolateUntPts */
IUP[1]\011/* InterpolateUntPts */";
};
width = 205;
}
);
note = Cacute;
unicode = 0106;
},
{
glyphname = Ccaron;
layers = (
{
layerId = "14B2064F-49AA-4860-BD4E-8ABAFB41335C";
paths = (
{
closed = 1;
nodes = (
"109 -6 LINE SMOOTH",
"145 -6 OFFCURVE",
"183 19.333 OFFCURVE",
"183 82 CURVE SMOOTH",
"183 283 LINE",
"148 283 LINE",
"148 87 LINE SMOOTH",
"148 41.667 OFFCURVE",
"127.333 24 OFFCURVE",
"106 24 CURVE SMOOTH",
"98 24 LINE SMOOTH",
"78 24 OFFCURVE",
"57 41.667 OFFCURVE",
"57 87 CURVE SMOOTH",
"57 612 LINE SMOOTH",
"57 657.333 OFFCURVE",
"78 675 OFFCURVE",
"98 675 CURVE SMOOTH",
"106 675 LINE SMOOTH",
"127.333 675 OFFCURVE",
"148 657.333 OFFCURVE",
"148 612 CURVE SMOOTH",
"148 417 LINE",
"183 417 LINE",
"183 617 LINE SMOOTH",
"183 679.667 OFFCURVE",
"145 705 OFFCURVE",
"109 705 CURVE SMOOTH",
"95 705 LINE SMOOTH",
"54.357 705 OFFCURVE",
"21 674.421 OFFCURVE",
"21 617 CURVE SMOOTH",
"21 82 LINE SMOOTH",
"21 24.579 OFFCURVE",
"54.357 -6 OFFCURVE",
"95 -6 CURVE SMOOTH"
);
},
{
closed = 1;
nodes = (
"118 745 LINE",
"173 831 LINE",
"141 831 LINE",
"101 761 LINE",
"62 831 LINE",
"30 831 LINE",
"85 745 LINE"
);
}
);
userData = {
assembly = "PUSHW[ ]\011/* 1 value pushed */
47 
MDAP[1]\011/* MoveDirectAbsPt */
PUSHW[ ]\011/* 1 value pushed */
17 
MDAP[1]\011/* MoveDirectAbsPt */
PUSHW[ ]\011/* 1 value pushed */
47 
SRP0[ ]\011/* SetRefPoint0 */
PUSHW[ ]\011/* 1 value pushed */
5 
MDRP[10000]\011/* MoveDirectRelPt */
PUSHW[ ]\011/* 1 value pushed */
5 
MDAP[1]\011/* MoveDirectAbsPt */
PUSHW[ ]\011/* 1 value pushed */
17 
SRP0[ ]\011/* SetRefPoint0 */
PUSHW[ ]\011/* 2 values pushed */
16 4 
MIRP[10100]\011/* MoveIndirectRelPt */
PUSHW[ ]\011/* 1 value pushed */
5 
SRP0[ ]\011/* SetRefPoint0 */
PUSHW[ ]\011/* 2 values pushed */
26 4 
MIRP[10100]\011/* MoveIndirectRelPt */
PUSHW[ ]\011/* 1 value pushed */
17 
SRP0[ ]\011/* SetRefPoint0 */
PUSHW[ ]\011/* 1 value pushed */
33 
MDRP[10000]\011/* MoveDirectRelPt */
PUSHW[ ]\011/* 1 value pushed */
16 
SRP0[ ]\011/* SetRefPoint0 */
PUSHW[ ]\011/* 1 value pushed */
35 
MDRP[10000]\011/* MoveDirectRelPt */
PUSHW[ ]\011/* 3 values pushed */
41 5 26 
SRP1[ ]\011/* SetRefPoint1 */
SRP2[ ]\011/* SetRefPoint2 */
IP[ ]\011/* InterpolatePts */
PUSHW[ ]\011/* 1 value pushed */
26 
SRP0[ ]\011/* SetRefPoint0 */
PUSHW[ ]\011/* 1 value pushed */
42 
MDRP[10000]\011/* MoveDirectRelPt */
PUSHW[ ]\011/* 1 value pushed */
42 
MDAP[1]\011/* MoveDirectAbsPt */
PUSHW[ ]\011/* 1 value pushed */
17 
SRP0[ ]\011/* SetRefPoint0 */
PUSHW[ ]\011/* 1 value pushed */
44 
MDRP[10000]\011/* MoveDirectRelPt */
PUSHW[ ]\011/* 1 value pushed */
44 
MDAP[1]\011/* MoveDirectAbsPt */
PUSHW[ ]\011/* 3 values pushed */
45 17 16 
SRP1[ ]\011/* SetRefPoint1 */
SRP2[ ]\011/* SetRefPoint2 */
IP[ ]\011/* InterpolatePts */
PUSHW[ ]\011/* 1 value pushed */
16 
SRP0[ ]\011/* SetRefPoint0 */
PUSHW[ ]\011/* 1 value pushed */
48 
MDRP[11100]\011/* MoveDirectRelPt */
SVTCA[0]\011/* SetFreedomAndProjectionVectorToAxis */
PUSHW[ ]\011/* 1 value pushed */
41 
MDAP[1]\011/* MoveDirectAbsPt */
PUSHW[ ]\011/* 1 value pushed */
44 
MDAP[1]\011/* MoveDirectAbsPt */
PUSHW[ ]\011/* 1 value pushed */
0 
RCVT[ ]\011/* ReadCVT */
IF[ ]\011/* If */
PUSHW[ ]\011/* 1 value pushed */
11 
MDAP[1]\011/* MoveDirectAbsPt */
ELSE[ ]\011/* Else */
PUSHW[ ]\011/* 2 values pushed */
11 13 
MIAP[0]\011/* MoveIndirectAbsPt */
EIF[ ]\011/* EndIf */
PUSHW[ ]\011/* 1 value pushed */
0 
RCVT[ ]\011/* ReadCVT */
IF[ ]\011/* If */
PUSHW[ ]\011/* 1 value pushed */
0 
MDAP[1]\011/* MoveDirectAbsPt */
ELSE[ ]\011/* Else */
PUSHW[ ]\011/* 2 values pushed */
0 7 
MIAP[0]\011/* MoveIndirectAbsPt */
EIF[ ]\011/* EndIf */
PUSHW[ ]\011/* 1 value pushed */
11 
SRP0[ ]\011/* SetRefPoint0 */
PUSHW[ ]\011/* 2 values pushed */
21 1 
MIRP[10100]\011/* MoveIndirectRelPt */
PUSHW[ ]\011/* 1 value pushed */
0 
SRP0[ ]\011/* SetRefPoint0 */
PUSHW[ ]\011/* 2 values pushed */
29 1 
MIRP[10100]\011/* MoveIndirectRelPt */
PUSHW[ ]\011/* 3 values pushed */
43 0 41 
SRP1[ ]\011/* SetRefPoint1 */
SRP2[ ]\011/* SetRefPoint2 */
IP[ ]\011/* InterpolatePts */
IUP[0]\011/* InterpolateUntPts */
IUP[1]\011/* InterpolateUntPts */";
};
width = 205;
}
);
note = Ccaron;
unicode = 010C;
},
{
glyphname = Ccedilla;
layers = (
{
layerId = "14B2064F-49AA-4860-BD4E-8ABAFB41335C";
paths = (
{
closed = 1;
nodes = (
"76.306 -117.175 OFFCURVE",
"155 -106.673 OFFCURVE",
"155 -54 CURVE SMOOTH",
"155 -30 OFFCURVE",
"127.667 -15.667 OFFCURVE",
"105 -25 CURVE",
"113 -6 LINE",
"147.667 -4.667 OFFCURVE",
"183 20.667 OFFCURVE",
"183 82 CURVE SMOOTH",
"183 283 LINE",
"148 283 LINE",
"148 87 LINE SMOOTH",
"148 41.667 OFFCURVE",
"127.333 24 OFFCURVE",
"106 24 CURVE SMOOTH",
"98 24 LINE SMOOTH",
"78 24 OFFCURVE",
"57 41.667 OFFCURVE",
"57 87 CURVE SMOOTH",
"57 612 LINE SMOOTH",
"57 657.333 OFFCURVE",
"78 675 OFFCURVE",
"98 675 CURVE SMOOTH",
"106 675 LINE SMOOTH",
"127.333 675 OFFCURVE",
"148 657.333 OFFCURVE",
"148 612 CURVE SMOOTH",
"148 417 LINE",
"183 417 LINE",
"183 617 LINE SMOOTH",
"183 679.667 OFFCURVE",
"145 705 OFFCURVE",
"109 705 CURVE SMOOTH",
"95 705 LINE SMOOTH",
"54.357 705 OFFCURVE",
"21 674.421 OFFCURVE",
"21 617 CURVE SMOOTH",
"21 82 LINE SMOOTH",
"21 25.276 OFFCURVE",
"53.247 -3.019 OFFCURVE",
"92 -6 CURVE",
"79 -35 LINE",
"87 -38 LINE",
"103 -27.333 OFFCURVE",
"128.667 -35 OFFCURVE",
"130 -55 CURVE SMOOTH",
"132.416 -88.818 OFFCURVE",
"74.71 -91.996 OFFCURVE",
"49 -72 CURVE",
"45 -89 LINE"
);
}
);
userData = {
assembly = "PUSHW[ ]\011/* 1 value pushed */
59 
MDAP[1]\011/* MoveDirectAbsPt */
PUSHW[ ]\011/* 1 value pushed */
28 
MDAP[1]\011/* MoveDirectAbsPt */
PUSHW[ ]\011/* 1 value pushed */
59 
SRP0[ ]\011/* SetRefPoint0 */
PUSHW[ ]\011/* 1 value pushed */
16 
MDRP[10000]\011/* MoveDirectRelPt */
PUSHW[ ]\011/* 1 value pushed */
16 
MDAP[1]\011/* MoveDirectAbsPt */
PUSHW[ ]\011/* 2 values pushed */
37 4 
MIRP[10100]\011/* MoveIndirectRelPt */
PUSHW[ ]\011/* 3 values pushed */
1 16 37 
SRP1[ ]\011/* SetRefPoint1 */
SRP2[ ]\011/* SetRefPoint2 */
IP[ ]\011/* InterpolatePts */
PUSHW[ ]\011/* 1 value pushed */
28 
SRP0[ ]\011/* SetRefPoint0 */
PUSHW[ ]\011/* 2 values pushed */
27 4 
MIRP[10100]\011/* MoveIndirectRelPt */
PUSHW[ ]\011/* 3 values pushed */
11 16 27 
SRP1[ ]\011/* SetRefPoint1 */
SRP2[ ]\011/* SetRefPoint2 */
IP[ ]\011/* InterpolatePts */
PUSHW[ ]\011/* 1 value pushed */
28 
SRP0[ ]\011/* SetRefPoint0 */
PUSHW[ ]\011/* 1 value pushed */
44 
MDRP[10000]\011/* MoveDirectRelPt */
PUSHW[ ]\011/* 1 value pushed */
27 
SRP0[ ]\011/* SetRefPoint0 */
PUSHW[ ]\011/* 1 value pushed */
46 
MDRP[10000]\011/* MoveDirectRelPt */
PUSHW[ ]\011/* 3 values pushed */
51 16 27 
SRP1[ ]\011/* SetRefPoint1 */
SRP2[ ]\011/* SetRefPoint2 */
IP[ ]\011/* InterpolatePts */
PUSHW[ ]\011/* 1 value pushed */
28 
SRP0[ ]\011/* SetRefPoint0 */
PUSHW[ ]\011/* 1 value pushed */
54 
MDRP[10000]\011/* MoveDirectRelPt */
PUSHW[ ]\011/* 1 value pushed */
54 
MDAP[1]\011/* MoveDirectAbsPt */
PUSHW[ ]\011/* 1 value pushed */
27 
SRP0[ ]\011/* SetRefPoint0 */
PUSHW[ ]\011/* 1 value pushed */
60 
MDRP[11100]\011/* MoveDirectRelPt */
SVTCA[0]\011/* SetFreedomAndProjectionVectorToAxis */
PUSHW[ ]\011/* 1 value pushed */
0 
RCVT[ ]\011/* ReadCVT */
IF[ ]\011/* If */
PUSHW[ ]\011/* 1 value pushed */
22 
MDAP[1]\011/* MoveDirectAbsPt */
ELSE[ ]\011/* Else */
PUSHW[ ]\011/* 2 values pushed */
22 13 
MIAP[0]\011/* MoveIndirectAbsPt */
EIF[ ]\011/* EndIf */
PUSHW[ ]\011/* 2 values pushed */
32 1 
MIRP[10100]\011/* MoveIndirectRelPt */
IUP[0]\011/* InterpolateUntPts */
IUP[1]\011/* InterpolateUntPts */";
};
width = 205;
}
);
note = Ccedilla;
unicode = 00C7;
},
{
glyphname = Ccircumflex;
layers = (
{
layerId = "14B2064F-49AA-4860-BD4E-8ABAFB41335C";
paths = (
{
closed = 1;
nodes = (
"109 -6 LINE SMOOTH",
"145 -6 OFFCURVE",
"183 19.333 OFFCURVE",
"183 82 CURVE SMOOTH",
"183 283 LINE",
"148 283 LINE",
"148 87 LINE SMOOTH",
"148 41.667 OFFCURVE",
"127.333 24 OFFCURVE",
"106 24 CURVE SMOOTH",
"98 24 LINE SMOOTH",
"78 24 OFFCURVE",
"57 41.667 OFFCURVE",
"57 87 CURVE SMOOTH",
"57 612 LINE SMOOTH",
"57 657.333 OFFCURVE",
"78 675 OFFCURVE",
"98 675 CURVE SMOOTH",
"106 675 LINE SMOOTH",
"127.333 675 OFFCURVE",
"148 657.333 OFFCURVE",
"148 612 CURVE SMOOTH",
"148 417 LINE",
"183 417 LINE",
"183 617 LINE SMOOTH",
"183 679.667 OFFCURVE",
"145 705 OFFCURVE",
"109 705 CURVE SMOOTH",
"95 705 LINE SMOOTH",
"54.357 705 OFFCURVE",
"21 674.421 OFFCURVE",
"21 617 CURVE SMOOTH",
"21 82 LINE SMOOTH",
"21 24.579 OFFCURVE",
"54.357 -6 OFFCURVE",
"95 -6 CURVE SMOOTH"
);
},
{
closed = 1;
nodes = (
"86 829 LINE",
"31 743 LINE",
"63 743 LINE",
"102 812 LINE",
"142 743 LINE",
"174 743 LINE",
"119 829 LINE"
);
}
);
userData = {
assembly = "PUSHW[ ]\011/* 1 value pushed */
47 
MDAP[1]\011/* MoveDirectAbsPt */
PUSHW[ ]\011/* 1 value pushed */
17 
MDAP[1]\011/* MoveDirectAbsPt */
PUSHW[ ]\011/* 1 value pushed */
47 
SRP0[ ]\011/* SetRefPoint0 */
PUSHW[ ]\011/* 1 value pushed */
5 
MDRP[10000]\011/* MoveDirectRelPt */
PUSHW[ ]\011/* 1 value pushed */
5 
MDAP[1]\011/* MoveDirectAbsPt */
PUSHW[ ]\011/* 1 value pushed */
17 
SRP0[ ]\011/* SetRefPoint0 */
PUSHW[ ]\011/* 2 values pushed */
16 4 
MIRP[10100]\011/* MoveIndirectRelPt */
PUSHW[ ]\011/* 1 value pushed */
5 
SRP0[ ]\011/* SetRefPoint0 */
PUSHW[ ]\011/* 2 values pushed */
26 4 
MIRP[10100]\011/* MoveIndirectRelPt */
PUSHW[ ]\011/* 1 value pushed */
17 
SRP0[ ]\011/* SetRefPoint0 */
PUSHW[ ]\011/* 1 value pushed */
33 
MDRP[10000]\011/* MoveDirectRelPt */
PUSHW[ ]\011/* 1 value pushed */
16 
SRP0[ ]\011/* SetRefPoint0 */
PUSHW[ ]\011/* 1 value pushed */
35 
MDRP[10000]\011/* MoveDirectRelPt */
PUSHW[ ]\011/* 3 values pushed */
41 17 16 
SRP1[ ]\011/* SetRefPoint1 */
SRP2[ ]\011/* SetRefPoint2 */
IP[ ]\011/* InterpolatePts */
PUSHW[ ]\011/* 1 value pushed */
17 
SRP0[ ]\011/* SetRefPoint0 */
PUSHW[ ]\011/* 1 value pushed */
42 
MDRP[10000]\011/* MoveDirectRelPt */
PUSHW[ ]\011/* 1 value pushed */
42 
MDAP[1]\011/* MoveDirectAbsPt */
PUSHW[ ]\011/* 1 value pushed */
26 
SRP0[ ]\011/* SetRefPoint0 */
PUSHW[ ]\011/* 1 value pushed */
44 
MDRP[10000]\011/* MoveDirectRelPt */
PUSHW[ ]\011/* 1 value pushed */
44 
MDAP[1]\011/* MoveDirectAbsPt */
PUSHW[ ]\011/* 3 values pushed */
45 5 26 
SRP1[ ]\011/* SetRefPoint1 */
SRP2[ ]\011/* SetRefPoint2 */
IP[ ]\011/* InterpolatePts */
PUSHW[ ]\011/* 1 value pushed */
16 
SRP0[ ]\011/* SetRefPoint0 */
PUSHW[ ]\011/* 1 value pushed */
48 
MDRP[11100]\011/* MoveDirectRelPt */
SVTCA[0]\011/* SetFreedomAndProjectionVectorToAxis */
PUSHW[ ]\011/* 1 value pushed */
40 
MDAP[1]\011/* MoveDirectAbsPt */
PUSHW[ ]\011/* 1 value pushed */
0 
RCVT[ ]\011/* ReadCVT */
IF[ ]\011/* If */
PUSHW[ ]\011/* 1 value pushed */
11 
MDAP[1]\011/* MoveDirectAbsPt */
ELSE[ ]\011/* Else */
PUSHW[ ]\011/* 2 values pushed */
11 13 
MIAP[0]\011/* MoveIndirectAbsPt */
EIF[ ]\011/* EndIf */
PUSHW[ ]\011/* 1 value pushed */
0 
RCVT[ ]\011/* ReadCVT */
IF[ ]\011/* If */
PUSHW[ ]\011/* 1 value pushed */
0 
MDAP[1]\011/* MoveDirectAbsPt */
ELSE[ ]\011/* Else */
PUSHW[ ]\011/* 2 values pushed */
0 7 
MIAP[0]\011/* MoveIndirectAbsPt */
EIF[ ]\011/* EndIf */
PUSHW[ ]\011/* 1 value pushed */
11 
SRP0[ ]\011/* SetRefPoint0 */
PUSHW[ ]\011/* 2 values pushed */
21 1 
MIRP[10100]\011/* MoveIndirectRelPt */
PUSHW[ ]\011/* 1 value pushed */
0 
SRP0[ ]\011/* SetRefPoint0 */
PUSHW[ ]\011/* 2 values pushed */
29 1 
MIRP[10100]\011/* MoveIndirectRelPt */
PUSHW[ ]\011/* 1 value pushed */
11 
SRP0[ ]\011/* SetRefPoint0 */
PUSHW[ ]\011/* 2 values pushed */
44 1 
MIRP[10100]\011/* MoveIndirectRelPt */
PUSHW[ ]\011/* 1 value pushed */
41 
MDRP[10000]\011/* MoveDirectRelPt */
IUP[0]\011/* InterpolateUntPts */
IUP[1]\011/* InterpolateUntPts */";
};
width = 205;
}
);
note = Ccircumflex;
unicode = 0108;
},
{
glyphname = Cdotaccent;
layers = (
{
layerId = "14B2064F-49AA-4860-BD4E-8ABAFB41335C";
paths = (
{
closed = 1;
nodes = (
"109 -6 LINE SMOOTH",
"145 -6 OFFCURVE",
"183 19.333 OFFCURVE",
"183 82 CURVE SMOOTH",
"183 283 LINE",
"148 283 LINE",
"148 87 LINE SMOOTH",
"148 41.667 OFFCURVE",
"127.333 24 OFFCURVE",
"106 24 CURVE SMOOTH",
"98 24 LINE SMOOTH",
"78 24 OFFCURVE",
"57 41.667 OFFCURVE",
"57 87 CURVE SMOOTH",
"57 612 LINE SMOOTH",
"57 657.333 OFFCURVE",
"78 675 OFFCURVE",
"98 675 CURVE SMOOTH",
"106 675 LINE SMOOTH",
"127.333 675 OFFCURVE",
"148 657.333 OFFCURVE",
"148 612 CURVE SMOOTH",
"148 417 LINE",
"183 417 LINE",
"183 617 LINE SMOOTH",
"183 679.667 OFFCURVE",
"145 705 OFFCURVE",
"109 705 CURVE SMOOTH",
"95 705 LINE SMOOTH",
"54.357 705 OFFCURVE",
"21 674.421 OFFCURVE",
"21 617 CURVE SMOOTH",
"21 82 LINE SMOOTH",
"21 24.579 OFFCURVE",
"54.357 -6 OFFCURVE",
"95 -6 CURVE SMOOTH"
);
},
{
closed = 1;
nodes = (
"114 820 LINE",
"89 820 LINE",
"89 757 LINE",
"114 757 LINE"
);
}
);
userData = {
assembly = "PUSHW[ ]\011/* 4 values pushed */
26 4 5 4 
CALL[ ]\011/* CallFunction */
PUSHW[ ]\011/* 4 values pushed */
40 5 41 4 
CALL[ ]\011/* CallFunction */
PUSHW[ ]\011/* 4 values pushed */
16 4 17 4 
CALL[ ]\011/* CallFunction */
PUSHW[ ]\011/* 1 value pushed */
17 
SRP0[ ]\011/* SetRefPoint0 */
PUSHW[ ]\011/* 1 value pushed */
33 
MDRP[10000]\011/* MoveDirectRelPt */
PUSHW[ ]\011/* 1 value pushed */
16 
SRP0[ ]\011/* SetRefPoint0 */
PUSHW[ ]\011/* 1 value pushed */
35 
MDRP[10000]\011/* MoveDirectRelPt */
PUSHW[ ]\011/* 1 value pushed */
16 
SRP0[ ]\011/* SetRefPoint0 */
PUSHW[ ]\011/* 1 value pushed */
45 
MDRP[11100]\011/* MoveDirectRelPt */
SVTCA[0]\011/* SetFreedomAndProjectionVectorToAxis */
PUSHW[ ]\011/* 1 value pushed */
42 
MDAP[1]\011/* MoveDirectAbsPt */
PUSHW[ ]\011/* 1 value pushed */
0 
RCVT[ ]\011/* ReadCVT */
IF[ ]\011/* If */
PUSHW[ ]\011/* 1 value pushed */
11 
MDAP[1]\011/* MoveDirectAbsPt */
ELSE[ ]\011/* Else */
PUSHW[ ]\011/* 2 values pushed */
11 13 
MIAP[0]\011/* MoveIndirectAbsPt */
EIF[ ]\011/* EndIf */
PUSHW[ ]\011/* 1 value pushed */
0 
RCVT[ ]\011/* ReadCVT */
IF[ ]\011/* If */
PUSHW[ ]\011/* 1 value pushed */
0 
MDAP[1]\011/* MoveDirectAbsPt */
ELSE[ ]\011/* Else */
PUSHW[ ]\011/* 2 values pushed */
0 7 
MIAP[0]\011/* MoveIndirectAbsPt */
EIF[ ]\011/* EndIf */
PUSHW[ ]\011/* 1 value pushed */
11 
SRP0[ ]\011/* SetRefPoint0 */
PUSHW[ ]\011/* 2 values pushed */
21 1 
MIRP[10100]\011/* MoveIndirectRelPt */
PUSHW[ ]\011/* 1 value pushed */
0 
SRP0[ ]\011/* SetRefPoint0 */
PUSHW[ ]\011/* 2 values pushed */
29 1 
MIRP[10100]\011/* MoveIndirectRelPt */
IUP[0]\011/* InterpolateUntPts */
IUP[1]\011/* InterpolateUntPts */";
};
width = 205;
}
);
note = Cdotaccent;
unicode = 010A;
},
{
glyphname = D;
layers = (
{
layerId = "14B2064F-49AA-4860-BD4E-8ABAFB41335C";
paths = (
{
closed = 1;
nodes = (
"112 0 LINE SMOOTH",
"153.238 0 OFFCURVE",
"186 27.044 OFFCURVE",
"186 84 CURVE SMOOTH",
"186 615 LINE SMOOTH",
"186 671.956 OFFCURVE",
"153.238 699 OFFCURVE",
"112 699 CURVE SMOOTH",
"24 699 LINE",
"24 0 LINE"
);
},
{
closed = 1;
nodes = (
"109 669 LINE SMOOTH",
"129 669 OFFCURVE",
"150 655.333 OFFCURVE",
"150 610 CURVE SMOOTH",
"150 89 LINE SMOOTH",
"150 43.667 OFFCURVE",
"129 30 OFFCURVE",
"109 30 CURVE SMOOTH",
"60 30 LINE",
"60 669 LINE"
);
}
);
userData = {
assembly = "PUSHW[ ]\011/* 1 value pushed */
24 
MDAP[1]\011/* MoveDirectAbsPt */
PUSHW[ ]\011/* 1 value pushed */
19 
MDAP[1]\011/* MoveDirectAbsPt */
PUSHW[ ]\011/* 1 value pushed */
24 
SRP0[ ]\011/* SetRefPoint0 */
PUSHW[ ]\011/* 1 value pushed */
0 
MDRP[10000]\011/* MoveDirectRelPt */
PUSHW[ ]\011/* 1 value pushed */
0 
MDAP[1]\011/* MoveDirectAbsPt */
PUSHW[ ]\011/* 1 value pushed */
19 
SRP0[ ]\011/* SetRefPoint0 */
PUSHW[ ]\011/* 2 values pushed */
8 4 
MIRP[10100]\011/* MoveIndirectRelPt */
PUSHW[ ]\011/* 1 value pushed */
0 
SRP0[ ]\011/* SetRefPoint0 */
PUSHW[ ]\011/* 2 values pushed */
15 4 
MIRP[10100]\011/* MoveIndirectRelPt */
PUSHW[ ]\011/* 1 value pushed */
8 
SRP0[ ]\011/* SetRefPoint0 */
PUSHW[ ]\011/* 1 value pushed */
25 
MDRP[11100]\011/* MoveDirectRelPt */
SVTCA[0]\011/* SetFreedomAndProjectionVectorToAxis */
PUSHW[ ]\011/* 1 value pushed */
0 
RCVT[ ]\011/* ReadCVT */
IF[ ]\011/* If */
PUSHW[ ]\011/* 1 value pushed */
1 
MDAP[1]\011/* MoveDirectAbsPt */
ELSE[ ]\011/* Else */
PUSHW[ ]\011/* 2 values pushed */
1 13 
MIAP[0]\011/* MoveIndirectAbsPt */
EIF[ ]\011/* EndIf */
PUSHW[ ]\011/* 1 value pushed */
0 
RCVT[ ]\011/* ReadCVT */
IF[ ]\011/* If */
PUSHW[ ]\011/* 1 value pushed */
0 
MDAP[1]\011/* MoveDirectAbsPt */
ELSE[ ]\011/* Else */
PUSHW[ ]\011/* 2 values pushed */
0 7 
MIAP[0]\011/* MoveIndirectAbsPt */
EIF[ ]\011/* EndIf */
PUSHW[ ]\011/* 1 value pushed */
1 
SRP0[ ]\011/* SetRefPoint0 */
PUSHW[ ]\011/* 2 values pushed */
14 1 
MIRP[10100]\011/* MoveIndirectRelPt */
PUSHW[ ]\011/* 1 value pushed */
0 
SRP0[ ]\011/* SetRefPoint0 */
PUSHW[ ]\011/* 2 values pushed */
15 1 
MIRP[10100]\011/* MoveIndirectRelPt */
IUP[0]\011/* InterpolateUntPts */
IUP[1]\011/* InterpolateUntPts */";
};
width = 207;
}
);
note = D;
unicode = 0044;
},
{
glyphname = Eth;
layers = (
{
layerId = "14B2064F-49AA-4860-BD4E-8ABAFB41335C";
paths = (
{
closed = 1;
nodes = (
"112 0 LINE SMOOTH",
"153.238 0 OFFCURVE",
"186 27.044 OFFCURVE",
"186 84 CURVE SMOOTH",
"186 615 LINE SMOOTH",
"186 671.956 OFFCURVE",
"153.238 699 OFFCURVE",
"112 699 CURVE SMOOTH",
"24 699 LINE",
"24 363 LINE",
"-7 363 LINE",
"-7 337 LINE",
"24 337 LINE",
"24 0 LINE"
);
},
{
closed = 1;
nodes = (
"109 669 LINE SMOOTH",
"129 669 OFFCURVE",
"150 655.333 OFFCURVE",
"150 610 CURVE SMOOTH",
"150 89 LINE SMOOTH",
"150 43.667 OFFCURVE",
"129 30 OFFCURVE",
"109 30 CURVE SMOOTH",
"60 30 LINE",
"60 337 LINE",
"91 337 LINE",
"91 363 LINE",
"60 363 LINE",
"60 669 LINE"
);
}
);
userData = {
assembly = "PUSHW[ ]\011/* 1 value pushed */
32 
MDAP[1]\011/* MoveDirectAbsPt */
PUSHW[ ]\011/* 1 value pushed */
27 
MDAP[1]\011/* MoveDirectAbsPt */
PUSHW[ ]\011/* 1 value pushed */
32 
SRP0[ ]\011/* SetRefPoint0 */
PUSHW[ ]\011/* 1 value pushed */
0 
MDRP[10000]\011/* MoveDirectRelPt */
PUSHW[ ]\011/* 1 value pushed */
0 
MDAP[1]\011/* MoveDirectAbsPt */
PUSHW[ ]\011/* 1 value pushed */
4 
MDRP[10000]\011/* MoveDirectRelPt */
PUSHW[ ]\011/* 1 value pushed */
27 
SRP0[ ]\011/* SetRefPoint0 */
PUSHW[ ]\011/* 2 values pushed */
12 4 
MIRP[10100]\011/* MoveIndirectRelPt */
PUSHW[ ]\011/* 1 value pushed */
0 
SRP0[ ]\011/* SetRefPoint0 */
PUSHW[ ]\011/* 2 values pushed */
23 4 
MIRP[10100]\011/* MoveIndirectRelPt */
PUSHW[ ]\011/* 1 value pushed */
18 
MDRP[10000]\011/* MoveDirectRelPt */
PUSHW[ ]\011/* 1 value pushed */
12 
SRP0[ ]\011/* SetRefPoint0 */
PUSHW[ ]\011/* 1 value pushed */
33 
MDRP[11100]\011/* MoveDirectRelPt */
SVTCA[0]\011/* SetFreedomAndProjectionVectorToAxis */
PUSHW[ ]\011/* 1 value pushed */
0 
RCVT[ ]\011/* ReadCVT */
IF[ ]\011/* If */
PUSHW[ ]\011/* 1 value pushed */
5 
MDAP[1]\011/* MoveDirectAbsPt */
ELSE[ ]\011/* Else */
PUSHW[ ]\011/* 2 values pushed */
5 13 
MIAP[0]\011/* MoveIndirectAbsPt */
EIF[ ]\011/* EndIf */
PUSHW[ ]\011/* 1 value pushed */
0 
RCVT[ ]\011/* ReadCVT */
IF[ ]\011/* If */
PUSHW[ ]\011/* 1 value pushed */
0 
MDAP[1]\011/* MoveDirectAbsPt */
ELSE[ ]\011/* Else */
PUSHW[ ]\011/* 2 values pushed */
0 7 
MIAP[0]\011/* MoveIndirectAbsPt */
EIF[ ]\011/* EndIf */
PUSHW[ ]\011/* 4 values pushed */
4 3 1 4 
CALL[ ]\011/* CallFunction */
PUSHW[ ]\011/* 1 value pushed */
5 
SRP0[ ]\011/* SetRefPoint0 */
PUSHW[ ]\011/* 2 values pushed */
18 1 
MIRP[10100]\011/* MoveIndirectRelPt */
PUSHW[ ]\011/* 1 value pushed */
4 
SRP0[ ]\011/* SetRefPoint0 */
PUSHW[ ]\011/* 1 value pushed */
19 
MDRP[10000]\011/* MoveDirectRelPt */
PUSHW[ ]\011/* 1 value pushed */
1 
SRP0[ ]\011/* SetRefPoint0 */
PUSHW[ ]\011/* 1 value pushed */
21 
MDRP[10000]\011/* MoveDirectRelPt */
PUSHW[ ]\011/* 1 value pushed */
0 
SRP0[ ]\011/* SetRefPoint0 */
PUSHW[ ]\011/* 2 values pushed */
23 1 
MIRP[10100]\011/* MoveIndirectRelPt */
IUP[0]\011/* InterpolateUntPts */
IUP[1]\011/* InterpolateUntPts */";
};
width = 207;
}
);
note = Eth;
unicode = 00D0;
},
{
glyphname = Dcaron;
layers = (
{
layerId = "14B2064F-49AA-4860-BD4E-8ABAFB41335C";
paths = (
{
closed = 1;
nodes = (
"112 0 LINE SMOOTH",
"153.238 0 OFFCURVE",
"186 27.044 OFFCURVE",
"186 84 CURVE SMOOTH",
"186 615 LINE SMOOTH",
"186 671.956 OFFCURVE",
"153.238 699 OFFCURVE",
"112 699 CURVE SMOOTH",
"24 699 LINE",
"24 0 LINE"
);
},
{
closed = 1;
nodes = (
"109 669 LINE SMOOTH",
"129 669 OFFCURVE",
"150 655.333 OFFCURVE",
"150 610 CURVE SMOOTH",
"150 89 LINE SMOOTH",
"150 43.667 OFFCURVE",
"129 30 OFFCURVE",
"109 30 CURVE SMOOTH",
"60 30 LINE",
"60 669 LINE"
);
},
{
closed = 1;
nodes = (
"121 741 LINE",
"176 827 LINE",
"144 827 LINE",
"104 757 LINE",
"65 827 LINE",
"33 827 LINE",
"88 741 LINE"
);
}
);
userData = {
assembly = "PUSHW[ ]\011/* 1 value pushed */
31 
MDAP[1]\011/* MoveDirectAbsPt */
PUSHW[ ]\011/* 1 value pushed */
19 
MDAP[1]\011/* MoveDirectAbsPt */
PUSHW[ ]\011/* 1 value pushed */
31 
SRP0[ ]\011/* SetRefPoint0 */
PUSHW[ ]\011/* 1 value pushed */
0 
MDRP[10000]\011/* MoveDirectRelPt */
PUSHW[ ]\011/* 1 value pushed */
0 
MDAP[1]\011/* MoveDirectAbsPt */
PUSHW[ ]\011/* 1 value pushed */
19 
SRP0[ ]\011/* SetRefPoint0 */
PUSHW[ ]\011/* 2 values pushed */
8 4 
MIRP[10100]\011/* MoveIndirectRelPt */
PUSHW[ ]\011/* 1 value pushed */
0 
SRP0[ ]\011/* SetRefPoint0 */
PUSHW[ ]\011/* 2 values pushed */
15 4 
MIRP[10100]\011/* MoveIndirectRelPt */
PUSHW[ ]\011/* 3 values pushed */
25 0 15 
SRP1[ ]\011/* SetRefPoint1 */
SRP2[ ]\011/* SetRefPoint2 */
IP[ ]\011/* InterpolatePts */
PUSHW[ ]\011/* 1 value pushed */
26 
MDRP[10000]\011/* MoveDirectRelPt */
PUSHW[ ]\011/* 1 value pushed */
26 
MDAP[1]\011/* MoveDirectAbsPt */
PUSHW[ ]\011/* 1 value pushed */
19 
SRP0[ ]\011/* SetRefPoint0 */
PUSHW[ ]\011/* 1 value pushed */
28 
MDRP[10000]\011/* MoveDirectRelPt */
PUSHW[ ]\011/* 1 value pushed */
28 
MDAP[1]\011/* MoveDirectAbsPt */
PUSHW[ ]\011/* 3 values pushed */
29 19 8 
SRP1[ ]\011/* SetRefPoint1 */
SRP2[ ]\011/* SetRefPoint2 */
IP[ ]\011/* InterpolatePts */
PUSHW[ ]\011/* 1 value pushed */
8 
SRP0[ ]\011/* SetRefPoint0 */
PUSHW[ ]\011/* 1 value pushed */
32 
MDRP[11100]\011/* MoveDirectRelPt */
SVTCA[0]\011/* SetFreedomAndProjectionVectorToAxis */
PUSHW[ ]\011/* 1 value pushed */
0 
RCVT[ ]\011/* ReadCVT */
IF[ ]\011/* If */
PUSHW[ ]\011/* 1 value pushed */
1 
MDAP[1]\011/* MoveDirectAbsPt */
ELSE[ ]\011/* Else */
PUSHW[ ]\011/* 2 values pushed */
1 13 
MIAP[0]\011/* MoveIndirectAbsPt */
EIF[ ]\011/* EndIf */
PUSHW[ ]\011/* 1 value pushed */
0 
RCVT[ ]\011/* ReadCVT */
IF[ ]\011/* If */
PUSHW[ ]\011/* 1 value pushed */
0 
MDAP[1]\011/* MoveDirectAbsPt */
ELSE[ ]\011/* Else */
PUSHW[ ]\011/* 2 values pushed */
0 7 
MIAP[0]\011/* MoveIndirectAbsPt */
EIF[ ]\011/* EndIf */
PUSHW[ ]\011/* 1 value pushed */
1 
SRP0[ ]\011/* SetRefPoint0 */
PUSHW[ ]\011/* 2 values pushed */
14 1 
MIRP[10100]\011/* MoveIndirectRelPt */
PUSHW[ ]\011/* 1 value pushed */
0 
SRP0[ ]\011/* SetRefPoint0 */
PUSHW[ ]\011/* 2 values pushed */
15 1 
MIRP[10100]\011/* MoveIndirectRelPt */
PUSHW[ ]\011/* 1 value pushed */
14 
SRP0[ ]\011/* SetRefPoint0 */
PUSHW[ ]\011/* 1 value pushed */
26 
MDRP[11100]\011/* MoveDirectRelPt */
PUSHW[ ]\011/* 1 value pushed */
28 
MDRP[10000]\011/* MoveDirectRelPt */
IUP[0]\011/* InterpolateUntPts */
IUP[1]\011/* InterpolateUntPts */";
};
width = 207;
}
);
note = Dcaron;
unicode = 010E;
},
{
glyphname = Dcroat;
layers = (
{
layerId = "14B2064F-49AA-4860-BD4E-8ABAFB41335C";
paths = (
{
closed = 1;
nodes = (
"143 0 LINE SMOOTH",
"184.238 0 OFFCURVE",
"217 27.044 OFFCURVE",
"217 84 CURVE SMOOTH",
"217 615 LINE SMOOTH",
"217 671.956 OFFCURVE",
"184.238 699 OFFCURVE",
"143 699 CURVE SMOOTH",
"55 699 LINE",
"55 363 LINE",
"24 363 LINE",
"24 337 LINE",
"55 337 LINE",
"55 0 LINE"
);
},
{
closed = 1;
nodes = (
"140 669 LINE SMOOTH",
"160 669 OFFCURVE",
"181 655.333 OFFCURVE",
"181 610 CURVE SMOOTH",
"181 89 LINE SMOOTH",
"181 43.667 OFFCURVE",
"160 30 OFFCURVE",
"140 30 CURVE SMOOTH",
"91 30 LINE",
"91 337 LINE",
"122 337 LINE",
"122 363 LINE",
"91 363 LINE",
"91 669 LINE"
);
}
);
userData = {
assembly = "PUSHW[ ]\011/* 1 value pushed */
32 
MDAP[1]\011/* MoveDirectAbsPt */
PUSHW[ ]\011/* 1 value pushed */
27 
MDAP[1]\011/* MoveDirectAbsPt */
PUSHW[ ]\011/* 1 value pushed */
32 
SRP0[ ]\011/* SetRefPoint0 */
PUSHW[ ]\011/* 1 value pushed */
0 
MDRP[10000]\011/* MoveDirectRelPt */
PUSHW[ ]\011/* 1 value pushed */
0 
MDAP[1]\011/* MoveDirectAbsPt */
PUSHW[ ]\011/* 1 value pushed */
4 
MDRP[10000]\011/* MoveDirectRelPt */
PUSHW[ ]\011/* 1 value pushed */
27 
SRP0[ ]\011/* SetRefPoint0 */
PUSHW[ ]\011/* 2 values pushed */
12 4 
MIRP[10100]\011/* MoveIndirectRelPt */
PUSHW[ ]\011/* 1 value pushed */
0 
SRP0[ ]\011/* SetRefPoint0 */
PUSHW[ ]\011/* 2 values pushed */
23 4 
MIRP[10100]\011/* MoveIndirectRelPt */
PUSHW[ ]\011/* 1 value pushed */
18 
MDRP[10000]\011/* MoveDirectRelPt */
PUSHW[ ]\011/* 1 value pushed */
12 
SRP0[ ]\011/* SetRefPoint0 */
PUSHW[ ]\011/* 1 value pushed */
33 
MDRP[11100]\011/* MoveDirectRelPt */
SVTCA[0]\011/* SetFreedomAndProjectionVectorToAxis */
PUSHW[ ]\011/* 1 value pushed */
0 
RCVT[ ]\011/* ReadCVT */
IF[ ]\011/* If */
PUSHW[ ]\011/* 1 value pushed */
5 
MDAP[1]\011/* MoveDirectAbsPt */
ELSE[ ]\011/* Else */
PUSHW[ ]\011/* 2 values pushed */
5 13 
MIAP[0]\011/* MoveIndirectAbsPt */
EIF[ ]\011/* EndIf */
PUSHW[ ]\011/* 1 value pushed */
0 
RCVT[ ]\011/* ReadCVT */
IF[ ]\011/* If */
PUSHW[ ]\011/* 1 value pushed */
0 
MDAP[1]\011/* MoveDirectAbsPt */
ELSE[ ]\011/* Else */
PUSHW[ ]\011/* 2 values pushed */
0 7 
MIAP[0]\011/* MoveIndirectAbsPt */
EIF[ ]\011/* EndIf */
PUSHW[ ]\011/* 4 values pushed */
4 3 1 4 
CALL[ ]\011/* CallFunction */
PUSHW[ ]\011/* 1 value pushed */
5 
SRP0[ ]\011/* SetRefPoint0 */
PUSHW[ ]\011/* 2 values pushed */
18 1 
MIRP[10100]\011/* MoveIndirectRelPt */
PUSHW[ ]\011/* 1 value pushed */
4 
SRP0[ ]\011/* SetRefPoint0 */
PUSHW[ ]\011/* 1 value pushed */
19 
MDRP[10000]\011/* MoveDirectRelPt */
PUSHW[ ]\011/* 1 value pushed */
1 
SRP0[ ]\011/* SetRefPoint0 */
PUSHW[ ]\011/* 1 value pushed */
21 
MDRP[10000]\011/* MoveDirectRelPt */
PUSHW[ ]\011/* 1 value pushed */
0 
SRP0[ ]\011/* SetRefPoint0 */
PUSHW[ ]\011/* 2 values pushed */
23 1 
MIRP[10100]\011/* MoveIndirectRelPt */
IUP[0]\011/* InterpolateUntPts */
IUP[1]\011/* InterpolateUntPts */";
};
width = 238;
}
);
note = Dcroat;
unicode = 0110;
},
{
glyphname = E;
layers = (
{
layerId = "14B2064F-49AA-4860-BD4E-8ABAFB41335C";
paths = (
{
closed = 1;
nodes = (
"155 669 LINE",
"155 699 LINE",
"24 699 LINE",
"24 0 LINE",
"157 0 LINE",
"157 30 LINE",
"60 30 LINE",
"60 336 LINE",
"132 336 LINE",
"132 363 LINE",
"60 363 LINE",
"60 669 LINE"
);
}
);
userData = {
assembly = "PUSHW[ ]\011/* 4 values pushed */
5 4 8 4 
CALL[ ]\011/* CallFunction */
PUSHW[ ]\011/* 1 value pushed */
5 
SRP0[ ]\011/* SetRefPoint0 */
PUSHW[ ]\011/* 1 value pushed */
0 
MDRP[10000]\011/* MoveDirectRelPt */
PUSHW[ ]\011/* 1 value pushed */
8 
SRP0[ ]\011/* SetRefPoint0 */
PUSHW[ ]\011/* 1 value pushed */
11 
MDRP[11100]\011/* MoveDirectRelPt */
PUSHW[ ]\011/* 1 value pushed */
6 
MDRP[10000]\011/* MoveDirectRelPt */
PUSHW[ ]\011/* 1 value pushed */
6 
MDAP[1]\011/* MoveDirectAbsPt */
SVTCA[0]\011/* SetFreedomAndProjectionVectorToAxis */
PUSHW[ ]\011/* 1 value pushed */
0 
RCVT[ ]\011/* ReadCVT */
IF[ ]\011/* If */
PUSHW[ ]\011/* 1 value pushed */
9 
MDAP[1]\011/* MoveDirectAbsPt */
ELSE[ ]\011/* Else */
PUSHW[ ]\011/* 2 values pushed */
9 13 
MIAP[0]\011/* MoveIndirectAbsPt */
EIF[ ]\011/* EndIf */
PUSHW[ ]\011/* 1 value pushed */
0 
RCVT[ ]\011/* ReadCVT */
IF[ ]\011/* If */
PUSHW[ ]\011/* 1 value pushed */
7 
MDAP[1]\011/* MoveDirectAbsPt */
ELSE[ ]\011/* Else */
PUSHW[ ]\011/* 2 values pushed */
7 7 
MIAP[0]\011/* MoveIndirectAbsPt */
EIF[ ]\011/* EndIf */
PUSHW[ ]\011/* 4 values pushed */
2 3 3 4 
CALL[ ]\011/* CallFunction */
PUSHW[ ]\011/* 1 value pushed */
9 
SRP0[ ]\011/* SetRefPoint0 */
PUSHW[ ]\011/* 2 values pushed */
0 1 
MIRP[10100]\011/* MoveIndirectRelPt */
PUSHW[ ]\011/* 1 value pushed */
7 
SRP0[ ]\011/* SetRefPoint0 */
PUSHW[ ]\011/* 2 values pushed */
5 1 
MIRP[10100]\011/* MoveIndirectRelPt */
IUP[0]\011/* InterpolateUntPts */
IUP[1]\011/* InterpolateUntPts */";
};
width = 169;
}
);
note = E;
unicode = 0045;
},
{
glyphname = Eacute;
layers = (
{
layerId = "14B2064F-49AA-4860-BD4E-8ABAFB41335C";
paths = (
{
closed = 1;
nodes = (
"155 669 LINE",
"155 699 LINE",
"24 699 LINE",
"24 0 LINE",
"157 0 LINE",
"157 30 LINE",
"60 30 LINE",
"60 336 LINE",
"132 336 LINE",
"132 363 LINE",
"60 363 LINE",
"60 669 LINE"
);
},
{
closed = 1;
nodes = (
"101 738 LINE",
"156 824 LINE",
"124 824 LINE",
"78 738 LINE"
);
}
);
userData = {
assembly = "PUSHW[ ]\011/* 4 values pushed */
5 4 8 4 
CALL[ ]\011/* CallFunction */
PUSHW[ ]\011/* 1 value pushed */
5 
SRP0[ ]\011/* SetRefPoint0 */
PUSHW[ ]\011/* 1 value pushed */
0 
MDRP[10000]\011/* MoveDirectRelPt */
PUSHW[ ]\011/* 1 value pushed */
8 
SRP0[ ]\011/* SetRefPoint0 */
PUSHW[ ]\011/* 1 value pushed */
11 
MDRP[11100]\011/* MoveDirectRelPt */
PUSHW[ ]\011/* 1 value pushed */
6 
MDRP[10000]\011/* MoveDirectRelPt */
PUSHW[ ]\011/* 1 value pushed */
6 
MDAP[1]\011/* MoveDirectAbsPt */
PUSHW[ ]\011/* 3 values pushed */
12 8 11 
SRP1[ ]\011/* SetRefPoint1 */
SRP2[ ]\011/* SetRefPoint2 */
IP[ ]\011/* InterpolatePts */
PUSHW[ ]\011/* 3 values pushed */
14 8 6 
SRP1[ ]\011/* SetRefPoint1 */
SRP2[ ]\011/* SetRefPoint2 */
IP[ ]\011/* InterpolatePts */
SVTCA[0]\011/* SetFreedomAndProjectionVectorToAxis */
PUSHW[ ]\011/* 1 value pushed */
13 
MDAP[1]\011/* MoveDirectAbsPt */
PUSHW[ ]\011/* 1 value pushed */
0 
RCVT[ ]\011/* ReadCVT */
IF[ ]\011/* If */
PUSHW[ ]\011/* 1 value pushed */
9 
MDAP[1]\011/* MoveDirectAbsPt */
ELSE[ ]\011/* Else */
PUSHW[ ]\011/* 2 values pushed */
9 13 
MIAP[0]\011/* MoveIndirectAbsPt */
EIF[ ]\011/* EndIf */
PUSHW[ ]\011/* 1 value pushed */
0 
RCVT[ ]\011/* ReadCVT */
IF[ ]\011/* If */
PUSHW[ ]\011/* 1 value pushed */
7 
MDAP[1]\011/* MoveDirectAbsPt */
ELSE[ ]\011/* Else */
PUSHW[ ]\011/* 2 values pushed */
7 7 
MIAP[0]\011/* MoveIndirectAbsPt */
EIF[ ]\011/* EndIf */
PUSHW[ ]\011/* 4 values pushed */
2 3 3 4 
CALL[ ]\011/* CallFunction */
PUSHW[ ]\011/* 1 value pushed */
9 
SRP0[ ]\011/* SetRefPoint0 */
PUSHW[ ]\011/* 2 values pushed */
0 1 
MIRP[10100]\011/* MoveIndirectRelPt */
PUSHW[ ]\011/* 1 value pushed */
7 
SRP0[ ]\011/* SetRefPoint0 */
PUSHW[ ]\011/* 2 values pushed */
5 1 
MIRP[10100]\011/* MoveIndirectRelPt */
PUSHW[ ]\011/* 3 values pushed */
12 7 13 
SRP1[ ]\011/* SetRefPoint1 */
SRP2[ ]\011/* SetRefPoint2 */
IP[ ]\011/* InterpolatePts */
IUP[0]\011/* InterpolateUntPts */
IUP[1]\011/* InterpolateUntPts */";
};
width = 169;
}
);
note = Eacute;
unicode = 00C9;
},
{
glyphname = Ebreve;
layers = (
{
layerId = "14B2064F-49AA-4860-BD4E-8ABAFB41335C";
paths = (
{
closed = 1;
nodes = (
"60 669 LINE",
"60 363 LINE",
"132 363 LINE",
"132 336 LINE",
"60 336 LINE",
"60 30 LINE",
"157 30 LINE",
"157 0 LINE",
"24 0 LINE",
"24 699 LINE",
"155 699 LINE",
"155 669 LINE"
);
},
{
closed = 1;
nodes = (
"34 813 LINE",
"34 781 OFFCURVE",
"60.667 756 OFFCURVE",
"90 756 CURVE SMOOTH",
"123.333 756 OFFCURVE",
"149 782.333 OFFCURVE",
"149 813 CURVE",
"127 813 LINE",
"127 794.333 OFFCURVE",
"109.667 777 OFFCURVE",
"91 777 CURVE SMOOTH",
"72.333 777 OFFCURVE",
"55 794.333 OFFCURVE",
"55 813 CURVE"
);
}
);
userData = {
assembly = "PUSHW[ ]\011/* 4 values pushed */
11 4 2 4 
CALL[ ]\011/* CallFunction */
PUSHW[ ]\011/* 1 value pushed */
2 
SRP0[ ]\011/* SetRefPoint0 */
PUSHW[ ]\011/* 1 value pushed */
5 
MDRP[11100]\011/* MoveDirectRelPt */
PUSHW[ ]\011/* 1 value pushed */
0 
MDRP[10000]\011/* MoveDirectRelPt */
PUSHW[ ]\011/* 1 value pushed */
0 
MDAP[1]\011/* MoveDirectAbsPt */
PUSHW[ ]\011/* 1 value pushed */
11 
SRP0[ ]\011/* SetRefPoint0 */
PUSHW[ ]\011/* 1 value pushed */
6 
MDRP[10000]\011/* MoveDirectRelPt */
PUSHW[ ]\011/* 1 value pushed */
11 
SRP0[ ]\011/* SetRefPoint0 */
PUSHW[ ]\011/* 1 value pushed */
12 
MDRP[10000]\011/* MoveDirectRelPt */
PUSHW[ ]\011/* 1 value pushed */
12 
MDAP[1]\011/* MoveDirectAbsPt */
SVTCA[0]\011/* SetFreedomAndProjectionVectorToAxis */
PUSHW[ ]\011/* 1 value pushed */
12 
MDAP[1]\011/* MoveDirectAbsPt */
PUSHW[ ]\011/* 1 value pushed */
18 
MDAP[1]\011/* MoveDirectAbsPt */
PUSHW[ ]\011/* 1 value pushed */
22 
MDAP[1]\011/* MoveDirectAbsPt */
PUSHW[ ]\011/* 1 value pushed */
0 
RCVT[ ]\011/* ReadCVT */
IF[ ]\011/* If */
PUSHW[ ]\011/* 1 value pushed */
1 
MDAP[1]\011/* MoveDirectAbsPt */
ELSE[ ]\011/* Else */
PUSHW[ ]\011/* 2 values pushed */
1 13 
MIAP[0]\011/* MoveIndirectAbsPt */
EIF[ ]\011/* EndIf */
PUSHW[ ]\011/* 1 value pushed */
0 
RCVT[ ]\011/* ReadCVT */
IF[ ]\011/* If */
PUSHW[ ]\011/* 1 value pushed */
3 
MDAP[1]\011/* MoveDirectAbsPt */
ELSE[ ]\011/* Else */
PUSHW[ ]\011/* 2 values pushed */
3 7 
MIAP[0]\011/* MoveIndirectAbsPt */
EIF[ ]\011/* EndIf */
PUSHW[ ]\011/* 4 values pushed */
10 3 7 4 
CALL[ ]\011/* CallFunction */
PUSHW[ ]\011/* 1 value pushed */
1 
SRP0[ ]\011/* SetRefPoint0 */
PUSHW[ ]\011/* 2 values pushed */
0 1 
MIRP[10100]\011/* MoveIndirectRelPt */
PUSHW[ ]\011/* 1 value pushed */
3 
SRP0[ ]\011/* SetRefPoint0 */
PUSHW[ ]\011/* 2 values pushed */
5 1 
MIRP[10100]\011/* MoveIndirectRelPt */
IUP[0]\011/* InterpolateUntPts */
IUP[1]\011/* InterpolateUntPts */";
};
width = 169;
}
);
note = Ebreve;
unicode = 0114;
},
{
glyphname = Ecaron;
layers = (
{
layerId = "14B2064F-49AA-4860-BD4E-8ABAFB41335C";
paths = (
{
closed = 1;
nodes = (
"60 669 LINE",
"60 363 LINE",
"132 363 LINE",
"132 336 LINE",
"60 336 LINE",
"60 30 LINE",
"157 30 LINE",
"157 0 LINE",
"24 0 LINE",
"24 699 LINE",
"155 699 LINE",
"155 669 LINE"
);
},
{
closed = 1;
nodes = (
"106 741 LINE",
"161 827 LINE",
"129 827 LINE",
"90 758 LINE",
"51 827 LINE",
"18 827 LINE",
"73 741 LINE"
);
}
);
userData = {
assembly = "PUSHW[ ]\011/* 4 values pushed */
11 4 2 4 
CALL[ ]\011/* CallFunction */
PUSHW[ ]\011/* 1 value pushed */
2 
SRP0[ ]\011/* SetRefPoint0 */
PUSHW[ ]\011/* 1 value pushed */
5 
MDRP[11100]\011/* MoveDirectRelPt */
PUSHW[ ]\011/* 1 value pushed */
0 
MDRP[10000]\011/* MoveDirectRelPt */
PUSHW[ ]\011/* 1 value pushed */
0 
MDAP[1]\011/* MoveDirectAbsPt */
PUSHW[ ]\011/* 1 value pushed */
11 
SRP0[ ]\011/* SetRefPoint0 */
PUSHW[ ]\011/* 1 value pushed */
6 
MDRP[10000]\011/* MoveDirectRelPt */
PUSHW[ ]\011/* 3 values pushed */
15 2 5 
SRP1[ ]\011/* SetRefPoint1 */
SRP2[ ]\011/* SetRefPoint2 */
IP[ ]\011/* InterpolatePts */
SVTCA[0]\011/* SetFreedomAndProjectionVectorToAxis */
PUSHW[ ]\011/* 1 value pushed */
0 
RCVT[ ]\011/* ReadCVT */
IF[ ]\011/* If */
PUSHW[ ]\011/* 1 value pushed */
1 
MDAP[1]\011/* MoveDirectAbsPt */
ELSE[ ]\011/* Else */
PUSHW[ ]\011/* 2 values pushed */
1 13 
MIAP[0]\011/* MoveIndirectAbsPt */
EIF[ ]\011/* EndIf */
PUSHW[ ]\011/* 1 value pushed */
0 
RCVT[ ]\011/* ReadCVT */
IF[ ]\011/* If */
PUSHW[ ]\011/* 1 value pushed */
3 
MDAP[1]\011/* MoveDirectAbsPt */
ELSE[ ]\011/* Else */
PUSHW[ ]\011/* 2 values pushed */
3 7 
MIAP[0]\011/* MoveIndirectAbsPt */
EIF[ ]\011/* EndIf */
PUSHW[ ]\011/* 4 values pushed */
10 3 7 4 
CALL[ ]\011/* CallFunction */
PUSHW[ ]\011/* 1 value pushed */
1 
SRP0[ ]\011/* SetRefPoint0 */
PUSHW[ ]\011/* 2 values pushed */
0 1 
MIRP[10100]\011/* MoveIndirectRelPt */
PUSHW[ ]\011/* 1 value pushed */
3 
SRP0[ ]\011/* SetRefPoint0 */
PUSHW[ ]\011/* 2 values pushed */
5 1 
MIRP[10100]\011/* MoveIndirectRelPt */
PUSHW[ ]\011/* 1 value pushed */
1 
SRP0[ ]\011/* SetRefPoint0 */
PUSHW[ ]\011/* 1 value pushed */
17 
MDRP[11100]\011/* MoveDirectRelPt */
PUSHW[ ]\011/* 1 value pushed */
13 
MDRP[10000]\011/* MoveDirectRelPt */
PUSHW[ ]\011/* 3 values pushed */
15 1 17 
SRP1[ ]\011/* SetRefPoint1 */
SRP2[ ]\011/* SetRefPoint2 */
IP[ ]\011/* InterpolatePts */
IUP[0]\011/* InterpolateUntPts */
IUP[1]\011/* InterpolateUntPts */";
};
width = 169;
}
);
note = Ecaron;
unicode = 011A;
},
{
glyphname = Ecircumflex;
layers = (
{
layerId = "14B2064F-49AA-4860-BD4E-8ABAFB41335C";
paths = (
{
closed = 1;
nodes = (
"155 669 LINE",
"155 699 LINE",
"24 699 LINE",
"24 0 LINE",
"157 0 LINE",
"157 30 LINE",
"60 30 LINE",
"60 336 LINE",
"132 336 LINE",
"132 363 LINE",
"60 363 LINE",
"60 669 LINE"
);
},
{
closed = 1;
nodes = (
"74 824 LINE",
"19 738 LINE",
"52 738 LINE",
"91 806 LINE",
"130 738 LINE",
"162 738 LINE",
"107 824 LINE"
);
}
);
userData = {
assembly = "PUSHW[ ]\011/* 4 values pushed */
5 4 8 4 
CALL[ ]\011/* CallFunction */
PUSHW[ ]\011/* 1 value pushed */
5 
SRP0[ ]\011/* SetRefPoint0 */
PUSHW[ ]\011/* 1 value pushed */
0 
MDRP[10000]\011/* MoveDirectRelPt */
PUSHW[ ]\011/* 1 value pushed */
8 
SRP0[ ]\011/* SetRefPoint0 */
PUSHW[ ]\011/* 1 value pushed */
11 
MDRP[11100]\011/* MoveDirectRelPt */
PUSHW[ ]\011/* 1 value pushed */
6 
MDRP[10000]\011/* MoveDirectRelPt */
PUSHW[ ]\011/* 1 value pushed */
6 
MDAP[1]\011/* MoveDirectAbsPt */
PUSHW[ ]\011/* 3 values pushed */
15 8 11 
SRP1[ ]\011/* SetRefPoint1 */
SRP2[ ]\011/* SetRefPoint2 */
IP[ ]\011/* InterpolatePts */
SVTCA[0]\011/* SetFreedomAndProjectionVectorToAxis */
PUSHW[ ]\011/* 1 value pushed */
12 
MDAP[1]\011/* MoveDirectAbsPt */
PUSHW[ ]\011/* 1 value pushed */
0 
RCVT[ ]\011/* ReadCVT */
IF[ ]\011/* If */
PUSHW[ ]\011/* 1 value pushed */
9 
MDAP[1]\011/* MoveDirectAbsPt */
ELSE[ ]\011/* Else */
PUSHW[ ]\011/* 2 values pushed */
9 13 
MIAP[0]\011/* MoveIndirectAbsPt */
EIF[ ]\011/* EndIf */
PUSHW[ ]\011/* 1 value pushed */
0 
RCVT[ ]\011/* ReadCVT */
IF[ ]\011/* If */
PUSHW[ ]\011/* 1 value pushed */
7 
MDAP[1]\011/* MoveDirectAbsPt */
ELSE[ ]\011/* Else */
PUSHW[ ]\011/* 2 values pushed */
7 7 
MIAP[0]\011/* MoveIndirectAbsPt */
EIF[ ]\011/* EndIf */
PUSHW[ ]\011/* 4 values pushed */
2 3 3 4 
CALL[ ]\011/* CallFunction */
PUSHW[ ]\011/* 1 value pushed */
9 
SRP0[ ]\011/* SetRefPoint0 */
PUSHW[ ]\011/* 2 values pushed */
0 1 
MIRP[10100]\011/* MoveIndirectRelPt */
PUSHW[ ]\011/* 1 value pushed */
7 
SRP0[ ]\011/* SetRefPoint0 */
PUSHW[ ]\011/* 2 values pushed */
5 1 
MIRP[10100]\011/* MoveIndirectRelPt */
PUSHW[ ]\011/* 1 value pushed */
9 
SRP0[ ]\011/* SetRefPoint0 */
PUSHW[ ]\011/* 2 values pushed */
17 1 
MIRP[10100]\011/* MoveIndirectRelPt */
PUSHW[ ]\011/* 1 value pushed */
13 
MDRP[10000]\011/* MoveDirectRelPt */
PUSHW[ ]\011/* 3 values pushed */
15 7 12 
SRP1[ ]\011/* SetRefPoint1 */
SRP2[ ]\011/* SetRefPoint2 */
IP[ ]\011/* InterpolatePts */
IUP[0]\011/* InterpolateUntPts */
IUP[1]\011/* InterpolateUntPts */";
};
width = 169;
}
);
note = Ecircumflex;
unicode = 00CA;
},
{
glyphname = Edieresis;
layers = (
{
layerId = "14B2064F-49AA-4860-BD4E-8ABAFB41335C";
paths = (
{
closed = 1;
nodes = (
"60 669 LINE",
"60 363 LINE",
"132 363 LINE",
"132 336 LINE",
"60 336 LINE",
"60 30 LINE",
"157 30 LINE",
"157 0 LINE",
"24 0 LINE",
"24 699 LINE",
"155 699 LINE",
"155 669 LINE"
);
},
{
closed = 1;
nodes = (
"74 816 LINE",
"50 816 LINE",
"50 753 LINE",
"74 753 LINE"
);
},
{
closed = 1;
nodes = (
"131 816 LINE",
"106 816 LINE",
"106 753 LINE",
"131 753 LINE"
);
}
);
userData = {
assembly = "PUSHW[ ]\011/* 4 values pushed */
11 4 2 4 
CALL[ ]\011/* CallFunction */
PUSHW[ ]\011/* 4 values pushed */
17 6 12 4 
CALL[ ]\011/* CallFunction */
PUSHW[ ]\011/* 1 value pushed */
2 
SRP0[ ]\011/* SetRefPoint0 */
PUSHW[ ]\011/* 1 value pushed */
5 
MDRP[11100]\011/* MoveDirectRelPt */
PUSHW[ ]\011/* 1 value pushed */
0 
MDRP[10000]\011/* MoveDirectRelPt */
PUSHW[ ]\011/* 1 value pushed */
0 
MDAP[1]\011/* MoveDirectAbsPt */
PUSHW[ ]\011/* 1 value pushed */
11 
SRP0[ ]\011/* SetRefPoint0 */
PUSHW[ ]\011/* 1 value pushed */
6 
MDRP[10000]\011/* MoveDirectRelPt */
SVTCA[0]\011/* SetFreedomAndProjectionVectorToAxis */
PUSHW[ ]\011/* 1 value pushed */
14 
MDAP[1]\011/* MoveDirectAbsPt */
PUSHW[ ]\011/* 1 value pushed */
18 
MDAP[1]\011/* MoveDirectAbsPt */
PUSHW[ ]\011/* 1 value pushed */
0 
RCVT[ ]\011/* ReadCVT */
IF[ ]\011/* If */
PUSHW[ ]\011/* 1 value pushed */
1 
MDAP[1]\011/* MoveDirectAbsPt */
ELSE[ ]\011/* Else */
PUSHW[ ]\011/* 2 values pushed */
1 13 
MIAP[0]\011/* MoveIndirectAbsPt */
EIF[ ]\011/* EndIf */
PUSHW[ ]\011/* 1 value pushed */
0 
RCVT[ ]\011/* ReadCVT */
IF[ ]\011/* If */
PUSHW[ ]\011/* 1 value pushed */
3 
MDAP[1]\011/* MoveDirectAbsPt */
ELSE[ ]\011/* Else */
PUSHW[ ]\011/* 2 values pushed */
3 7 
MIAP[0]\011/* MoveIndirectAbsPt */
EIF[ ]\011/* EndIf */
PUSHW[ ]\011/* 4 values pushed */
10 3 7 4 
CALL[ ]\011/* CallFunction */
PUSHW[ ]\011/* 1 value pushed */
1 
SRP0[ ]\011/* SetRefPoint0 */
PUSHW[ ]\011/* 2 values pushed */
0 1 
MIRP[10100]\011/* MoveIndirectRelPt */
PUSHW[ ]\011/* 1 value pushed */
3 
SRP0[ ]\011/* SetRefPoint0 */
PUSHW[ ]\011/* 2 values pushed */
5 1 
MIRP[10100]\011/* MoveIndirectRelPt */
IUP[0]\011/* InterpolateUntPts */
IUP[1]\011/* InterpolateUntPts */";
};
width = 169;
}
);
note = Edieresis;
unicode = 00CB;
},
{
glyphname = Edotaccent;
layers = (
{
layerId = "14B2064F-49AA-4860-BD4E-8ABAFB41335C";
paths = (
{
closed = 1;
nodes = (
"60 669 LINE",
"60 363 LINE",
"132 363 LINE",
"132 336 LINE",
"60 336 LINE",
"60 30 LINE",
"157 30 LINE",
"157 0 LINE",
"24 0 LINE",
"24 699 LINE",
"155 699 LINE",
"155 669 LINE"
);
},
{
closed = 1;
nodes = (
"102 816 LINE",
"78 816 LINE",
"78 753 LINE",
"102 753 LINE"
);
}
);
userData = {
assembly = "PUSHW[ ]\011/* 4 values pushed */
11 4 2 4 
CALL[ ]\011/* CallFunction */
PUSHW[ ]\011/* 1 value pushed */
2 
SRP0[ ]\011/* SetRefPoint0 */
PUSHW[ ]\011/* 1 value pushed */
5 
MDRP[11100]\011/* MoveDirectRelPt */
PUSHW[ ]\011/* 1 value pushed */
0 
MDRP[10000]\011/* MoveDirectRelPt */
PUSHW[ ]\011/* 1 value pushed */
0 
MDAP[1]\011/* MoveDirectAbsPt */
PUSHW[ ]\011/* 1 value pushed */
11 
SRP0[ ]\011/* SetRefPoint0 */
PUSHW[ ]\011/* 1 value pushed */
6 
MDRP[10000]\011/* MoveDirectRelPt */
SVTCA[0]\011/* SetFreedomAndProjectionVectorToAxis */
PUSHW[ ]\011/* 1 value pushed */
14 
MDAP[1]\011/* MoveDirectAbsPt */
PUSHW[ ]\011/* 1 value pushed */
0 
RCVT[ ]\011/* ReadCVT */
IF[ ]\011/* If */
PUSHW[ ]\011/* 1 value pushed */
1 
MDAP[1]\011/* MoveDirectAbsPt */
ELSE[ ]\011/* Else */
PUSHW[ ]\011/* 2 values pushed */
1 13 
MIAP[0]\011/* MoveIndirectAbsPt */
EIF[ ]\011/* EndIf */
PUSHW[ ]\011/* 1 value pushed */
0 
RCVT[ ]\011/* ReadCVT */
IF[ ]\011/* If */
PUSHW[ ]\011/* 1 value pushed */
3 
MDAP[1]\011/* MoveDirectAbsPt */
ELSE[ ]\011/* Else */
PUSHW[ ]\011/* 2 values pushed */
3 7 
MIAP[0]\011/* MoveIndirectAbsPt */
EIF[ ]\011/* EndIf */
PUSHW[ ]\011/* 4 values pushed */
10 3 7 4 
CALL[ ]\011/* CallFunction */
PUSHW[ ]\011/* 1 value pushed */
1 
SRP0[ ]\011/* SetRefPoint0 */
PUSHW[ ]\011/* 2 values pushed */
0 1 
MIRP[10100]\011/* MoveIndirectRelPt */
PUSHW[ ]\011/* 1 value pushed */
3 
SRP0[ ]\011/* SetRefPoint0 */
PUSHW[ ]\011/* 2 values pushed */
5 1 
MIRP[10100]\011/* MoveIndirectRelPt */
IUP[0]\011/* InterpolateUntPts */
IUP[1]\011/* InterpolateUntPts */";
};
width = 169;
}
);
note = Edotaccent;
unicode = 0116;
},
{
glyphname = Egrave;
layers = (
{
layerId = "14B2064F-49AA-4860-BD4E-8ABAFB41335C";
paths = (
{
closed = 1;
nodes = (
"60 669 LINE",
"60 363 LINE",
"132 363 LINE",
"132 336 LINE",
"60 336 LINE",
"60 30 LINE",
"157 30 LINE",
"157 0 LINE",
"24 0 LINE",
"24 699 LINE",
"155 699 LINE",
"155 669 LINE"
);
},
{
closed = 1;
nodes = (
"102 738 LINE",
"56 824 LINE",
"24 824 LINE",
"79 738 LINE"
);
}
);
userData = {
assembly = "PUSHW[ ]\011/* 4 values pushed */
11 4 2 4 
CALL[ ]\011/* CallFunction */
PUSHW[ ]\011/* 1 value pushed */
2 
SRP0[ ]\011/* SetRefPoint0 */
PUSHW[ ]\011/* 1 value pushed */
5 
MDRP[11100]\011/* MoveDirectRelPt */
PUSHW[ ]\011/* 1 value pushed */
0 
MDRP[10000]\011/* MoveDirectRelPt */
PUSHW[ ]\011/* 1 value pushed */
0 
MDAP[1]\011/* MoveDirectAbsPt */
PUSHW[ ]\011/* 1 value pushed */
11 
SRP0[ ]\011/* SetRefPoint0 */
PUSHW[ ]\011/* 1 value pushed */
6 
MDRP[10000]\011/* MoveDirectRelPt */
PUSHW[ ]\011/* 3 values pushed */
15 2 5 
SRP1[ ]\011/* SetRefPoint1 */
SRP2[ ]\011/* SetRefPoint2 */
IP[ ]\011/* InterpolatePts */
SVTCA[0]\011/* SetFreedomAndProjectionVectorToAxis */
PUSHW[ ]\011/* 1 value pushed */
13 
MDAP[1]\011/* MoveDirectAbsPt */
PUSHW[ ]\011/* 1 value pushed */
0 
RCVT[ ]\011/* ReadCVT */
IF[ ]\011/* If */
PUSHW[ ]\011/* 1 value pushed */
1 
MDAP[1]\011/* MoveDirectAbsPt */
ELSE[ ]\011/* Else */
PUSHW[ ]\011/* 2 values pushed */
1 13 
MIAP[0]\011/* MoveIndirectAbsPt */
EIF[ ]\011/* EndIf */
PUSHW[ ]\011/* 1 value pushed */
0 
RCVT[ ]\011/* ReadCVT */
IF[ ]\011/* If */
PUSHW[ ]\011/* 1 value pushed */
3 
MDAP[1]\011/* MoveDirectAbsPt */
ELSE[ ]\011/* Else */
PUSHW[ ]\011/* 2 values pushed */
3 7 
MIAP[0]\011/* MoveIndirectAbsPt */
EIF[ ]\011/* EndIf */
PUSHW[ ]\011/* 4 values pushed */
10 3 7 4 
CALL[ ]\011/* CallFunction */
PUSHW[ ]\011/* 1 value pushed */
1 
SRP0[ ]\011/* SetRefPoint0 */
PUSHW[ ]\011/* 2 values pushed */
0 1 
MIRP[10100]\011/* MoveIndirectRelPt */
PUSHW[ ]\011/* 1 value pushed */
3 
SRP0[ ]\011/* SetRefPoint0 */
PUSHW[ ]\011/* 2 values pushed */
5 1 
MIRP[10100]\011/* MoveIndirectRelPt */
PUSHW[ ]\011/* 3 values pushed */
15 3 13 
SRP1[ ]\011/* SetRefPoint1 */
SRP2[ ]\011/* SetRefPoint2 */
IP[ ]\011/* InterpolatePts */
IUP[0]\011/* InterpolateUntPts */
IUP[1]\011/* InterpolateUntPts */";
};
width = 169;
}
);
note = Egrave;
unicode = 00C8;
},
{
glyphname = Emacron;
layers = (
{
layerId = "14B2064F-49AA-4860-BD4E-8ABAFB41335C";
paths = (
{
closed = 1;
nodes = (
"155 669 LINE",
"155 699 LINE",
"24 699 LINE",
"24 0 LINE",
"157 0 LINE",
"157 30 LINE",
"60 30 LINE",
"60 336 LINE",
"132 336 LINE",
"132 363 LINE",
"60 363 LINE",
"60 669 LINE"
);
},
{
closed = 1;
nodes = (
"146 797 LINE",
"32 797 LINE",
"32 772 LINE",
"146 772 LINE"
);
}
);
userData = {
assembly = "PUSHW[ ]\011/* 4 values pushed */
5 4 8 4 
CALL[ ]\011/* CallFunction */
PUSHW[ ]\011/* 1 value pushed */
5 
SRP0[ ]\011/* SetRefPoint0 */
PUSHW[ ]\011/* 1 value pushed */
0 
MDRP[10000]\011/* MoveDirectRelPt */
PUSHW[ ]\011/* 1 value pushed */
8 
SRP0[ ]\011/* SetRefPoint0 */
PUSHW[ ]\011/* 1 value pushed */
11 
MDRP[11100]\011/* MoveDirectRelPt */
PUSHW[ ]\011/* 1 value pushed */
6 
MDRP[10000]\011/* MoveDirectRelPt */
PUSHW[ ]\011/* 1 value pushed */
6 
MDAP[1]\011/* MoveDirectAbsPt */
SVTCA[0]\011/* SetFreedomAndProjectionVectorToAxis */
PUSHW[ ]\011/* 1 value pushed */
0 
RCVT[ ]\011/* ReadCVT */
IF[ ]\011/* If */
PUSHW[ ]\011/* 1 value pushed */
9 
MDAP[1]\011/* MoveDirectAbsPt */
ELSE[ ]\011/* Else */
PUSHW[ ]\011/* 2 values pushed */
9 13 
MIAP[0]\011/* MoveIndirectAbsPt */
EIF[ ]\011/* EndIf */
PUSHW[ ]\011/* 1 value pushed */
0 
RCVT[ ]\011/* ReadCVT */
IF[ ]\011/* If */
PUSHW[ ]\011/* 1 value pushed */
7 
MDAP[1]\011/* MoveDirectAbsPt */
ELSE[ ]\011/* Else */
PUSHW[ ]\011/* 2 values pushed */
7 7 
MIAP[0]\011/* MoveIndirectAbsPt */
EIF[ ]\011/* EndIf */
PUSHW[ ]\011/* 4 values pushed */
15 3 12 4 
CALL[ ]\011/* CallFunction */
PUSHW[ ]\011/* 4 values pushed */
2 3 3 4 
CALL[ ]\011/* CallFunction */
PUSHW[ ]\011/* 1 value pushed */
9 
SRP0[ ]\011/* SetRefPoint0 */
PUSHW[ ]\011/* 2 values pushed */
0 1 
MIRP[10100]\011/* MoveIndirectRelPt */
PUSHW[ ]\011/* 1 value pushed */
7 
SRP0[ ]\011/* SetRefPoint0 */
PUSHW[ ]\011/* 2 values pushed */
5 1 
MIRP[10100]\011/* MoveIndirectRelPt */
IUP[0]\011/* InterpolateUntPts */
IUP[1]\011/* InterpolateUntPts */";
};
width = 169;
}
);
note = Emacron;
unicode = 0112;
},
{
glyphname = Eogonek;
layers = (
{
layerId = "14B2064F-49AA-4860-BD4E-8ABAFB41335C";
paths = (
{
closed = 1;
nodes = (
"127 -53 LINE",
"110.174 -81.043 OFFCURVE",
"72 -76.154 OFFCURVE",
"72 -45 CURVE SMOOTH",
"72 -29 OFFCURVE",
"85.333 -9.333 OFFCURVE",
"108 0 CURVE",
"157 0 LINE",
"157 30 LINE",
"60 30 LINE",
"60 336 LINE",
"132 336 LINE",
"132 363 LINE",
"60 363 LINE",
"60 669 LINE",
"155 669 LINE",
"155 699 LINE",
"24 699 LINE",
"24 0 LINE",
"80 0 LINE",
"60.667 -14 OFFCURVE",
"51 -30.333 OFFCURVE",
"51 -49 CURVE SMOOTH",
"51 -97.676 OFFCURVE",
"120.082 -104.242 OFFCURVE",
"139 -61 CURVE"
);
}
);
userData = {
assembly = "PUSHW[ ]\011/* 4 values pushed */
17 4 8 4 
CALL[ ]\011/* CallFunction */
PUSHW[ ]\011/* 3 values pushed */
5 8 17 
SRP1[ ]\011/* SetRefPoint1 */
SRP2[ ]\011/* SetRefPoint2 */
IP[ ]\011/* InterpolatePts */
PUSHW[ ]\011/* 1 value pushed */
5 
MDAP[1]\011/* MoveDirectAbsPt */
PUSHW[ ]\011/* 1 value pushed */
8 
SRP0[ ]\011/* SetRefPoint0 */
PUSHW[ ]\011/* 1 value pushed */
19 
MDRP[11100]\011/* MoveDirectRelPt */
PUSHW[ ]\011/* 1 value pushed */
10 
MDRP[10000]\011/* MoveDirectRelPt */
PUSHW[ ]\011/* 1 value pushed */
10 
MDAP[1]\011/* MoveDirectAbsPt */
PUSHW[ ]\011/* 1 value pushed */
17 
SRP0[ ]\011/* SetRefPoint0 */
PUSHW[ ]\011/* 1 value pushed */
12 
MDRP[10000]\011/* MoveDirectRelPt */
PUSHW[ ]\011/* 1 value pushed */
5 
SRP0[ ]\011/* SetRefPoint0 */
PUSHW[ ]\011/* 2 values pushed */
23 5 
MIRP[10100]\011/* MoveIndirectRelPt */
SVTCA[0]\011/* SetFreedomAndProjectionVectorToAxis */
PUSHW[ ]\011/* 1 value pushed */
0 
RCVT[ ]\011/* ReadCVT */
IF[ ]\011/* If */
PUSHW[ ]\011/* 1 value pushed */
9 
MDAP[1]\011/* MoveDirectAbsPt */
ELSE[ ]\011/* Else */
PUSHW[ ]\011/* 2 values pushed */
9 13 
MIAP[0]\011/* MoveIndirectAbsPt */
EIF[ ]\011/* EndIf */
PUSHW[ ]\011/* 1 value pushed */
0 
RCVT[ ]\011/* ReadCVT */
IF[ ]\011/* If */
PUSHW[ ]\011/* 1 value pushed */
7 
MDAP[1]\011/* MoveDirectAbsPt */
ELSE[ ]\011/* Else */
PUSHW[ ]\011/* 2 values pushed */
7 7 
MIAP[0]\011/* MoveIndirectAbsPt */
EIF[ ]\011/* EndIf */
PUSHW[ ]\011/* 1 value pushed */
0 
RCVT[ ]\011/* ReadCVT */
IF[ ]\011/* If */
PUSHW[ ]\011/* 1 value pushed */
19 
MDAP[1]\011/* MoveDirectAbsPt */
ELSE[ ]\011/* Else */
PUSHW[ ]\011/* 2 values pushed */
19 7 
MIAP[0]\011/* MoveIndirectAbsPt */
EIF[ ]\011/* EndIf */
PUSHW[ ]\011/* 4 values pushed */
14 3 15 4 
CALL[ ]\011/* CallFunction */
PUSHW[ ]\011/* 1 value pushed */
9 
SRP0[ ]\011/* SetRefPoint0 */
PUSHW[ ]\011/* 2 values pushed */
11 1 
MIRP[10100]\011/* MoveIndirectRelPt */
PUSHW[ ]\011/* 1 value pushed */
7 
SRP0[ ]\011/* SetRefPoint0 */
PUSHW[ ]\011/* 2 values pushed */
17 1 
MIRP[10100]\011/* MoveIndirectRelPt */
PUSHW[ ]\011/* 1 value pushed */
18 
MDRP[10000]\011/* MoveDirectRelPt */
IUP[0]\011/* InterpolateUntPts */
IUP[1]\011/* InterpolateUntPts */";
};
width = 169;
}
);
note = Eogonek;
unicode = 0118;
},
{
glyphname = F;
layers = (
{
layerId = "14B2064F-49AA-4860-BD4E-8ABAFB41335C";
paths = (
{
closed = 1;
nodes = (
"155 669 LINE",
"155 699 LINE",
"24 699 LINE",
"24 0 LINE",
"60 0 LINE",
"60 336 LINE",
"132 336 LINE",
"132 363 LINE",
"60 363 LINE",
"60 669 LINE"
);
}
);
userData = {
assembly = "PUSHW[ ]\011/* 4 values pushed */
5 4 6 4 
CALL[ ]\011/* CallFunction */
PUSHW[ ]\011/* 1 value pushed */
5 
SRP0[ ]\011/* SetRefPoint0 */
PUSHW[ ]\011/* 1 value pushed */
0 
MDRP[10000]\011/* MoveDirectRelPt */
SVTCA[0]\011/* SetFreedomAndProjectionVectorToAxis */
PUSHW[ ]\011/* 1 value pushed */
0 
RCVT[ ]\011/* ReadCVT */
IF[ ]\011/* If */
PUSHW[ ]\011/* 1 value pushed */
7 
MDAP[1]\011/* MoveDirectAbsPt */
ELSE[ ]\011/* Else */
PUSHW[ ]\011/* 2 values pushed */
7 13 
MIAP[0]\011/* MoveIndirectAbsPt */
EIF[ ]\011/* EndIf */
PUSHW[ ]\011/* 1 value pushed */
0 
RCVT[ ]\011/* ReadCVT */
IF[ ]\011/* If */
PUSHW[ ]\011/* 1 value pushed */
5 
MDAP[1]\011/* MoveDirectAbsPt */
ELSE[ ]\011/* Else */
PUSHW[ ]\011/* 2 values pushed */
5 7 
MIAP[0]\011/* MoveIndirectAbsPt */
EIF[ ]\011/* EndIf */
PUSHW[ ]\011/* 4 values pushed */
2 3 3 4 
CALL[ ]\011/* CallFunction */
PUSHW[ ]\011/* 1 value pushed */
7 
SRP0[ ]\011/* SetRefPoint0 */
PUSHW[ ]\011/* 2 values pushed */
0 1 
MIRP[10100]\011/* MoveIndirectRelPt */
IUP[0]\011/* InterpolateUntPts */
IUP[1]\011/* InterpolateUntPts */";
};
width = 167;
}
);
note = F;
unicode = 0046;
},
{
glyphname = G;
layers = (
{
layerId = "14B2064F-49AA-4860-BD4E-8ABAFB41335C";
paths = (
{
closed = 1;
nodes = (
"104 -6 LINE SMOOTH",
"121.333 -6 OFFCURVE",
"142.667 5 OFFCURVE",
"160 25 CURVE",
"165 0 LINE",
"183 0 LINE",
"183 283 LINE",
"105 283 LINE",
"105 253 LINE",
"148 253 LINE",
"148 87 LINE SMOOTH",
"148 41.667 OFFCURVE",
"127.333 24 OFFCURVE",
"106 24 CURVE SMOOTH",
"98 24 LINE SMOOTH",
"78 24 OFFCURVE",
"57 41.667 OFFCURVE",
"57 87 CURVE SMOOTH",
"57 612 LINE SMOOTH",
"57 657.333 OFFCURVE",
"78 675 OFFCURVE",
"98 675 CURVE SMOOTH",
"106 675 LINE SMOOTH",
"127.333 675 OFFCURVE",
"148 657.333 OFFCURVE",
"148 612 CURVE SMOOTH",
"148 417 LINE",
"183 417 LINE",
"183 617 LINE SMOOTH",
"183 679.667 OFFCURVE",
"145 705 OFFCURVE",
"109 705 CURVE SMOOTH",
"95 705 LINE SMOOTH",
"54.357 705 OFFCURVE",
"21 674.421 OFFCURVE",
"21 617 CURVE SMOOTH",
"21 82 LINE SMOOTH",
"21 24.579 OFFCURVE",
"54.357 -6 OFFCURVE",
"95 -6 CURVE SMOOTH"
);
}
);
userData = {
assembly = "PUSHW[ ]\011/* 1 value pushed */
44 
MDAP[1]\011/* MoveDirectAbsPt */
PUSHW[ ]\011/* 1 value pushed */
17 
MDAP[1]\011/* MoveDirectAbsPt */
PUSHW[ ]\011/* 1 value pushed */
44 
SRP0[ ]\011/* SetRefPoint0 */
PUSHW[ ]\011/* 1 value pushed */
5 
MDRP[10000]\011/* MoveDirectRelPt */
PUSHW[ ]\011/* 1 value pushed */
5 
MDAP[1]\011/* MoveDirectAbsPt */
PUSHW[ ]\011/* 1 value pushed */
17 
SRP0[ ]\011/* SetRefPoint0 */
PUSHW[ ]\011/* 2 values pushed */
16 4 
MIRP[10100]\011/* MoveIndirectRelPt */
PUSHW[ ]\011/* 1 value pushed */
5 
SRP0[ ]\011/* SetRefPoint0 */
PUSHW[ ]\011/* 2 values pushed */
26 4 
MIRP[10100]\011/* MoveIndirectRelPt */
PUSHW[ ]\011/* 1 value pushed */
17 
SRP0[ ]\011/* SetRefPoint0 */
PUSHW[ ]\011/* 1 value pushed */
33 
MDRP[10000]\011/* MoveDirectRelPt */
PUSHW[ ]\011/* 1 value pushed */
16 
SRP0[ ]\011/* SetRefPoint0 */
PUSHW[ ]\011/* 1 value pushed */
37 
MDRP[10000]\011/* MoveDirectRelPt */
PUSHW[ ]\011/* 3 values pushed */
40 17 16 
SRP1[ ]\011/* SetRefPoint1 */
SRP2[ ]\011/* SetRefPoint2 */
IP[ ]\011/* InterpolatePts */
PUSHW[ ]\011/* 1 value pushed */
16 
SRP0[ ]\011/* SetRefPoint0 */
PUSHW[ ]\011/* 1 value pushed */
45 
MDRP[11100]\011/* MoveDirectRelPt */
SVTCA[0]\011/* SetFreedomAndProjectionVectorToAxis */
PUSHW[ ]\011/* 1 value pushed */
0 
RCVT[ ]\011/* ReadCVT */
IF[ ]\011/* If */
PUSHW[ ]\011/* 1 value pushed */
11 
MDAP[1]\011/* MoveDirectAbsPt */
ELSE[ ]\011/* Else */
PUSHW[ ]\011/* 2 values pushed */
11 13 
MIAP[0]\011/* MoveIndirectAbsPt */
EIF[ ]\011/* EndIf */
PUSHW[ ]\011/* 1 value pushed */
0 
RCVT[ ]\011/* ReadCVT */
IF[ ]\011/* If */
PUSHW[ ]\011/* 1 value pushed */
0 
MDAP[1]\011/* MoveDirectAbsPt */
ELSE[ ]\011/* Else */
PUSHW[ ]\011/* 2 values pushed */
0 7 
MIAP[0]\011/* MoveIndirectAbsPt */
EIF[ ]\011/* EndIf */
PUSHW[ ]\011/* 1 value pushed */
0 
RCVT[ ]\011/* ReadCVT */
IF[ ]\011/* If */
PUSHW[ ]\011/* 1 value pushed */
38 
MDAP[1]\011/* MoveDirectAbsPt */
ELSE[ ]\011/* Else */
PUSHW[ ]\011/* 2 values pushed */
38 7 
MIAP[0]\011/* MoveIndirectAbsPt */
EIF[ ]\011/* EndIf */
PUSHW[ ]\011/* 1 value pushed */
11 
SRP0[ ]\011/* SetRefPoint0 */
PUSHW[ ]\011/* 2 values pushed */
21 1 
MIRP[10100]\011/* MoveIndirectRelPt */
PUSHW[ ]\011/* 1 value pushed */
0 
SRP0[ ]\011/* SetRefPoint0 */
PUSHW[ ]\011/* 2 values pushed */
29 1 
MIRP[10100]\011/* MoveIndirectRelPt */
PUSHW[ ]\011/* 3 values pushed */
40 0 11 
SRP1[ ]\011/* SetRefPoint1 */
SRP2[ ]\011/* SetRefPoint2 */
IP[ ]\011/* InterpolatePts */
IUP[0]\011/* InterpolateUntPts */
IUP[1]\011/* InterpolateUntPts */";
};
width = 205;
}
);
note = G;
unicode = 0047;
},
{
glyphname = Gbreve;
layers = (
{
layerId = "14B2064F-49AA-4860-BD4E-8ABAFB41335C";
paths = (
{
closed = 1;
nodes = (
"104 -6 LINE SMOOTH",
"121.333 -6 OFFCURVE",
"142.667 5 OFFCURVE",
"160 25 CURVE",
"165 0 LINE",
"183 0 LINE",
"183 89 LINE",
"183 94 LINE",
"183 283 LINE",
"105 283 LINE",
"105 253 LINE",
"148 253 LINE",
"148 87 LINE SMOOTH",
"148 41.667 OFFCURVE",
"127.333 24 OFFCURVE",
"106 24 CURVE SMOOTH",
"98 24 LINE SMOOTH",
"78 24 OFFCURVE",
"57 41.667 OFFCURVE",
"57 87 CURVE SMOOTH",
"57 612 LINE SMOOTH",
"57 657.333 OFFCURVE",
"78 675 OFFCURVE",
"98 675 CURVE SMOOTH",
"106 675 LINE SMOOTH",
"127.333 675 OFFCURVE",
"148 657.333 OFFCURVE",
"148 612 CURVE SMOOTH",
"148 417 LINE",
"183 417 LINE",
"183 617 LINE SMOOTH",
"183 679.667 OFFCURVE",
"145 705 OFFCURVE",
"109 705 CURVE SMOOTH",
"95 705 LINE SMOOTH",
"54.357 705 OFFCURVE",
"21 674.421 OFFCURVE",
"21 617 CURVE SMOOTH",
"21 82 LINE SMOOTH",
"21 24.579 OFFCURVE",
"54.357 -6 OFFCURVE",
"95 -6 CURVE SMOOTH"
);
},
{
closed = 1;
nodes = (
"46 813 LINE",
"46 781 OFFCURVE",
"72.667 756 OFFCURVE",
"102 756 CURVE SMOOTH",
"135.333 756 OFFCURVE",
"160 782.333 OFFCURVE",
"160 813 CURVE",
"139 813 LINE",
"139 794.333 OFFCURVE",
"122 777 OFFCURVE",
"102 777 CURVE SMOOTH",
"83.333 777 OFFCURVE",
"67 794.333 OFFCURVE",
"67 813 CURVE"
);
}
);
userData = {
assembly = "PUSHW[ ]\011/* 1 value pushed */
60 
MDAP[1]\011/* MoveDirectAbsPt */
PUSHW[ ]\011/* 1 value pushed */
17 
MDAP[1]\011/* MoveDirectAbsPt */
PUSHW[ ]\011/* 1 value pushed */
60 
SRP0[ ]\011/* SetRefPoint0 */
PUSHW[ ]\011/* 1 value pushed */
5 
MDRP[10000]\011/* MoveDirectRelPt */
PUSHW[ ]\011/* 1 value pushed */
5 
MDAP[1]\011/* MoveDirectAbsPt */
PUSHW[ ]\011/* 1 value pushed */
17 
SRP0[ ]\011/* SetRefPoint0 */
PUSHW[ ]\011/* 2 values pushed */
16 4 
MIRP[10100]\011/* MoveIndirectRelPt */
PUSHW[ ]\011/* 1 value pushed */
5 
SRP0[ ]\011/* SetRefPoint0 */
PUSHW[ ]\011/* 2 values pushed */
26 4 
MIRP[10100]\011/* MoveIndirectRelPt */
PUSHW[ ]\011/* 1 value pushed */
17 
SRP0[ ]\011/* SetRefPoint0 */
PUSHW[ ]\011/* 1 value pushed */
33 
MDRP[10000]\011/* MoveDirectRelPt */
PUSHW[ ]\011/* 1 value pushed */
16 
SRP0[ ]\011/* SetRefPoint0 */
PUSHW[ ]\011/* 1 value pushed */
37 
MDRP[10000]\011/* MoveDirectRelPt */
PUSHW[ ]\011/* 1 value pushed */
16 
SRP0[ ]\011/* SetRefPoint0 */
PUSHW[ ]\011/* 1 value pushed */
39 
MDRP[10000]\011/* MoveDirectRelPt */
PUSHW[ ]\011/* 3 values pushed */
42 17 16 
SRP1[ ]\011/* SetRefPoint1 */
SRP2[ ]\011/* SetRefPoint2 */
IP[ ]\011/* InterpolatePts */
PUSHW[ ]\011/* 1 value pushed */
16 
SRP0[ ]\011/* SetRefPoint0 */
PUSHW[ ]\011/* 1 value pushed */
61 
MDRP[11100]\011/* MoveDirectRelPt */
SVTCA[0]\011/* SetFreedomAndProjectionVectorToAxis */
PUSHW[ ]\011/* 1 value pushed */
46 
MDAP[1]\011/* MoveDirectAbsPt */
PUSHW[ ]\011/* 1 value pushed */
52 
MDAP[1]\011/* MoveDirectAbsPt */
PUSHW[ ]\011/* 1 value pushed */
0 
RCVT[ ]\011/* ReadCVT */
IF[ ]\011/* If */
PUSHW[ ]\011/* 1 value pushed */
11 
MDAP[1]\011/* MoveDirectAbsPt */
ELSE[ ]\011/* Else */
PUSHW[ ]\011/* 2 values pushed */
11 13 
MIAP[0]\011/* MoveIndirectAbsPt */
EIF[ ]\011/* EndIf */
PUSHW[ ]\011/* 1 value pushed */
0 
RCVT[ ]\011/* ReadCVT */
IF[ ]\011/* If */
PUSHW[ ]\011/* 1 value pushed */
0 
MDAP[1]\011/* MoveDirectAbsPt */
ELSE[ ]\011/* Else */
PUSHW[ ]\011/* 2 values pushed */
0 7 
MIAP[0]\011/* MoveIndirectAbsPt */
EIF[ ]\011/* EndIf */
PUSHW[ ]\011/* 1 value pushed */
0 
RCVT[ ]\011/* ReadCVT */
IF[ ]\011/* If */
PUSHW[ ]\011/* 1 value pushed */
40 
MDAP[1]\011/* MoveDirectAbsPt */
ELSE[ ]\011/* Else */
PUSHW[ ]\011/* 2 values pushed */
40 7 
MIAP[0]\011/* MoveIndirectAbsPt */
EIF[ ]\011/* EndIf */
PUSHW[ ]\011/* 4 values pushed */
49 2 56 4 
CALL[ ]\011/* CallFunction */
PUSHW[ ]\011/* 1 value pushed */
11 
SRP0[ ]\011/* SetRefPoint0 */
PUSHW[ ]\011/* 2 values pushed */
21 1 
MIRP[10100]\011/* MoveIndirectRelPt */
PUSHW[ ]\011/* 1 value pushed */
0 
SRP0[ ]\011/* SetRefPoint0 */
PUSHW[ ]\011/* 2 values pushed */
29 1 
MIRP[10100]\011/* MoveIndirectRelPt */
PUSHW[ ]\011/* 3 values pushed */
42 0 46 
SRP1[ ]\011/* SetRefPoint1 */
SRP2[ ]\011/* SetRefPoint2 */
IP[ ]\011/* InterpolatePts */
IUP[0]\011/* InterpolateUntPts */
IUP[1]\011/* InterpolateUntPts */";
};
width = 205;
}
);
note = Gbreve;
unicode = 011E;
},
{
glyphname = Gcircumflex;
layers = (
{
layerId = "14B2064F-49AA-4860-BD4E-8ABAFB41335C";
paths = (
{
closed = 1;
nodes = (
"104 -6 LINE SMOOTH",
"121.333 -6 OFFCURVE",
"142.667 5 OFFCURVE",
"160 25 CURVE",
"165 0 LINE",
"183 0 LINE",
"183 283 LINE",
"105 283 LINE",
"105 253 LINE",
"148 253 LINE",
"148 87 LINE SMOOTH",
"148 41.667 OFFCURVE",
"127.333 24 OFFCURVE",
"106 24 CURVE SMOOTH",
"98 24 LINE SMOOTH",
"78 24 OFFCURVE",
"57 41.667 OFFCURVE",
"57 87 CURVE SMOOTH",
"57 612 LINE SMOOTH",
"57 657.333 OFFCURVE",
"78 675 OFFCURVE",
"98 675 CURVE SMOOTH",
"106 675 LINE SMOOTH",
"127.333 675 OFFCURVE",
"148 657.333 OFFCURVE",
"148 612 CURVE SMOOTH",
"148 417 LINE",
"183 417 LINE",
"183 617 LINE SMOOTH",
"183 679.667 OFFCURVE",
"145 705 OFFCURVE",
"109 705 CURVE SMOOTH",
"95 705 LINE SMOOTH",
"54.357 705 OFFCURVE",
"21 674.421 OFFCURVE",
"21 617 CURVE SMOOTH",
"21 82 LINE SMOOTH",
"21 24.579 OFFCURVE",
"54.357 -6 OFFCURVE",
"95 -6 CURVE SMOOTH"
);
},
{
closed = 1;
nodes = (
"86 824 LINE",
"31 738 LINE",
"63 738 LINE",
"102 807 LINE",
"142 738 LINE",
"174 738 LINE",
"119 824 LINE"
);
}
);
userData = {
assembly = "PUSHW[ ]\011/* 1 value pushed */
51 
MDAP[1]\011/* MoveDirectAbsPt */
PUSHW[ ]\011/* 1 value pushed */
17 
MDAP[1]\011/* MoveDirectAbsPt */
PUSHW[ ]\011/* 1 value pushed */
51 
SRP0[ ]\011/* SetRefPoint0 */
PUSHW[ ]\011/* 1 value pushed */
5 
MDRP[10000]\011/* MoveDirectRelPt */
PUSHW[ ]\011/* 1 value pushed */
5 
MDAP[1]\011/* MoveDirectAbsPt */
PUSHW[ ]\011/* 1 value pushed */
17 
SRP0[ ]\011/* SetRefPoint0 */
PUSHW[ ]\011/* 2 values pushed */
16 4 
MIRP[10100]\011/* MoveIndirectRelPt */
PUSHW[ ]\011/* 1 value pushed */
5 
SRP0[ ]\011/* SetRefPoint0 */
PUSHW[ ]\011/* 2 values pushed */
26 4 
MIRP[10100]\011/* MoveIndirectRelPt */
PUSHW[ ]\011/* 1 value pushed */
17 
SRP0[ ]\011/* SetRefPoint0 */
PUSHW[ ]\011/* 1 value pushed */
33 
MDRP[10000]\011/* MoveDirectRelPt */
PUSHW[ ]\011/* 1 value pushed */
16 
SRP0[ ]\011/* SetRefPoint0 */
PUSHW[ ]\011/* 1 value pushed */
37 
MDRP[10000]\011/* MoveDirectRelPt */
PUSHW[ ]\011/* 3 values pushed */
40 17 16 
SRP1[ ]\011/* SetRefPoint1 */
SRP2[ ]\011/* SetRefPoint2 */
IP[ ]\011/* InterpolatePts */
PUSHW[ ]\011/* 3 values pushed */
45 17 16 
SRP1[ ]\011/* SetRefPoint1 */
SRP2[ ]\011/* SetRefPoint2 */
IP[ ]\011/* InterpolatePts */
PUSHW[ ]\011/* 1 value pushed */
17 
SRP0[ ]\011/* SetRefPoint0 */
PUSHW[ ]\011/* 1 value pushed */
46 
MDRP[10000]\011/* MoveDirectRelPt */
PUSHW[ ]\011/* 1 value pushed */
46 
MDAP[1]\011/* MoveDirectAbsPt */
PUSHW[ ]\011/* 1 value pushed */
26 
SRP0[ ]\011/* SetRefPoint0 */
PUSHW[ ]\011/* 1 value pushed */
48 
MDRP[10000]\011/* MoveDirectRelPt */
PUSHW[ ]\011/* 1 value pushed */
48 
MDAP[1]\011/* MoveDirectAbsPt */
PUSHW[ ]\011/* 3 values pushed */
49 5 26 
SRP1[ ]\011/* SetRefPoint1 */
SRP2[ ]\011/* SetRefPoint2 */
IP[ ]\011/* InterpolatePts */
PUSHW[ ]\011/* 1 value pushed */
16 
SRP0[ ]\011/* SetRefPoint0 */
PUSHW[ ]\011/* 1 value pushed */
52 
MDRP[11100]\011/* MoveDirectRelPt */
SVTCA[0]\011/* SetFreedomAndProjectionVectorToAxis */
PUSHW[ ]\011/* 1 value pushed */
44 
MDAP[1]\011/* MoveDirectAbsPt */
PUSHW[ ]\011/* 1 value pushed */
0 
RCVT[ ]\011/* ReadCVT */
IF[ ]\011/* If */
PUSHW[ ]\011/* 1 value pushed */
11 
MDAP[1]\011/* MoveDirectAbsPt */
ELSE[ ]\011/* Else */
PUSHW[ ]\011/* 2 values pushed */
11 13 
MIAP[0]\011/* MoveIndirectAbsPt */
EIF[ ]\011/* EndIf */
PUSHW[ ]\011/* 1 value pushed */
0 
RCVT[ ]\011/* ReadCVT */
IF[ ]\011/* If */
PUSHW[ ]\011/* 1 value pushed */
0 
MDAP[1]\011/* MoveDirectAbsPt */
ELSE[ ]\011/* Else */
PUSHW[ ]\011/* 2 values pushed */
0 7 
MIAP[0]\011/* MoveIndirectAbsPt */
EIF[ ]\011/* EndIf */
PUSHW[ ]\011/* 1 value pushed */
0 
RCVT[ ]\011/* ReadCVT */
IF[ ]\011/* If */
PUSHW[ ]\011/* 1 value pushed */
38 
MDAP[1]\011/* MoveDirectAbsPt */
ELSE[ ]\011/* Else */
PUSHW[ ]\011/* 2 values pushed */
38 7 
MIAP[0]\011/* MoveIndirectAbsPt */
EIF[ ]\011/* EndIf */
PUSHW[ ]\011/* 1 value pushed */
11 
SRP0[ ]\011/* SetRefPoint0 */
PUSHW[ ]\011/* 2 values pushed */
21 1 
MIRP[10100]\011/* MoveIndirectRelPt */
PUSHW[ ]\011/* 1 value pushed */
0 
SRP0[ ]\011/* SetRefPoint0 */
PUSHW[ ]\011/* 2 values pushed */
29 1 
MIRP[10100]\011/* MoveIndirectRelPt */
PUSHW[ ]\011/* 3 values pushed */
40 0 44 
SRP1[ ]\011/* SetRefPoint1 */
SRP2[ ]\011/* SetRefPoint2 */
IP[ ]\011/* InterpolatePts */
PUSHW[ ]\011/* 1 value pushed */
11 
SRP0[ ]\011/* SetRefPoint0 */
PUSHW[ ]\011/* 2 values pushed */
48 1 
MIRP[10100]\011/* MoveIndirectRelPt */
PUSHW[ ]\011/* 1 value pushed */
45 
MDRP[10000]\011/* MoveDirectRelPt */
IUP[0]\011/* InterpolateUntPts */
IUP[1]\011/* InterpolateUntPts */";
};
width = 205;
}
);
note = Gcircumflex;
unicode = 011C;
},
{
glyphname = Gcommaaccent;
layers = (
{
layerId = "14B2064F-49AA-4860-BD4E-8ABAFB41335C";
paths = (
{
closed = 1;
nodes = (
"104 -6 LINE SMOOTH",
"121.333 -6 OFFCURVE",
"142.667 5 OFFCURVE",
"160 25 CURVE",
"165 0 LINE",
"183 0 LINE",
"183 89 LINE",
"183 94 LINE",
"183 283 LINE",
"105 283 LINE",
"105 253 LINE",
"148 253 LINE",
"148 87 LINE SMOOTH",
"148 41.667 OFFCURVE",
"127.333 24 OFFCURVE",
"106 24 CURVE SMOOTH",
"98 24 LINE SMOOTH",
"78 24 OFFCURVE",
"57 41.667 OFFCURVE",
"57 87 CURVE SMOOTH",
"57 612 LINE SMOOTH",
"57 657.333 OFFCURVE",
"78 675 OFFCURVE",
"98 675 CURVE SMOOTH",
"106 675 LINE SMOOTH",
"127.333 675 OFFCURVE",
"148 657.333 OFFCURVE",
"148 612 CURVE SMOOTH",
"148 417 LINE",
"183 417 LINE",
"183 617 LINE SMOOTH",
"183 679.667 OFFCURVE",
"145 705 OFFCURVE",
"109 705 CURVE SMOOTH",
"95 705 LINE SMOOTH",
"54.357 705 OFFCURVE",
"21 674.421 OFFCURVE",
"21 617 CURVE SMOOTH",
"21 82 LINE SMOOTH",
"21 24.579 OFFCURVE",
"54.357 -6 OFFCURVE",
"95 -6 CURVE SMOOTH"
);
},
{
closed = 1;
nodes = (
"118 -30 LINE",
"81 -30 LINE",
"81 -105 LINE",
"97 -105 LINE",
"82 -161 LINE",
"98 -161 LINE",
"118 -105 LINE"
);
}
);
userData = {
assembly = "PUSHW[ ]\011/* 4 values pushed */
26 4 5 4 
CALL[ ]\011/* CallFunction */
PUSHW[ ]\011/* 4 values pushed */
46 4 50 4 
CALL[ ]\011/* CallFunction */
PUSHW[ ]\011/* 4 values pushed */
16 4 17 4 
CALL[ ]\011/* CallFunction */
PUSHW[ ]\011/* 1 value pushed */
17 
SRP0[ ]\011/* SetRefPoint0 */
PUSHW[ ]\011/* 1 value pushed */
33 
MDRP[10000]\011/* MoveDirectRelPt */
PUSHW[ ]\011/* 1 value pushed */
16 
SRP0[ ]\011/* SetRefPoint0 */
PUSHW[ ]\011/* 1 value pushed */
37 
MDRP[10000]\011/* MoveDirectRelPt */
PUSHW[ ]\011/* 1 value pushed */
16 
SRP0[ ]\011/* SetRefPoint0 */
PUSHW[ ]\011/* 1 value pushed */
39 
MDRP[10000]\011/* MoveDirectRelPt */
PUSHW[ ]\011/* 3 values pushed */
42 17 16 
SRP1[ ]\011/* SetRefPoint1 */
SRP2[ ]\011/* SetRefPoint2 */
IP[ ]\011/* InterpolatePts */
PUSHW[ ]\011/* 3 values pushed */
48 50 46 
SRP1[ ]\011/* SetRefPoint1 */
SRP2[ ]\011/* SetRefPoint2 */
IP[ ]\011/* InterpolatePts */
PUSHW[ ]\011/* 1 value pushed */
16 
SRP0[ ]\011/* SetRefPoint0 */
PUSHW[ ]\011/* 1 value pushed */
54 
MDRP[11100]\011/* MoveDirectRelPt */
SVTCA[0]\011/* SetFreedomAndProjectionVectorToAxis */
PUSHW[ ]\011/* 1 value pushed */
47 
MDAP[1]\011/* MoveDirectAbsPt */
PUSHW[ ]\011/* 1 value pushed */
0 
RCVT[ ]\011/* ReadCVT */
IF[ ]\011/* If */
PUSHW[ ]\011/* 1 value pushed */
11 
MDAP[1]\011/* MoveDirectAbsPt */
ELSE[ ]\011/* Else */
PUSHW[ ]\011/* 2 values pushed */
11 13 
MIAP[0]\011/* MoveIndirectAbsPt */
EIF[ ]\011/* EndIf */
PUSHW[ ]\011/* 1 value pushed */
0 
RCVT[ ]\011/* ReadCVT */
IF[ ]\011/* If */
PUSHW[ ]\011/* 1 value pushed */
0 
MDAP[1]\011/* MoveDirectAbsPt */
ELSE[ ]\011/* Else */
PUSHW[ ]\011/* 2 values pushed */
0 7 
MIAP[0]\011/* MoveIndirectAbsPt */
EIF[ ]\011/* EndIf */
PUSHW[ ]\011/* 1 value pushed */
0 
RCVT[ ]\011/* ReadCVT */
IF[ ]\011/* If */
PUSHW[ ]\011/* 1 value pushed */
40 
MDAP[1]\011/* MoveDirectAbsPt */
ELSE[ ]\011/* Else */
PUSHW[ ]\011/* 2 values pushed */
40 7 
MIAP[0]\011/* MoveIndirectAbsPt */
EIF[ ]\011/* EndIf */
PUSHW[ ]\011/* 1 value pushed */
11 
SRP0[ ]\011/* SetRefPoint0 */
PUSHW[ ]\011/* 2 values pushed */
21 1 
MIRP[10100]\011/* MoveIndirectRelPt */
PUSHW[ ]\011/* 1 value pushed */
0 
SRP0[ ]\011/* SetRefPoint0 */
PUSHW[ ]\011/* 2 values pushed */
29 1 
MIRP[10100]\011/* MoveIndirectRelPt */
PUSHW[ ]\011/* 3 values pushed */
42 47 11 
SRP1[ ]\011/* SetRefPoint1 */
SRP2[ ]\011/* SetRefPoint2 */
IP[ ]\011/* InterpolatePts */
PUSHW[ ]\011/* 3 values pushed */
49 47 11 
SRP1[ ]\011/* SetRefPoint1 */
SRP2[ ]\011/* SetRefPoint2 */
IP[ ]\011/* InterpolatePts */
IUP[0]\011/* InterpolateUntPts */
IUP[1]\011/* InterpolateUntPts */";
};
width = 205;
}
);
note = uni0122;
unicode = 0122;
},
{
glyphname = Gdotaccent;
layers = (
{
layerId = "14B2064F-49AA-4860-BD4E-8ABAFB41335C";
paths = (
{
closed = 1;
nodes = (
"104 -6 LINE SMOOTH",
"121.333 -6 OFFCURVE",
"142.667 5 OFFCURVE",
"160 25 CURVE",
"165 0 LINE",
"183 0 LINE",
"183 283 LINE",
"105 283 LINE",
"105 253 LINE",
"148 253 LINE",
"148 87 LINE SMOOTH",
"148 41.667 OFFCURVE",
"127.333 24 OFFCURVE",
"106 24 CURVE SMOOTH",
"98 24 LINE SMOOTH",
"78 24 OFFCURVE",
"57 41.667 OFFCURVE",
"57 87 CURVE SMOOTH",
"57 612 LINE SMOOTH",
"57 657.333 OFFCURVE",
"78 675 OFFCURVE",
"98 675 CURVE SMOOTH",
"106 675 LINE SMOOTH",
"127.333 675 OFFCURVE",
"148 657.333 OFFCURVE",
"148 612 CURVE SMOOTH",
"148 417 LINE",
"183 417 LINE",
"183 617 LINE SMOOTH",
"183 679.667 OFFCURVE",
"145 705 OFFCURVE",
"109 705 CURVE SMOOTH",
"95 705 LINE SMOOTH",
"54.357 705 OFFCURVE",
"21 674.421 OFFCURVE",
"21 617 CURVE SMOOTH",
"21 82 LINE SMOOTH",
"21 24.579 OFFCURVE",
"54.357 -6 OFFCURVE",
"95 -6 CURVE SMOOTH"
);
},
{
closed = 1;
nodes = (
"114 816 LINE",
"89 816 LINE",
"89 753 LINE",
"114 753 LINE"
);
}
);
userData = {
assembly = "PUSHW[ ]\011/* 4 values pushed */
26 4 5 4 
CALL[ ]\011/* CallFunction */
PUSHW[ ]\011/* 4 values pushed */
44 5 45 4 
CALL[ ]\011/* CallFunction */
PUSHW[ ]\011/* 4 values pushed */
16 4 17 4 
CALL[ ]\011/* CallFunction */
PUSHW[ ]\011/* 1 value pushed */
17 
SRP0[ ]\011/* SetRefPoint0 */
PUSHW[ ]\011/* 1 value pushed */
33 
MDRP[10000]\011/* MoveDirectRelPt */
PUSHW[ ]\011/* 1 value pushed */
16 
SRP0[ ]\011/* SetRefPoint0 */
PUSHW[ ]\011/* 1 value pushed */
37 
MDRP[10000]\011/* MoveDirectRelPt */
PUSHW[ ]\011/* 3 values pushed */
40 17 16 
SRP1[ ]\011/* SetRefPoint1 */
SRP2[ ]\011/* SetRefPoint2 */
IP[ ]\011/* InterpolatePts */
PUSHW[ ]\011/* 1 value pushed */
16 
SRP0[ ]\011/* SetRefPoint0 */
PUSHW[ ]\011/* 1 value pushed */
49 
MDRP[11100]\011/* MoveDirectRelPt */
SVTCA[0]\011/* SetFreedomAndProjectionVectorToAxis */
PUSHW[ ]\011/* 1 value pushed */
46 
MDAP[1]\011/* MoveDirectAbsPt */
PUSHW[ ]\011/* 1 value pushed */
0 
RCVT[ ]\011/* ReadCVT */
IF[ ]\011/* If */
PUSHW[ ]\011/* 1 value pushed */
11 
MDAP[1]\011/* MoveDirectAbsPt */
ELSE[ ]\011/* Else */
PUSHW[ ]\011/* 2 values pushed */
11 13 
MIAP[0]\011/* MoveIndirectAbsPt */
EIF[ ]\011/* EndIf */
PUSHW[ ]\011/* 1 value pushed */
0 
RCVT[ ]\011/* ReadCVT */
IF[ ]\011/* If */
PUSHW[ ]\011/* 1 value pushed */
0 
MDAP[1]\011/* MoveDirectAbsPt */
ELSE[ ]\011/* Else */
PUSHW[ ]\011/* 2 values pushed */
0 7 
MIAP[0]\011/* MoveIndirectAbsPt */
EIF[ ]\011/* EndIf */
PUSHW[ ]\011/* 1 value pushed */
0 
RCVT[ ]\011/* ReadCVT */
IF[ ]\011/* If */
PUSHW[ ]\011/* 1 value pushed */
38 
MDAP[1]\011/* MoveDirectAbsPt */
ELSE[ ]\011/* Else */
PUSHW[ ]\011/* 2 values pushed */
38 7 
MIAP[0]\011/* MoveIndirectAbsPt */
EIF[ ]\011/* EndIf */
PUSHW[ ]\011/* 1 value pushed */
11 
SRP0[ ]\011/* SetRefPoint0 */
PUSHW[ ]\011/* 2 values pushed */
21 1 
MIRP[10100]\011/* MoveIndirectRelPt */
PUSHW[ ]\011/* 1 value pushed */
0 
SRP0[ ]\011/* SetRefPoint0 */
PUSHW[ ]\011/* 2 values pushed */
29 1 
MIRP[10100]\011/* MoveIndirectRelPt */
PUSHW[ ]\011/* 3 values pushed */
40 0 46 
SRP1[ ]\011/* SetRefPoint1 */
SRP2[ ]\011/* SetRefPoint2 */
IP[ ]\011/* InterpolatePts */
IUP[0]\011/* InterpolateUntPts */
IUP[1]\011/* InterpolateUntPts */";
};
width = 205;
}
);
note = Gdotaccent;
unicode = 0120;
},
{
glyphname = H;
layers = (
{
layerId = "14B2064F-49AA-4860-BD4E-8ABAFB41335C";
paths = (
{
closed = 1;
nodes = (
"145 699 LINE",
"145 363 LINE",
"60 363 LINE",
"60 699 LINE",
"24 699 LINE",
"24 0 LINE",
"60 0 LINE",
"60 336 LINE",
"145 336 LINE",
"145 0 LINE",
"181 0 LINE",
"181 699 LINE"
);
}
);
userData = {
assembly = "PUSHW[ ]\011/* 1 value pushed */
12 
MDAP[1]\011/* MoveDirectAbsPt */
PUSHW[ ]\011/* 1 value pushed */
2 
MDAP[1]\011/* MoveDirectAbsPt */
PUSHW[ ]\011/* 2 values pushed */
1 4 
MIRP[10100]\011/* MoveIndirectRelPt */
PUSHW[ ]\011/* 1 value pushed */
12 
SRP0[ ]\011/* SetRefPoint0 */
PUSHW[ ]\011/* 1 value pushed */
6 
MDRP[10000]\011/* MoveDirectRelPt */
PUSHW[ ]\011/* 1 value pushed */
6 
MDAP[1]\011/* MoveDirectAbsPt */
PUSHW[ ]\011/* 2 values pushed */
5 4 
MIRP[10100]\011/* MoveIndirectRelPt */
PUSHW[ ]\011/* 1 value pushed */
8 
MDRP[10000]\011/* MoveDirectRelPt */
PUSHW[ ]\011/* 1 value pushed */
2 
SRP0[ ]\011/* SetRefPoint0 */
PUSHW[ ]\011/* 1 value pushed */
10 
MDRP[10000]\011/* MoveDirectRelPt */
PUSHW[ ]\011/* 1 value pushed */
1 
SRP0[ ]\011/* SetRefPoint0 */
PUSHW[ ]\011/* 1 value pushed */
13 
MDRP[11100]\011/* MoveDirectRelPt */
SVTCA[0]\011/* SetFreedomAndProjectionVectorToAxis */
PUSHW[ ]\011/* 1 value pushed */
0 
RCVT[ ]\011/* ReadCVT */
IF[ ]\011/* If */
PUSHW[ ]\011/* 1 value pushed */
0 
MDAP[1]\011/* MoveDirectAbsPt */
ELSE[ ]\011/* Else */
PUSHW[ ]\011/* 2 values pushed */
0 13 
MIAP[0]\011/* MoveIndirectAbsPt */
EIF[ ]\011/* EndIf */
PUSHW[ ]\011/* 1 value pushed */
0 
RCVT[ ]\011/* ReadCVT */
IF[ ]\011/* If */
PUSHW[ ]\011/* 1 value pushed */
7 
MDAP[1]\011/* MoveDirectAbsPt */
ELSE[ ]\011/* Else */
PUSHW[ ]\011/* 2 values pushed */
7 13 
MIAP[0]\011/* MoveIndirectAbsPt */
EIF[ ]\011/* EndIf */
PUSHW[ ]\011/* 1 value pushed */
0 
RCVT[ ]\011/* ReadCVT */
IF[ ]\011/* If */
PUSHW[ ]\011/* 1 value pushed */
1 
MDAP[1]\011/* MoveDirectAbsPt */
ELSE[ ]\011/* Else */
PUSHW[ ]\011/* 2 values pushed */
1 7 
MIAP[0]\011/* MoveIndirectAbsPt */
EIF[ ]\011/* EndIf */
PUSHW[ ]\011/* 1 value pushed */
0 
RCVT[ ]\011/* ReadCVT */
IF[ ]\011/* If */
PUSHW[ ]\011/* 1 value pushed */
5 
MDAP[1]\011/* MoveDirectAbsPt */
ELSE[ ]\011/* Else */
PUSHW[ ]\011/* 2 values pushed */
5 7 
MIAP[0]\011/* MoveIndirectAbsPt */
EIF[ ]\011/* EndIf */
PUSHW[ ]\011/* 4 values pushed */
10 3 3 4 
CALL[ ]\011/* CallFunction */
IUP[0]\011/* InterpolateUntPts */
IUP[1]\011/* InterpolateUntPts */";
};
width = 205;
}
);
note = H;
unicode = 0048;
},
{
glyphname = Hbar;
layers = (
{
layerId = "14B2064F-49AA-4860-BD4E-8ABAFB41335C";
paths = (
{
closed = 1;
nodes = (
"6 507 LINE",
"6 482 LINE",
"24 482 LINE",
"24 0 LINE",
"60 0 LINE",
"60 336 LINE",
"145 336 LINE",
"145 0 LINE",
"181 0 LINE",
"181 482 LINE",
"198 482 LINE",
"198 507 LINE",
"181 507 LINE",
"181 699 LINE",
"145 699 LINE",
"145 507 LINE",
"60 507 LINE",
"60 699 LINE",
"24 699 LINE",
"24 507 LINE"
);
},
{
closed = 1;
nodes = (
"60 363 LINE",
"60 482 LINE",
"145 482 LINE",
"145 363 LINE"
);
}
);
userData = {
assembly = "PUSHW[ ]\011/* 1 value pushed */
24 
MDAP[1]\011/* MoveDirectAbsPt */
PUSHW[ ]\011/* 1 value pushed */
4 
MDAP[1]\011/* MoveDirectAbsPt */
PUSHW[ ]\011/* 1 value pushed */
24 
SRP0[ ]\011/* SetRefPoint0 */
PUSHW[ ]\011/* 1 value pushed */
0 
MDRP[10000]\011/* MoveDirectRelPt */
PUSHW[ ]\011/* 1 value pushed */
0 
MDAP[1]\011/* MoveDirectAbsPt */
PUSHW[ ]\011/* 2 values pushed */
3 4 
MIRP[10100]\011/* MoveIndirectRelPt */
PUSHW[ ]\011/* 1 value pushed */
4 
SRP0[ ]\011/* SetRefPoint0 */
PUSHW[ ]\011/* 2 values pushed */
7 4 
MIRP[10100]\011/* MoveIndirectRelPt */
PUSHW[ ]\011/* 1 value pushed */
10 
MDRP[10000]\011/* MoveDirectRelPt */
PUSHW[ ]\011/* 1 value pushed */
4 
SRP0[ ]\011/* SetRefPoint0 */
PUSHW[ ]\011/* 1 value pushed */
12 
MDRP[10000]\011/* MoveDirectRelPt */
PUSHW[ ]\011/* 1 value pushed */
3 
SRP0[ ]\011/* SetRefPoint0 */
PUSHW[ ]\011/* 1 value pushed */
14 
MDRP[10000]\011/* MoveDirectRelPt */
PUSHW[ ]\011/* 1 value pushed */
0 
SRP0[ ]\011/* SetRefPoint0 */
PUSHW[ ]\011/* 1 value pushed */
16 
MDRP[10000]\011/* MoveDirectRelPt */
PUSHW[ ]\011/* 1 value pushed */
4 
SRP0[ ]\011/* SetRefPoint0 */
PUSHW[ ]\011/* 1 value pushed */
20 
MDRP[10000]\011/* MoveDirectRelPt */
PUSHW[ ]\011/* 1 value pushed */
3 
SRP0[ ]\011/* SetRefPoint0 */
PUSHW[ ]\011/* 1 value pushed */
22 
MDRP[10000]\011/* MoveDirectRelPt */
PUSHW[ ]\011/* 1 value pushed */
7 
SRP0[ ]\011/* SetRefPoint0 */
PUSHW[ ]\011/* 1 value pushed */
25 
MDRP[11100]\011/* MoveDirectRelPt */
SVTCA[0]\011/* SetFreedomAndProjectionVectorToAxis */
PUSHW[ ]\011/* 1 value pushed */
0 
RCVT[ ]\011/* ReadCVT */
IF[ ]\011/* If */
PUSHW[ ]\011/* 1 value pushed */
1 
MDAP[1]\011/* MoveDirectAbsPt */
ELSE[ ]\011/* Else */
PUSHW[ ]\011/* 2 values pushed */
1 13 
MIAP[0]\011/* MoveIndirectAbsPt */
EIF[ ]\011/* EndIf */
PUSHW[ ]\011/* 1 value pushed */
0 
RCVT[ ]\011/* ReadCVT */
IF[ ]\011/* If */
PUSHW[ ]\011/* 1 value pushed */
5 
MDAP[1]\011/* MoveDirectAbsPt */
ELSE[ ]\011/* Else */
PUSHW[ ]\011/* 2 values pushed */
5 13 
MIAP[0]\011/* MoveIndirectAbsPt */
EIF[ ]\011/* EndIf */
PUSHW[ ]\011/* 1 value pushed */
0 
RCVT[ ]\011/* ReadCVT */
IF[ ]\011/* If */
PUSHW[ ]\011/* 1 value pushed */
11 
MDAP[1]\011/* MoveDirectAbsPt */
ELSE[ ]\011/* Else */
PUSHW[ ]\011/* 2 values pushed */
11 7 
MIAP[0]\011/* MoveIndirectAbsPt */
EIF[ ]\011/* EndIf */
PUSHW[ ]\011/* 1 value pushed */
0 
RCVT[ ]\011/* ReadCVT */
IF[ ]\011/* If */
PUSHW[ ]\011/* 1 value pushed */
15 
MDAP[1]\011/* MoveDirectAbsPt */
ELSE[ ]\011/* Else */
PUSHW[ ]\011/* 2 values pushed */
15 7 
MIAP[0]\011/* MoveIndirectAbsPt */
EIF[ ]\011/* EndIf */
PUSHW[ ]\011/* 4 values pushed */
8 3 9 4 
CALL[ ]\011/* CallFunction */
PUSHW[ ]\011/* 4 values pushed */
20 3 13 4 
CALL[ ]\011/* CallFunction */
PUSHW[ ]\011/* 1 value pushed */
8 
SRP0[ ]\011/* SetRefPoint0 */
PUSHW[ ]\011/* 1 value pushed */
0 
MDRP[10000]\011/* MoveDirectRelPt */
PUSHW[ ]\011/* 1 value pushed */
8 
SRP0[ ]\011/* SetRefPoint0 */
PUSHW[ ]\011/* 1 value pushed */
3 
MDRP[10000]\011/* MoveDirectRelPt */
PUSHW[ ]\011/* 1 value pushed */
9 
SRP0[ ]\011/* SetRefPoint0 */
PUSHW[ ]\011/* 1 value pushed */
17 
MDRP[10000]\011/* MoveDirectRelPt */
PUSHW[ ]\011/* 1 value pushed */
9 
SRP0[ ]\011/* SetRefPoint0 */
PUSHW[ ]\011/* 1 value pushed */
21 
MDRP[10000]\011/* MoveDirectRelPt */
IUP[0]\011/* InterpolateUntPts */
IUP[1]\011/* InterpolateUntPts */";
};
width = 205;
}
);
note = "LATIN CAPITAL LETTER H WITH STROKE";
unicode = 0126;
},
{
glyphname = Hcircumflex;
layers = (
{
layerId = "14B2064F-49AA-4860-BD4E-8ABAFB41335C";
paths = (
{
closed = 1;
nodes = (
"145 699 LINE",
"145 363 LINE",
"60 363 LINE",
"60 699 LINE",
"24 699 LINE",
"24 0 LINE",
"60 0 LINE",
"60 336 LINE",
"145 336 LINE",
"145 0 LINE",
"181 0 LINE",
"181 699 LINE"
);
},
{
closed = 1;
nodes = (
"86 824 LINE",
"31 738 LINE",
"63 738 LINE",
"102 807 LINE",
"142 738 LINE",
"174 738 LINE",
"119 824 LINE"
);
}
);
userData = {
assembly = "PUSHW[ ]\011/* 1 value pushed */
19 
MDAP[1]\011/* MoveDirectAbsPt */
PUSHW[ ]\011/* 1 value pushed */
2 
MDAP[1]\011/* MoveDirectAbsPt */
PUSHW[ ]\011/* 2 values pushed */
1 4 
MIRP[10100]\011/* MoveIndirectRelPt */
PUSHW[ ]\011/* 1 value pushed */
19 
SRP0[ ]\011/* SetRefPoint0 */
PUSHW[ ]\011/* 1 value pushed */
6 
MDRP[10000]\011/* MoveDirectRelPt */
PUSHW[ ]\011/* 1 value pushed */
6 
MDAP[1]\011/* MoveDirectAbsPt */
PUSHW[ ]\011/* 2 values pushed */
5 4 
MIRP[10100]\011/* MoveIndirectRelPt */
PUSHW[ ]\011/* 1 value pushed */
8 
MDRP[10000]\011/* MoveDirectRelPt */
PUSHW[ ]\011/* 1 value pushed */
2 
SRP0[ ]\011/* SetRefPoint0 */
PUSHW[ ]\011/* 1 value pushed */
10 
MDRP[10000]\011/* MoveDirectRelPt */
PUSHW[ ]\011/* 1 value pushed */
1 
SRP0[ ]\011/* SetRefPoint0 */
PUSHW[ ]\011/* 1 value pushed */
13 
MDRP[10000]\011/* MoveDirectRelPt */
PUSHW[ ]\011/* 1 value pushed */
13 
MDAP[1]\011/* MoveDirectAbsPt */
PUSHW[ ]\011/* 1 value pushed */
2 
SRP0[ ]\011/* SetRefPoint0 */
PUSHW[ ]\011/* 1 value pushed */
14 
MDRP[10000]\011/* MoveDirectRelPt */
PUSHW[ ]\011/* 1 value pushed */
14 
MDAP[1]\011/* MoveDirectAbsPt */
PUSHW[ ]\011/* 1 value pushed */
5 
SRP0[ ]\011/* SetRefPoint0 */
PUSHW[ ]\011/* 1 value pushed */
16 
MDRP[10000]\011/* MoveDirectRelPt */
PUSHW[ ]\011/* 1 value pushed */
16 
MDAP[1]\011/* MoveDirectAbsPt */
PUSHW[ ]\011/* 1 value pushed */
6 
SRP0[ ]\011/* SetRefPoint0 */
PUSHW[ ]\011/* 1 value pushed */
17 
MDRP[10000]\011/* MoveDirectRelPt */
PUSHW[ ]\011/* 1 value pushed */
17 
MDAP[1]\011/* MoveDirectAbsPt */
PUSHW[ ]\011/* 1 value pushed */
1 
SRP0[ ]\011/* SetRefPoint0 */
PUSHW[ ]\011/* 1 value pushed */
20 
MDRP[11100]\011/* MoveDirectRelPt */
SVTCA[0]\011/* SetFreedomAndProjectionVectorToAxis */
PUSHW[ ]\011/* 1 value pushed */
12 
MDAP[1]\011/* MoveDirectAbsPt */
PUSHW[ ]\011/* 1 value pushed */
0 
RCVT[ ]\011/* ReadCVT */
IF[ ]\011/* If */
PUSHW[ ]\011/* 1 value pushed */
1 
MDAP[1]\011/* MoveDirectAbsPt */
ELSE[ ]\011/* Else */
PUSHW[ ]\011/* 2 values pushed */
1 7 
MIAP[0]\011/* MoveIndirectAbsPt */
EIF[ ]\011/* EndIf */
PUSHW[ ]\011/* 1 value pushed */
0 
RCVT[ ]\011/* ReadCVT */
IF[ ]\011/* If */
PUSHW[ ]\011/* 1 value pushed */
5 
MDAP[1]\011/* MoveDirectAbsPt */
ELSE[ ]\011/* Else */
PUSHW[ ]\011/* 2 values pushed */
5 7 
MIAP[0]\011/* MoveIndirectAbsPt */
EIF[ ]\011/* EndIf */
PUSHW[ ]\011/* 4 values pushed */
13 1 0 4 
CALL[ ]\011/* CallFunction */
PUSHW[ ]\011/* 4 values pushed */
10 3 3 4 
CALL[ ]\011/* CallFunction */
PUSHW[ ]\011/* 1 value pushed */
0 
SRP0[ ]\011/* SetRefPoint0 */
PUSHW[ ]\011/* 1 value pushed */
7 
MDRP[10000]\011/* MoveDirectRelPt */
PUSHW[ ]\011/* 3 values pushed */
15 1 12 
SRP1[ ]\011/* SetRefPoint1 */
SRP2[ ]\011/* SetRefPoint2 */
IP[ ]\011/* InterpolatePts */
PUSHW[ ]\011/* 1 value pushed */
13 
SRP0[ ]\011/* SetRefPoint0 */
PUSHW[ ]\011/* 1 value pushed */
16 
MDRP[10000]\011/* MoveDirectRelPt */
PUSHW[ ]\011/* 3 values pushed */
17 1 12 
SRP1[ ]\011/* SetRefPoint1 */
SRP2[ ]\011/* SetRefPoint2 */
IP[ ]\011/* InterpolatePts */
IUP[0]\011/* InterpolateUntPts */
IUP[1]\011/* InterpolateUntPts */";
};
width = 205;
}
);
note = Hcircumflex;
unicode = 0124;
},
{
glyphname = I;
layers = (
{
layerId = "14B2064F-49AA-4860-BD4E-8ABAFB41335C";
paths = (
{
closed = 1;
nodes = (
"24 699 LINE",
"24 0 LINE",
"60 0 LINE",
"60 699 LINE"
);
}
);
userData = {
assembly = "PUSHW[ ]\011/* 4 values pushed */
1 4 2 4 
CALL[ ]\011/* CallFunction */
SVTCA[0]\011/* SetFreedomAndProjectionVectorToAxis */
PUSHW[ ]\011/* 1 value pushed */
0 
RCVT[ ]\011/* ReadCVT */
IF[ ]\011/* If */
PUSHW[ ]\011/* 1 value pushed */
0 
MDAP[1]\011/* MoveDirectAbsPt */
ELSE[ ]\011/* Else */
PUSHW[ ]\011/* 2 values pushed */
0 13 
MIAP[0]\011/* MoveIndirectAbsPt */
EIF[ ]\011/* EndIf */
PUSHW[ ]\011/* 1 value pushed */
0 
RCVT[ ]\011/* ReadCVT */
IF[ ]\011/* If */
PUSHW[ ]\011/* 1 value pushed */
1 
MDAP[1]\011/* MoveDirectAbsPt */
ELSE[ ]\011/* Else */
PUSHW[ ]\011/* 2 values pushed */
1 7 
MIAP[0]\011/* MoveIndirectAbsPt */
EIF[ ]\011/* EndIf */
IUP[0]\011/* InterpolateUntPts */
IUP[1]\011/* InterpolateUntPts */";
};
width = 84;
}
);
note = I;
unicode = 0049;
},
{
glyphname = IJ;
layers = (
{
layerId = "14B2064F-49AA-4860-BD4E-8ABAFB41335C";
paths = (
{
closed = 1;
nodes = (
"24 699 LINE",
"24 0 LINE",
"60 0 LINE",
"60 699 LINE"
);
},
{
closed = 1;
nodes = (
"191 -6 LINE SMOOTH",
"227 -6 OFFCURVE",
"265 19.333 OFFCURVE",
"265 82 CURVE SMOOTH",
"265 699 LINE",
"230 699 LINE",
"230 87 LINE SMOOTH",
"230 41.667 OFFCURVE",
"209.333 24 OFFCURVE",
"188 24 CURVE SMOOTH",
"180 24 LINE SMOOTH",
"160 24 OFFCURVE",
"139 41.667 OFFCURVE",
"139 87 CURVE SMOOTH",
"139 281 LINE",
"103 281 LINE",
"103 82 LINE SMOOTH",
"103 24.579 OFFCURVE",
"136.357 -6 OFFCURVE",
"177 -6 CURVE SMOOTH"
);
}
);
userData = {
assembly = "PUSHW[ ]\011/* 4 values pushed */
1 4 2 4 
CALL[ ]\011/* CallFunction */
PUSHW[ ]\011/* 4 values pushed */
12 4 9 4 
CALL[ ]\011/* CallFunction */
PUSHW[ ]\011/* 4 values pushed */
22 4 19 4 
CALL[ ]\011/* CallFunction */
PUSHW[ ]\011/* 1 value pushed */
22 
SRP0[ ]\011/* SetRefPoint0 */
PUSHW[ ]\011/* 1 value pushed */
27 
MDRP[11100]\011/* MoveDirectRelPt */
SVTCA[0]\011/* SetFreedomAndProjectionVectorToAxis */
PUSHW[ ]\011/* 1 value pushed */
0 
RCVT[ ]\011/* ReadCVT */
IF[ ]\011/* If */
PUSHW[ ]\011/* 1 value pushed */
0 
MDAP[1]\011/* MoveDirectAbsPt */
ELSE[ ]\011/* Else */
PUSHW[ ]\011/* 2 values pushed */
0 13 
MIAP[0]\011/* MoveIndirectAbsPt */
EIF[ ]\011/* EndIf */
PUSHW[ ]\011/* 1 value pushed */
0 
RCVT[ ]\011/* ReadCVT */
IF[ ]\011/* If */
PUSHW[ ]\011/* 1 value pushed */
20 
MDAP[1]\011/* MoveDirectAbsPt */
ELSE[ ]\011/* Else */
PUSHW[ ]\011/* 2 values pushed */
20 13 
MIAP[0]\011/* MoveIndirectAbsPt */
EIF[ ]\011/* EndIf */
PUSHW[ ]\011/* 1 value pushed */
0 
RCVT[ ]\011/* ReadCVT */
IF[ ]\011/* If */
PUSHW[ ]\011/* 1 value pushed */
1 
MDAP[1]\011/* MoveDirectAbsPt */
ELSE[ ]\011/* Else */
PUSHW[ ]\011/* 2 values pushed */
1 7 
MIAP[0]\011/* MoveIndirectAbsPt */
EIF[ ]\011/* EndIf */
PUSHW[ ]\011/* 1 value pushed */
0 
RCVT[ ]\011/* ReadCVT */
IF[ ]\011/* If */
PUSHW[ ]\011/* 1 value pushed */
4 
MDAP[1]\011/* MoveDirectAbsPt */
ELSE[ ]\011/* Else */
PUSHW[ ]\011/* 2 values pushed */
4 7 
MIAP[0]\011/* MoveIndirectAbsPt */
EIF[ ]\011/* EndIf */
PUSHW[ ]\011/* 2 values pushed */
15 1 
MIRP[10100]\011/* MoveIndirectRelPt */
IUP[0]\011/* InterpolateUntPts */
IUP[1]\011/* InterpolateUntPts */";
};
width = 288;
}
);
note = IJ;
unicode = 0132;
},
{
glyphname = Iacute;
layers = (
{
layerId = "14B2064F-49AA-4860-BD4E-8ABAFB41335C";
paths = (
{
closed = 1;
nodes = (
"24 699 LINE",
"24 0 LINE",
"60 0 LINE",
"60 699 LINE"
);
},
{
closed = 1;
nodes = (
"53 747 LINE",
"108 833 LINE",
"76 833 LINE",
"30 747 LINE"
);
}
);
userData = {
assembly = "PUSHW[ ]\011/* 4 values pushed */
1 4 2 4 
CALL[ ]\011/* CallFunction */
PUSHW[ ]\011/* 3 values pushed */
4 2 1 
SRP1[ ]\011/* SetRefPoint1 */
SRP2[ ]\011/* SetRefPoint2 */
IP[ ]\011/* InterpolatePts */
SVTCA[0]\011/* SetFreedomAndProjectionVectorToAxis */
PUSHW[ ]\011/* 1 value pushed */
5 
MDAP[1]\011/* MoveDirectAbsPt */
PUSHW[ ]\011/* 1 value pushed */
0 
RCVT[ ]\011/* ReadCVT */
IF[ ]\011/* If */
PUSHW[ ]\011/* 1 value pushed */
0 
MDAP[1]\011/* MoveDirectAbsPt */
ELSE[ ]\011/* Else */
PUSHW[ ]\011/* 2 values pushed */
0 13 
MIAP[0]\011/* MoveIndirectAbsPt */
EIF[ ]\011/* EndIf */
PUSHW[ ]\011/* 1 value pushed */
0 
RCVT[ ]\011/* ReadCVT */
IF[ ]\011/* If */
PUSHW[ ]\011/* 1 value pushed */
1 
MDAP[1]\011/* MoveDirectAbsPt */
ELSE[ ]\011/* Else */
PUSHW[ ]\011/* 2 values pushed */
1 7 
MIAP[0]\011/* MoveIndirectAbsPt */
EIF[ ]\011/* EndIf */
PUSHW[ ]\011/* 3 values pushed */
4 1 5 
SRP1[ ]\011/* SetRefPoint1 */
SRP2[ ]\011/* SetRefPoint2 */
IP[ ]\011/* InterpolatePts */
IUP[0]\011/* InterpolateUntPts */
IUP[1]\011/* InterpolateUntPts */";
};
width = 84;
}
);
note = Iacute;
unicode = 00CD;
},
{
glyphname = Ibreve;
layers = (
{
layerId = "14B2064F-49AA-4860-BD4E-8ABAFB41335C";
paths = (
{
closed = 1;
nodes = (
"60 699 LINE",
"60 0 LINE",
"24 0 LINE",
"24 699 LINE"
);
},
{
closed = 1;
nodes = (
"-14 822 LINE",
"-14 791.333 OFFCURVE",
"12.667 765 OFFCURVE",
"42 765 CURVE SMOOTH",
"75.333 765 OFFCURVE",
"100 791.333 OFFCURVE",
"100 822 CURVE",
"79 822 LINE",
"79 803.333 OFFCURVE",
"62 786 OFFCURVE",
"42 786 CURVE SMOOTH",
"23.333 786 OFFCURVE",
"7 803.333 OFFCURVE",
"7 822 CURVE"
);
}
);
userData = {
assembly = "PUSHW[ ]\011/* 4 values pushed */
3 4 0 4 
CALL[ ]\011/* CallFunction */
SVTCA[0]\011/* SetFreedomAndProjectionVectorToAxis */
PUSHW[ ]\011/* 1 value pushed */
4 
MDAP[1]\011/* MoveDirectAbsPt */
PUSHW[ ]\011/* 1 value pushed */
10 
MDAP[1]\011/* MoveDirectAbsPt */
PUSHW[ ]\011/* 1 value pushed */
0 
RCVT[ ]\011/* ReadCVT */
IF[ ]\011/* If */
PUSHW[ ]\011/* 1 value pushed */
0 
MDAP[1]\011/* MoveDirectAbsPt */
ELSE[ ]\011/* Else */
PUSHW[ ]\011/* 2 values pushed */
0 13 
MIAP[0]\011/* MoveIndirectAbsPt */
EIF[ ]\011/* EndIf */
PUSHW[ ]\011/* 1 value pushed */
0 
RCVT[ ]\011/* ReadCVT */
IF[ ]\011/* If */
PUSHW[ ]\011/* 1 value pushed */
1 
MDAP[1]\011/* MoveDirectAbsPt */
ELSE[ ]\011/* Else */
PUSHW[ ]\011/* 2 values pushed */
1 7 
MIAP[0]\011/* MoveIndirectAbsPt */
EIF[ ]\011/* EndIf */
PUSHW[ ]\011/* 4 values pushed */
7 2 14 4 
CALL[ ]\011/* CallFunction */
IUP[0]\011/* InterpolateUntPts */
IUP[1]\011/* InterpolateUntPts */";
};
width = 84;
}
);
note = Ibreve;
unicode = 012C;
},
{
glyphname = Icircumflex;
layers = (
{
layerId = "14B2064F-49AA-4860-BD4E-8ABAFB41335C";
paths = (
{
closed = 1;
nodes = (
"24 699 LINE",
"24 0 LINE",
"60 0 LINE",
"60 699 LINE"
);
},
{
closed = 1;
nodes = (
"26 833 LINE",
"-29 747 LINE",
"3 747 LINE",
"42 816 LINE",
"82 747 LINE",
"114 747 LINE",
"59 833 LINE"
);
}
);
userData = {
assembly = "PUSHW[ ]\011/* 4 values pushed */
1 4 2 4 
CALL[ ]\011/* CallFunction */
PUSHW[ ]\011/* 3 values pushed */
7 2 1 
SRP1[ ]\011/* SetRefPoint1 */
SRP2[ ]\011/* SetRefPoint2 */
IP[ ]\011/* InterpolatePts */
SVTCA[0]\011/* SetFreedomAndProjectionVectorToAxis */
PUSHW[ ]\011/* 1 value pushed */
4 
MDAP[1]\011/* MoveDirectAbsPt */
PUSHW[ ]\011/* 1 value pushed */
0 
RCVT[ ]\011/* ReadCVT */
IF[ ]\011/* If */
PUSHW[ ]\011/* 1 value pushed */
0 
MDAP[1]\011/* MoveDirectAbsPt */
ELSE[ ]\011/* Else */
PUSHW[ ]\011/* 2 values pushed */
0 13 
MIAP[0]\011/* MoveIndirectAbsPt */
EIF[ ]\011/* EndIf */
PUSHW[ ]\011/* 1 value pushed */
0 
RCVT[ ]\011/* ReadCVT */
IF[ ]\011/* If */
PUSHW[ ]\011/* 1 value pushed */
1 
MDAP[1]\011/* MoveDirectAbsPt */
ELSE[ ]\011/* Else */
PUSHW[ ]\011/* 2 values pushed */
1 7 
MIAP[0]\011/* MoveIndirectAbsPt */
EIF[ ]\011/* EndIf */
PUSHW[ ]\011/* 3 values pushed */
5 1 4 
SRP1[ ]\011/* SetRefPoint1 */
SRP2[ ]\011/* SetRefPoint2 */
IP[ ]\011/* InterpolatePts */
PUSHW[ ]\011/* 3 values pushed */
7 1 4 
SRP1[ ]\011/* SetRefPoint1 */
SRP2[ ]\011/* SetRefPoint2 */
IP[ ]\011/* InterpolatePts */
PUSHW[ ]\011/* 3 values pushed */
9 1 4 
SRP1[ ]\011/* SetRefPoint1 */
SRP2[ ]\011/* SetRefPoint2 */
IP[ ]\011/* InterpolatePts */
IUP[0]\011/* InterpolateUntPts */
IUP[1]\011/* InterpolateUntPts */";
};
width = 84;
}
);
note = Icircumflex;
unicode = 00CE;
},
{
glyphname = Idieresis;
layers = (
{
layerId = "14B2064F-49AA-4860-BD4E-8ABAFB41335C";
paths = (
{
closed = 1;
nodes = (
"60 699 LINE",
"60 0 LINE",
"24 0 LINE",
"24 699 LINE"
);
},
{
closed = 1;
nodes = (
"26 825 LINE",
"1 825 LINE",
"1 762 LINE",
"26 762 LINE"
);
},
{
closed = 1;
nodes = (
"82 825 LINE",
"58 825 LINE",
"58 762 LINE",
"82 762 LINE"
);
}
);
userData = {
assembly = "PUSHW[ ]\011/* 1 value pushed */
12 
MDAP[1]\011/* MoveDirectAbsPt */
PUSHW[ ]\011/* 1 value pushed */
3 
MDAP[1]\011/* MoveDirectAbsPt */
PUSHW[ ]\011/* 1 value pushed */
12 
SRP0[ ]\011/* SetRefPoint0 */
PUSHW[ ]\011/* 1 value pushed */
5 
MDRP[10000]\011/* MoveDirectRelPt */
PUSHW[ ]\011/* 1 value pushed */
5 
MDAP[1]\011/* MoveDirectAbsPt */
PUSHW[ ]\011/* 2 values pushed */
0 5 
MIRP[10100]\011/* MoveIndirectRelPt */
PUSHW[ ]\011/* 1 value pushed */
7 
MDRP[10000]\011/* MoveDirectRelPt */
PUSHW[ ]\011/* 1 value pushed */
7 
MDAP[1]\011/* MoveDirectAbsPt */
PUSHW[ ]\011/* 1 value pushed */
3 
SRP0[ ]\011/* SetRefPoint0 */
PUSHW[ ]\011/* 2 values pushed */
8 5 
MIRP[10100]\011/* MoveIndirectRelPt */
PUSHW[ ]\011/* 1 value pushed */
3 
SRP0[ ]\011/* SetRefPoint0 */
PUSHW[ ]\011/* 1 value pushed */
10 
MDRP[10000]\011/* MoveDirectRelPt */
PUSHW[ ]\011/* 1 value pushed */
10 
MDAP[1]\011/* MoveDirectAbsPt */
PUSHW[ ]\011/* 1 value pushed */
8 
SRP0[ ]\011/* SetRefPoint0 */
PUSHW[ ]\011/* 1 value pushed */
13 
MDRP[11100]\011/* MoveDirectRelPt */
SVTCA[0]\011/* SetFreedomAndProjectionVectorToAxis */
PUSHW[ ]\011/* 1 value pushed */
6 
MDAP[1]\011/* MoveDirectAbsPt */
PUSHW[ ]\011/* 1 value pushed */
10 
MDAP[1]\011/* MoveDirectAbsPt */
PUSHW[ ]\011/* 1 value pushed */
0 
RCVT[ ]\011/* ReadCVT */
IF[ ]\011/* If */
PUSHW[ ]\011/* 1 value pushed */
0 
MDAP[1]\011/* MoveDirectAbsPt */
ELSE[ ]\011/* Else */
PUSHW[ ]\011/* 2 values pushed */
0 13 
MIAP[0]\011/* MoveIndirectAbsPt */
EIF[ ]\011/* EndIf */
PUSHW[ ]\011/* 1 value pushed */
0 
RCVT[ ]\011/* ReadCVT */
IF[ ]\011/* If */
PUSHW[ ]\011/* 1 value pushed */
1 
MDAP[1]\011/* MoveDirectAbsPt */
ELSE[ ]\011/* Else */
PUSHW[ ]\011/* 2 values pushed */
1 7 
MIAP[0]\011/* MoveIndirectAbsPt */
EIF[ ]\011/* EndIf */
IUP[0]\011/* InterpolateUntPts */
IUP[1]\011/* InterpolateUntPts */";
};
width = 84;
}
);
note = Idieresis;
unicode = 00CF;
},
{
glyphname = Idotaccent;
layers = (
{
layerId = "14B2064F-49AA-4860-BD4E-8ABAFB41335C";
paths = (
{
closed = 1;
nodes = (
"60 699 LINE",
"60 0 LINE",
"24 0 LINE",
"24 699 LINE"
);
},
{
closed = 1;
nodes = (
"53 825 LINE",
"29 825 LINE",
"29 762 LINE",
"53 762 LINE"
);
}
);
userData = {
assembly = "PUSHW[ ]\011/* 4 values pushed */
3 4 0 4 
CALL[ ]\011/* CallFunction */
PUSHW[ ]\011/* 1 value pushed */
3 
SRP0[ ]\011/* SetRefPoint0 */
PUSHW[ ]\011/* 1 value pushed */
4 
MDRP[10000]\011/* MoveDirectRelPt */
PUSHW[ ]\011/* 1 value pushed */
4 
MDAP[1]\011/* MoveDirectAbsPt */
PUSHW[ ]\011/* 1 value pushed */
0 
SRP0[ ]\011/* SetRefPoint0 */
PUSHW[ ]\011/* 1 value pushed */
5 
MDRP[10000]\011/* MoveDirectRelPt */
PUSHW[ ]\011/* 1 value pushed */
5 
MDAP[1]\011/* MoveDirectAbsPt */
SVTCA[0]\011/* SetFreedomAndProjectionVectorToAxis */
PUSHW[ ]\011/* 1 value pushed */
6 
MDAP[1]\011/* MoveDirectAbsPt */
PUSHW[ ]\011/* 1 value pushed */
0 
RCVT[ ]\011/* ReadCVT */
IF[ ]\011/* If */
PUSHW[ ]\011/* 1 value pushed */
0 
MDAP[1]\011/* MoveDirectAbsPt */
ELSE[ ]\011/* Else */
PUSHW[ ]\011/* 2 values pushed */
0 13 
MIAP[0]\011/* MoveIndirectAbsPt */
EIF[ ]\011/* EndIf */
PUSHW[ ]\011/* 1 value pushed */
0 
RCVT[ ]\011/* ReadCVT */
IF[ ]\011/* If */
PUSHW[ ]\011/* 1 value pushed */
1 
MDAP[1]\011/* MoveDirectAbsPt */
ELSE[ ]\011/* Else */
PUSHW[ ]\011/* 2 values pushed */
1 7 
MIAP[0]\011/* MoveIndirectAbsPt */
EIF[ ]\011/* EndIf */
IUP[0]\011/* InterpolateUntPts */
IUP[1]\011/* InterpolateUntPts */";
};
width = 84;
}
);
note = Idotaccent;
unicode = 0130;
},
{
glyphname = Igrave;
layers = (
{
layerId = "14B2064F-49AA-4860-BD4E-8ABAFB41335C";
paths = (
{
closed = 1;
nodes = (
"60 699 LINE",
"60 0 LINE",
"24 0 LINE",
"24 699 LINE"
);
},
{
closed = 1;
nodes = (
"54 747 LINE",
"8 833 LINE",
"-25 833 LINE",
"30 747 LINE"
);
}
);
userData = {
assembly = "PUSHW[ ]\011/* 4 values pushed */
3 4 0 4 
CALL[ ]\011/* CallFunction */
PUSHW[ ]\011/* 3 values pushed */
7 0 3 
SRP1[ ]\011/* SetRefPoint1 */
SRP2[ ]\011/* SetRefPoint2 */
IP[ ]\011/* InterpolatePts */
SVTCA[0]\011/* SetFreedomAndProjectionVectorToAxis */
PUSHW[ ]\011/* 1 value pushed */
5 
MDAP[1]\011/* MoveDirectAbsPt */
PUSHW[ ]\011/* 1 value pushed */
0 
RCVT[ ]\011/* ReadCVT */
IF[ ]\011/* If */
PUSHW[ ]\011/* 1 value pushed */
0 
MDAP[1]\011/* MoveDirectAbsPt */
ELSE[ ]\011/* Else */
PUSHW[ ]\011/* 2 values pushed */
0 13 
MIAP[0]\011/* MoveIndirectAbsPt */
EIF[ ]\011/* EndIf */
PUSHW[ ]\011/* 1 value pushed */
0 
RCVT[ ]\011/* ReadCVT */
IF[ ]\011/* If */
PUSHW[ ]\011/* 1 value pushed */
1 
MDAP[1]\011/* MoveDirectAbsPt */
ELSE[ ]\011/* Else */
PUSHW[ ]\011/* 2 values pushed */
1 7 
MIAP[0]\011/* MoveIndirectAbsPt */
EIF[ ]\011/* EndIf */
PUSHW[ ]\011/* 3 values pushed */
7 1 5 
SRP1[ ]\011/* SetRefPoint1 */
SRP2[ ]\011/* SetRefPoint2 */
IP[ ]\011/* InterpolatePts */
IUP[0]\011/* InterpolateUntPts */
IUP[1]\011/* InterpolateUntPts */";
};
width = 84;
}
);
note = Igrave;
unicode = 00CC;
},
{
glyphname = Imacron;
layers = (
{
layerId = "14B2064F-49AA-4860-BD4E-8ABAFB41335C";
paths = (
{
closed = 1;
nodes = (
"24 699 LINE",
"24 0 LINE",
"60 0 LINE",
"60 699 LINE"
);
},
{
closed = 1;
nodes = (
"98 806 LINE",
"-17 806 LINE",
"-17 781 LINE",
"98 781 LINE"
);
}
);
userData = {
assembly = "PUSHW[ ]\011/* 4 values pushed */
1 4 2 4 
CALL[ ]\011/* CallFunction */
SVTCA[0]\011/* SetFreedomAndProjectionVectorToAxis */
PUSHW[ ]\011/* 1 value pushed */
0 
RCVT[ ]\011/* ReadCVT */
IF[ ]\011/* If */
PUSHW[ ]\011/* 1 value pushed */
0 
MDAP[1]\011/* MoveDirectAbsPt */
ELSE[ ]\011/* Else */
PUSHW[ ]\011/* 2 values pushed */
0 13 
MIAP[0]\011/* MoveIndirectAbsPt */
EIF[ ]\011/* EndIf */
PUSHW[ ]\011/* 1 value pushed */
0 
RCVT[ ]\011/* ReadCVT */
IF[ ]\011/* If */
PUSHW[ ]\011/* 1 value pushed */
1 
MDAP[1]\011/* MoveDirectAbsPt */
ELSE[ ]\011/* Else */
PUSHW[ ]\011/* 2 values pushed */
1 7 
MIAP[0]\011/* MoveIndirectAbsPt */
EIF[ ]\011/* EndIf */
PUSHW[ ]\011/* 4 values pushed */
7 3 4 4 
CALL[ ]\011/* CallFunction */
IUP[0]\011/* InterpolateUntPts */
IUP[1]\011/* InterpolateUntPts */";
};
width = 84;
}
);
note = Imacron;
unicode = 012A;
},
{
glyphname = Iogonek;
layers = (
{
layerId = "14B2064F-49AA-4860-BD4E-8ABAFB41335C";
paths = (
{
closed = 1;
nodes = (
"78 -53 LINE",
"61.085 -81.191 OFFCURVE",
"23 -76.275 OFFCURVE",
"23 -45 CURVE SMOOTH",
"23 -29 OFFCURVE",
"37.667 -9.333 OFFCURVE",
"59 0 CURVE",
"60 0 LINE",
"60 699 LINE",
"24 699 LINE",
"24 0 LINE",
"31 0 LINE",
"13.667 -13.333 OFFCURVE",
"3 -29 OFFCURVE",
"3 -49 CURVE SMOOTH",
"3 -97.676 OFFCURVE",
"72.082 -104.242 OFFCURVE",
"91 -61 CURVE"
);
}
);
userData = {
assembly = "PUSHW[ ]\011/* 4 values pushed */
16 5 5 4 
CALL[ ]\011/* CallFunction */
NPUSHW[ ]\011/* 33 values pushed */
6 16 22 16 38 16 54 16 70 16 86 16 102 16 118 16 134 16 150 16 166 16 182 16 198 16 214 16 230 16 246 16 16 
DELTAP1[ ]\011/* DeltaExceptionP1 */
NPUSHW[ ]\011/* 33 values pushed */
6 16 22 16 38 16 54 16 70 16 86 16 102 16 118 16 134 16 150 16 166 16 182 16 198 16 214 16 230 16 246 16 16 
DELTAP2[ ]\011/* DeltaExceptionP2 */
NPUSHW[ ]\011/* 19 values pushed */
6 16 22 16 38 16 54 16 70 16 86 16 102 16 118 16 134 16 9 
DELTAP3[ ]\011/* DeltaExceptionP3 */
NPUSHW[ ]\011/* 5 values pushed */
149 16 165 16 2 
DELTAP3[ ]\011/* DeltaExceptionP3 */
PUSHW[ ]\011/* 1 value pushed */
16 
SRP0[ ]\011/* SetRefPoint0 */
PUSHW[ ]\011/* 2 values pushed */
12 4 
MIRP[10100]\011/* MoveIndirectRelPt */
PUSHW[ ]\011/* 3 values pushed */
8 16 12 
SRP1[ ]\011/* SetRefPoint1 */
SRP2[ ]\011/* SetRefPoint2 */
IP[ ]\011/* InterpolatePts */
PUSHW[ ]\011/* 1 value pushed */
16 
SRP0[ ]\011/* SetRefPoint0 */
PUSHW[ ]\011/* 1 value pushed */
9 
MDRP[10000]\011/* MoveDirectRelPt */
PUSHW[ ]\011/* 1 value pushed */
9 
MDAP[1]\011/* MoveDirectAbsPt */
SVTCA[0]\011/* SetFreedomAndProjectionVectorToAxis */
PUSHW[ ]\011/* 1 value pushed */
0 
RCVT[ ]\011/* ReadCVT */
IF[ ]\011/* If */
PUSHW[ ]\011/* 1 value pushed */
10 
MDAP[1]\011/* MoveDirectAbsPt */
ELSE[ ]\011/* Else */
PUSHW[ ]\011/* 2 values pushed */
10 13 
MIAP[0]\011/* MoveIndirectAbsPt */
EIF[ ]\011/* EndIf */
PUSHW[ ]\011/* 1 value pushed */
0 
RCVT[ ]\011/* ReadCVT */
IF[ ]\011/* If */
PUSHW[ ]\011/* 1 value pushed */
8 
MDAP[1]\011/* MoveDirectAbsPt */
ELSE[ ]\011/* Else */
PUSHW[ ]\011/* 2 values pushed */
8 7 
MIAP[0]\011/* MoveIndirectAbsPt */
EIF[ ]\011/* EndIf */
PUSHW[ ]\011/* 1 value pushed */
0 
RCVT[ ]\011/* ReadCVT */
IF[ ]\011/* If */
PUSHW[ ]\011/* 1 value pushed */
12 
MDAP[1]\011/* MoveDirectAbsPt */
ELSE[ ]\011/* Else */
PUSHW[ ]\011/* 2 values pushed */
12 7 
MIAP[0]\011/* MoveIndirectAbsPt */
EIF[ ]\011/* EndIf */
IUP[0]\011/* InterpolateUntPts */
IUP[1]\011/* InterpolateUntPts */";
};
width = 84;
}
);
note = Iogonek;
unicode = 012E;
},
{
glyphname = Itilde;
layers = (
{
layerId = "14B2064F-49AA-4860-BD4E-8ABAFB41335C";
paths = (
{
closed = 1;
nodes = (
"60 699 LINE",
"60 0 LINE",
"24 0 LINE",
"24 699 LINE"
);
},
{
closed = 1;
nodes = (
"-15 779 LINE",
"-6.333 788.333 OFFCURVE",
"3.667 793 OFFCURVE",
"15 793 CURVE SMOOTH",
"24.333 793 OFFCURVE",
"34 789.333 OFFCURVE",
"44 782 CURVE SMOOTH",
"54 774.667 OFFCURVE",
"64.667 771 OFFCURVE",
"76 771 CURVE SMOOTH",
"92 771 OFFCURVE",
"105.333 779 OFFCURVE",
"116 795 CURVE",
"99 806 LINE",
"91.667 796.667 OFFCURVE",
"82.667 792 OFFCURVE",
"72 792 CURVE SMOOTH",
"54.738 792 OFFCURVE",
"25.014 814 OFFCURVE",
"9 814 CURVE SMOOTH",
"-7.667 814 OFFCURVE",
"-20.667 806 OFFCURVE",
"-30 790 CURVE"
);
}
);
userData = {
assembly = "PUSHW[ ]\011/* 4 values pushed */
3 4 0 4 
CALL[ ]\011/* CallFunction */
SVTCA[0]\011/* SetFreedomAndProjectionVectorToAxis */
PUSHW[ ]\011/* 1 value pushed */
0 
RCVT[ ]\011/* ReadCVT */
IF[ ]\011/* If */
PUSHW[ ]\011/* 1 value pushed */
0 
MDAP[1]\011/* MoveDirectAbsPt */
ELSE[ ]\011/* Else */
PUSHW[ ]\011/* 2 values pushed */
0 13 
MIAP[0]\011/* MoveIndirectAbsPt */
EIF[ ]\011/* EndIf */
PUSHW[ ]\011/* 1 value pushed */
0 
RCVT[ ]\011/* ReadCVT */
IF[ ]\011/* If */
PUSHW[ ]\011/* 1 value pushed */
1 
MDAP[1]\011/* MoveDirectAbsPt */
ELSE[ ]\011/* Else */
PUSHW[ ]\011/* 2 values pushed */
1 7 
MIAP[0]\011/* MoveIndirectAbsPt */
EIF[ ]\011/* EndIf */
PUSHW[ ]\011/* 4 values pushed */
6 2 19 4 
CALL[ ]\011/* CallFunction */
PUSHW[ ]\011/* 1 value pushed */
19 
SRP0[ ]\011/* SetRefPoint0 */
PUSHW[ ]\011/* 1 value pushed */
11 
MDRP[10000]\011/* MoveDirectRelPt */
PUSHW[ ]\011/* 1 value pushed */
11 
MDAP[1]\011/* MoveDirectAbsPt */
PUSHW[ ]\011/* 2 values pushed */
16 2 
MIRP[10100]\011/* MoveIndirectRelPt */
IUP[0]\011/* InterpolateUntPts */
IUP[1]\011/* InterpolateUntPts */";
};
width = 84;
}
);
note = Itilde;
unicode = 0128;
},
{
glyphname = J;
layers = (
{
layerId = "14B2064F-49AA-4860-BD4E-8ABAFB41335C";
paths = (
{
closed = 1;
nodes = (
"109 -6 LINE SMOOTH",
"145 -6 OFFCURVE",
"183 19.333 OFFCURVE",
"183 82 CURVE SMOOTH",
"183 699 LINE",
"148 699 LINE",
"148 87 LINE SMOOTH",
"148 41.667 OFFCURVE",
"127.333 24 OFFCURVE",
"106 24 CURVE SMOOTH",
"98 24 LINE SMOOTH",
"78 24 OFFCURVE",
"57 41.667 OFFCURVE",
"57 87 CURVE SMOOTH",
"57 281 LINE",
"21 281 LINE",
"21 82 LINE SMOOTH",
"21 24.579 OFFCURVE",
"54.357 -6 OFFCURVE",
"95 -6 CURVE SMOOTH"
);
}
);
userData = {
assembly = "PUSHW[ ]\011/* 1 value pushed */
22 
MDAP[1]\011/* MoveDirectAbsPt */
PUSHW[ ]\011/* 1 value pushed */
15 
MDAP[1]\011/* MoveDirectAbsPt */
PUSHW[ ]\011/* 1 value pushed */
22 
SRP0[ ]\011/* SetRefPoint0 */
PUSHW[ ]\011/* 1 value pushed */
5 
MDRP[10000]\011/* MoveDirectRelPt */
PUSHW[ ]\011/* 1 value pushed */
5 
MDAP[1]\011/* MoveDirectAbsPt */
PUSHW[ ]\011/* 2 values pushed */
8 4 
MIRP[10100]\011/* MoveIndirectRelPt */
PUSHW[ ]\011/* 1 value pushed */
15 
SRP0[ ]\011/* SetRefPoint0 */
PUSHW[ ]\011/* 2 values pushed */
18 4 
MIRP[10100]\011/* MoveIndirectRelPt */
PUSHW[ ]\011/* 1 value pushed */
23 
MDRP[11100]\011/* MoveDirectRelPt */
SVTCA[0]\011/* SetFreedomAndProjectionVectorToAxis */
PUSHW[ ]\011/* 1 value pushed */
0 
RCVT[ ]\011/* ReadCVT */
IF[ ]\011/* If */
PUSHW[ ]\011/* 1 value pushed */
16 
MDAP[1]\011/* MoveDirectAbsPt */
ELSE[ ]\011/* Else */
PUSHW[ ]\011/* 2 values pushed */
16 13 
MIAP[0]\011/* MoveIndirectAbsPt */
EIF[ ]\011/* EndIf */
PUSHW[ ]\011/* 1 value pushed */
0 
RCVT[ ]\011/* ReadCVT */
IF[ ]\011/* If */
PUSHW[ ]\011/* 1 value pushed */
0 
MDAP[1]\011/* MoveDirectAbsPt */
ELSE[ ]\011/* Else */
PUSHW[ ]\011/* 2 values pushed */
0 7 
MIAP[0]\011/* MoveIndirectAbsPt */
EIF[ ]\011/* EndIf */
PUSHW[ ]\011/* 2 values pushed */
11 1 
MIRP[10100]\011/* MoveIndirectRelPt */
IUP[0]\011/* InterpolateUntPts */
IUP[1]\011/* InterpolateUntPts */";
};
width = 205;
}
);
note = J;
unicode = 004A;
},
{
glyphname = Jcircumflex;
layers = (
{
layerId = "14B2064F-49AA-4860-BD4E-8ABAFB41335C";
paths = (
{
closed = 1;
nodes = (
"109 -6 LINE SMOOTH",
"145 -6 OFFCURVE",
"183 19.333 OFFCURVE",
"183 82 CURVE SMOOTH",
"183 699 LINE",
"148 699 LINE",
"148 87 LINE SMOOTH",
"148 41.667 OFFCURVE",
"127.333 24 OFFCURVE",
"106 24 CURVE SMOOTH",
"98 24 LINE SMOOTH",
"78 24 OFFCURVE",
"57 41.667 OFFCURVE",
"57 87 CURVE SMOOTH",
"57 281 LINE",
"21 281 LINE",
"21 82 LINE SMOOTH",
"21 24.579 OFFCURVE",
"54.357 -6 OFFCURVE",
"95 -6 CURVE SMOOTH"
);
},
{
closed = 1;
nodes = (
"149 824 LINE",
"94 738 LINE",
"127 738 LINE",
"166 806 LINE",
"205 738 LINE",
"238 738 LINE",
"183 824 LINE"
);
}
);
userData = {
assembly = "PUSHW[ ]\011/* 1 value pushed */
29 
MDAP[1]\011/* MoveDirectAbsPt */
PUSHW[ ]\011/* 1 value pushed */
15 
MDAP[1]\011/* MoveDirectAbsPt */
PUSHW[ ]\011/* 1 value pushed */
29 
SRP0[ ]\011/* SetRefPoint0 */
PUSHW[ ]\011/* 1 value pushed */
5 
MDRP[10000]\011/* MoveDirectRelPt */
PUSHW[ ]\011/* 1 value pushed */
5 
MDAP[1]\011/* MoveDirectAbsPt */
PUSHW[ ]\011/* 2 values pushed */
8 4 
MIRP[10100]\011/* MoveIndirectRelPt */
PUSHW[ ]\011/* 1 value pushed */
15 
SRP0[ ]\011/* SetRefPoint0 */
PUSHW[ ]\011/* 2 values pushed */
18 4 
MIRP[10100]\011/* MoveIndirectRelPt */
PUSHW[ ]\011/* 1 value pushed */
22 
MDRP[10000]\011/* MoveDirectRelPt */
PUSHW[ ]\011/* 3 values pushed */
25 15 18 
SRP1[ ]\011/* SetRefPoint1 */
SRP2[ ]\011/* SetRefPoint2 */
IP[ ]\011/* InterpolatePts */
PUSHW[ ]\011/* 3 values pushed */
27 5 18 
SRP1[ ]\011/* SetRefPoint1 */
SRP2[ ]\011/* SetRefPoint2 */
IP[ ]\011/* InterpolatePts */
PUSHW[ ]\011/* 1 value pushed */
15 
SRP0[ ]\011/* SetRefPoint0 */
PUSHW[ ]\011/* 1 value pushed */
28 
MDRP[10000]\011/* MoveDirectRelPt */
PUSHW[ ]\011/* 1 value pushed */
28 
MDAP[1]\011/* MoveDirectAbsPt */
PUSHW[ ]\011/* 1 value pushed */
18 
SRP0[ ]\011/* SetRefPoint0 */
PUSHW[ ]\011/* 1 value pushed */
30 
MDRP[11100]\011/* MoveDirectRelPt */
SVTCA[0]\011/* SetFreedomAndProjectionVectorToAxis */
PUSHW[ ]\011/* 1 value pushed */
22 
MDAP[1]\011/* MoveDirectAbsPt */
PUSHW[ ]\011/* 1 value pushed */
0 
RCVT[ ]\011/* ReadCVT */
IF[ ]\011/* If */
PUSHW[ ]\011/* 1 value pushed */
16 
MDAP[1]\011/* MoveDirectAbsPt */
ELSE[ ]\011/* Else */
PUSHW[ ]\011/* 2 values pushed */
16 13 
MIAP[0]\011/* MoveIndirectAbsPt */
EIF[ ]\011/* EndIf */
PUSHW[ ]\011/* 1 value pushed */
0 
RCVT[ ]\011/* ReadCVT */
IF[ ]\011/* If */
PUSHW[ ]\011/* 1 value pushed */
0 
MDAP[1]\011/* MoveDirectAbsPt */
ELSE[ ]\011/* Else */
PUSHW[ ]\011/* 2 values pushed */
0 7 
MIAP[0]\011/* MoveIndirectAbsPt */
EIF[ ]\011/* EndIf */
PUSHW[ ]\011/* 2 values pushed */
11 1 
MIRP[10100]\011/* MoveIndirectRelPt */
PUSHW[ ]\011/* 3 values pushed */
23 0 22 
SRP1[ ]\011/* SetRefPoint1 */
SRP2[ ]\011/* SetRefPoint2 */
IP[ ]\011/* InterpolatePts */
PUSHW[ ]\011/* 3 values pushed */
25 0 22 
SRP1[ ]\011/* SetRefPoint1 */
SRP2[ ]\011/* SetRefPoint2 */
IP[ ]\011/* InterpolatePts */
PUSHW[ ]\011/* 3 values pushed */
27 0 22 
SRP1[ ]\011/* SetRefPoint1 */
SRP2[ ]\011/* SetRefPoint2 */
IP[ ]\011/* InterpolatePts */
IUP[0]\011/* InterpolateUntPts */
IUP[1]\011/* InterpolateUntPts */";
};
width = 205;
}
);
note = Jcircumflex;
unicode = 0134;
},
{
glyphname = K;
layers = (
{
layerId = "14B2064F-49AA-4860-BD4E-8ABAFB41335C";
paths = (
{
closed = 1;
nodes = (
"197 699 LINE",
"164 699 LINE",
"60 398 LINE",
"60 699 LINE",
"24 699 LINE",
"24 0 LINE",
"60 0 LINE",
"60 317 LINE",
"162 0 LINE",
"195 0 LINE",
"85 364 LINE"
);
}
);
userData = {
assembly = "PUSHW[ ]\011/* 4 values pushed */
4 4 5 4 
CALL[ ]\011/* CallFunction */
PUSHW[ ]\011/* 1 value pushed */
4 
SRP0[ ]\011/* SetRefPoint0 */
PUSHW[ ]\011/* 1 value pushed */
7 
MDRP[10000]\011/* MoveDirectRelPt */
SVTCA[0]\011/* SetFreedomAndProjectionVectorToAxis */
PUSHW[ ]\011/* 1 value pushed */
0 
RCVT[ ]\011/* ReadCVT */
IF[ ]\011/* If */
PUSHW[ ]\011/* 1 value pushed */
6 
MDAP[1]\011/* MoveDirectAbsPt */
ELSE[ ]\011/* Else */
PUSHW[ ]\011/* 2 values pushed */
6 13 
MIAP[0]\011/* MoveIndirectAbsPt */
EIF[ ]\011/* EndIf */
PUSHW[ ]\011/* 1 value pushed */
0 
RCVT[ ]\011/* ReadCVT */
IF[ ]\011/* If */
PUSHW[ ]\011/* 1 value pushed */
9 
MDAP[1]\011/* MoveDirectAbsPt */
ELSE[ ]\011/* Else */
PUSHW[ ]\011/* 2 values pushed */
9 13 
MIAP[0]\011/* MoveIndirectAbsPt */
EIF[ ]\011/* EndIf */
PUSHW[ ]\011/* 1 value pushed */
0 
RCVT[ ]\011/* ReadCVT */
IF[ ]\011/* If */
PUSHW[ ]\011/* 1 value pushed */
1 
MDAP[1]\011/* MoveDirectAbsPt */
ELSE[ ]\011/* Else */
PUSHW[ ]\011/* 2 values pushed */
1 7 
MIAP[0]\011/* MoveIndirectAbsPt */
EIF[ ]\011/* EndIf */
PUSHW[ ]\011/* 1 value pushed */
0 
RCVT[ ]\011/* ReadCVT */
IF[ ]\011/* If */
PUSHW[ ]\011/* 1 value pushed */
4 
MDAP[1]\011/* MoveDirectAbsPt */
ELSE[ ]\011/* Else */
PUSHW[ ]\011/* 2 values pushed */
4 7 
MIAP[0]\011/* MoveIndirectAbsPt */
EIF[ ]\011/* EndIf */
PUSHW[ ]\011/* 3 values pushed */
3 1 6 
SRP1[ ]\011/* SetRefPoint1 */
SRP2[ ]\011/* SetRefPoint2 */
IP[ ]\011/* InterpolatePts */
PUSHW[ ]\011/* 3 values pushed */
8 1 6 
SRP1[ ]\011/* SetRefPoint1 */
SRP2[ ]\011/* SetRefPoint2 */
IP[ ]\011/* InterpolatePts */
IUP[0]\011/* InterpolateUntPts */
IUP[1]\011/* InterpolateUntPts */";
};
width = 201;
}
);
note = K;
unicode = 004B;
},
{
glyphname = Kcommaaccent;
layers = (
{
layerId = "14B2064F-49AA-4860-BD4E-8ABAFB41335C";
paths = (
{
closed = 1;
nodes = (
"197 699 LINE",
"164 699 LINE",
"60 398 LINE",
"60 699 LINE",
"24 699 LINE",
"24 0 LINE",
"60 0 LINE",
"60 317 LINE",
"162 0 LINE",
"195 0 LINE",
"85 364 LINE"
);
},
{
closed = 1;
nodes = (
"129 -9 LINE",
"92 -9 LINE",
"92 -84 LINE",
"108 -84 LINE",
"93 -140 LINE",
"109 -140 LINE",
"129 -84 LINE"
);
}
);
userData = {
assembly = "PUSHW[ ]\011/* 1 value pushed */
18 
MDAP[1]\011/* MoveDirectAbsPt */
PUSHW[ ]\011/* 1 value pushed */
15 
MDAP[1]\011/* MoveDirectAbsPt */
PUSHW[ ]\011/* 1 value pushed */
0 
MDRP[10000]\011/* MoveDirectRelPt */
PUSHW[ ]\011/* 1 value pushed */
0 
MDAP[1]\011/* MoveDirectAbsPt */
PUSHW[ ]\011/* 1 value pushed */
18 
SRP0[ ]\011/* SetRefPoint0 */
PUSHW[ ]\011/* 1 value pushed */
5 
MDRP[10000]\011/* MoveDirectRelPt */
PUSHW[ ]\011/* 1 value pushed */
5 
MDAP[1]\011/* MoveDirectAbsPt */
PUSHW[ ]\011/* 2 values pushed */
4 4 
MIRP[10100]\011/* MoveIndirectRelPt */
PUSHW[ ]\011/* 1 value pushed */
7 
MDRP[10000]\011/* MoveDirectRelPt */
PUSHW[ ]\011/* 1 value pushed */
15 
SRP0[ ]\011/* SetRefPoint0 */
PUSHW[ ]\011/* 2 values pushed */
11 4 
MIRP[10100]\011/* MoveIndirectRelPt */
PUSHW[ ]\011/* 3 values pushed */
8 5 11 
SRP1[ ]\011/* SetRefPoint1 */
SRP2[ ]\011/* SetRefPoint2 */
IP[ ]\011/* InterpolatePts */
PUSHW[ ]\011/* 1 value pushed */
15 
SRP0[ ]\011/* SetRefPoint0 */
PUSHW[ ]\011/* 1 value pushed */
13 
MDRP[10000]\011/* MoveDirectRelPt */
PUSHW[ ]\011/* 1 value pushed */
13 
MDAP[1]\011/* MoveDirectAbsPt */
SVTCA[0]\011/* SetFreedomAndProjectionVectorToAxis */
PUSHW[ ]\011/* 1 value pushed */
12 
MDAP[1]\011/* MoveDirectAbsPt */
PUSHW[ ]\011/* 1 value pushed */
0 
RCVT[ ]\011/* ReadCVT */
IF[ ]\011/* If */
PUSHW[ ]\011/* 1 value pushed */
6 
MDAP[1]\011/* MoveDirectAbsPt */
ELSE[ ]\011/* Else */
PUSHW[ ]\011/* 2 values pushed */
6 13 
MIAP[0]\011/* MoveIndirectAbsPt */
EIF[ ]\011/* EndIf */
PUSHW[ ]\011/* 1 value pushed */
0 
RCVT[ ]\011/* ReadCVT */
IF[ ]\011/* If */
PUSHW[ ]\011/* 1 value pushed */
9 
MDAP[1]\011/* MoveDirectAbsPt */
ELSE[ ]\011/* Else */
PUSHW[ ]\011/* 2 values pushed */
9 13 
MIAP[0]\011/* MoveIndirectAbsPt */
EIF[ ]\011/* EndIf */
PUSHW[ ]\011/* 1 value pushed */
0 
RCVT[ ]\011/* ReadCVT */
IF[ ]\011/* If */
PUSHW[ ]\011/* 1 value pushed */
1 
MDAP[1]\011/* MoveDirectAbsPt */
ELSE[ ]\011/* Else */
PUSHW[ ]\011/* 2 values pushed */
1 7 
MIAP[0]\011/* MoveIndirectAbsPt */
EIF[ ]\011/* EndIf */
PUSHW[ ]\011/* 1 value pushed */
0 
RCVT[ ]\011/* ReadCVT */
IF[ ]\011/* If */
PUSHW[ ]\011/* 1 value pushed */
4 
MDAP[1]\011/* MoveDirectAbsPt */
ELSE[ ]\011/* Else */
PUSHW[ ]\011/* 2 values pushed */
4 7 
MIAP[0]\011/* MoveIndirectAbsPt */
EIF[ ]\011/* EndIf */
PUSHW[ ]\011/* 3 values pushed */
3 12 6 
SRP1[ ]\011/* SetRefPoint1 */
SRP2[ ]\011/* SetRefPoint2 */
IP[ ]\011/* InterpolatePts */
PUSHW[ ]\011/* 3 values pushed */
8 12 6 
SRP1[ ]\011/* SetRefPoint1 */
SRP2[ ]\011/* SetRefPoint2 */
IP[ ]\011/* InterpolatePts */
PUSHW[ ]\011/* 3 values pushed */
14 12 6 
SRP1[ ]\011/* SetRefPoint1 */
SRP2[ ]\011/* SetRefPoint2 */
IP[ ]\011/* InterpolatePts */
IUP[0]\011/* InterpolateUntPts */
IUP[1]\011/* InterpolateUntPts */";
};
width = 201;
}
);
note = uni0136;
unicode = 0136;
},
{
glyphname = L;
layers = (
{
layerId = "14B2064F-49AA-4860-BD4E-8ABAFB41335C";
paths = (
{
closed = 1;
nodes = (
"24 699 LINE",
"24 0 LINE",
"147 0 LINE",
"147 27 LINE",
"60 27 LINE",
"60 699 LINE"
);
}
);
userData = {
assembly = "PUSHW[ ]\011/* 4 values pushed */
1 4 4 4 
CALL[ ]\011/* CallFunction */
SVTCA[0]\011/* SetFreedomAndProjectionVectorToAxis */
PUSHW[ ]\011/* 1 value pushed */
0 
RCVT[ ]\011/* ReadCVT */
IF[ ]\011/* If */
PUSHW[ ]\011/* 1 value pushed */
0 
MDAP[1]\011/* MoveDirectAbsPt */
ELSE[ ]\011/* Else */
PUSHW[ ]\011/* 2 values pushed */
0 13 
MIAP[0]\011/* MoveIndirectAbsPt */
EIF[ ]\011/* EndIf */
PUSHW[ ]\011/* 1 value pushed */
0 
RCVT[ ]\011/* ReadCVT */
IF[ ]\011/* If */
PUSHW[ ]\011/* 1 value pushed */
3 
MDAP[1]\011/* MoveDirectAbsPt */
ELSE[ ]\011/* Else */
PUSHW[ ]\011/* 2 values pushed */
3 7 
MIAP[0]\011/* MoveIndirectAbsPt */
EIF[ ]\011/* EndIf */
PUSHW[ ]\011/* 2 values pushed */
1 3 
MIRP[10100]\011/* MoveIndirectRelPt */
IUP[0]\011/* InterpolateUntPts */
IUP[1]\011/* InterpolateUntPts */";
};
width = 151;
}
);
note = L;
unicode = 004C;
},
{
glyphname = Lacute;
layers = (
{
layerId = "14B2064F-49AA-4860-BD4E-8ABAFB41335C";
paths = (
{
closed = 1;
nodes = (
"24 699 LINE",
"24 0 LINE",
"147 0 LINE",
"147 27 LINE",
"60 27 LINE",
"60 699 LINE"
);
},
{
closed = 1;
nodes = (
"53 738 LINE",
"108 824 LINE",
"76 824 LINE",
"30 738 LINE"
);
}
);
userData = {
assembly = "PUSHW[ ]\011/* 4 values pushed */
1 4 4 4 
CALL[ ]\011/* CallFunction */
PUSHW[ ]\011/* 3 values pushed */
6 4 1 
SRP1[ ]\011/* SetRefPoint1 */
SRP2[ ]\011/* SetRefPoint2 */
IP[ ]\011/* InterpolatePts */
SVTCA[0]\011/* SetFreedomAndProjectionVectorToAxis */
PUSHW[ ]\011/* 1 value pushed */
7 
MDAP[1]\011/* MoveDirectAbsPt */
PUSHW[ ]\011/* 1 value pushed */
0 
RCVT[ ]\011/* ReadCVT */
IF[ ]\011/* If */
PUSHW[ ]\011/* 1 value pushed */
0 
MDAP[1]\011/* MoveDirectAbsPt */
ELSE[ ]\011/* Else */
PUSHW[ ]\011/* 2 values pushed */
0 13 
MIAP[0]\011/* MoveIndirectAbsPt */
EIF[ ]\011/* EndIf */
PUSHW[ ]\011/* 1 value pushed */
0 
RCVT[ ]\011/* ReadCVT */
IF[ ]\011/* If */
PUSHW[ ]\011/* 1 value pushed */
3 
MDAP[1]\011/* MoveDirectAbsPt */
ELSE[ ]\011/* Else */
PUSHW[ ]\011/* 2 values pushed */
3 7 
MIAP[0]\011/* MoveIndirectAbsPt */
EIF[ ]\011/* EndIf */
PUSHW[ ]\011/* 2 values pushed */
1 3 
MIRP[10100]\011/* MoveIndirectRelPt */
PUSHW[ ]\011/* 3 values pushed */
6 3 7 
SRP1[ ]\011/* SetRefPoint1 */
SRP2[ ]\011/* SetRefPoint2 */
IP[ ]\011/* InterpolatePts */
IUP[0]\011/* InterpolateUntPts */
IUP[1]\011/* InterpolateUntPts */";
};
width = 151;
}
);
note = Lacute;
unicode = 0139;
},
{
glyphname = Lcaron;
layers = (
{
layerId = "14B2064F-49AA-4860-BD4E-8ABAFB41335C";
paths = (
{
closed = 1;
nodes = (
"60 699 LINE",
"60 27 LINE",
"147 27 LINE",
"147 0 LINE",
"24 0 LINE",
"24 699 LINE"
);
},
{
closed = 1;
nodes = (
"141 700 LINE",
"105 700 LINE",
"105 625 LINE",
"120 625 LINE",
"105 569 LINE",
"122 569 LINE",
"141 625 LINE"
);
}
);
userData = {
assembly = "PUSHW[ ]\011/* 1 value pushed */
13 
MDAP[1]\011/* MoveDirectAbsPt */
PUSHW[ ]\011/* 1 value pushed */
10 
MDAP[1]\011/* MoveDirectAbsPt */
PUSHW[ ]\011/* 1 value pushed */
13 
SRP0[ ]\011/* SetRefPoint0 */
PUSHW[ ]\011/* 1 value pushed */
0 
MDRP[10000]\011/* MoveDirectRelPt */
PUSHW[ ]\011/* 1 value pushed */
0 
MDAP[1]\011/* MoveDirectAbsPt */
PUSHW[ ]\011/* 1 value pushed */
10 
SRP0[ ]\011/* SetRefPoint0 */
PUSHW[ ]\011/* 2 values pushed */
6 4 
MIRP[10100]\011/* MoveIndirectRelPt */
PUSHW[ ]\011/* 1 value pushed */
2 
MDRP[10000]\011/* MoveDirectRelPt */
PUSHW[ ]\011/* 1 value pushed */
2 
MDAP[1]\011/* MoveDirectAbsPt */
PUSHW[ ]\011/* 1 value pushed */
0 
SRP0[ ]\011/* SetRefPoint0 */
PUSHW[ ]\011/* 2 values pushed */
5 4 
MIRP[10100]\011/* MoveIndirectRelPt */
PUSHW[ ]\011/* 1 value pushed */
10 
SRP0[ ]\011/* SetRefPoint0 */
PUSHW[ ]\011/* 1 value pushed */
8 
MDRP[10000]\011/* MoveDirectRelPt */
PUSHW[ ]\011/* 1 value pushed */
6 
SRP0[ ]\011/* SetRefPoint0 */
PUSHW[ ]\011/* 1 value pushed */
14 
MDRP[11100]\011/* MoveDirectRelPt */
SVTCA[0]\011/* SetFreedomAndProjectionVectorToAxis */
PUSHW[ ]\011/* 1 value pushed */
0 
RCVT[ ]\011/* ReadCVT */
IF[ ]\011/* If */
PUSHW[ ]\011/* 1 value pushed */
0 
MDAP[1]\011/* MoveDirectAbsPt */
ELSE[ ]\011/* Else */
PUSHW[ ]\011/* 2 values pushed */
0 13 
MIAP[0]\011/* MoveIndirectAbsPt */
EIF[ ]\011/* EndIf */
PUSHW[ ]\011/* 1 value pushed */
0 
RCVT[ ]\011/* ReadCVT */
IF[ ]\011/* If */
PUSHW[ ]\011/* 1 value pushed */
11 
MDAP[1]\011/* MoveDirectAbsPt */
ELSE[ ]\011/* Else */
PUSHW[ ]\011/* 2 values pushed */
11 13 
MIAP[0]\011/* MoveIndirectAbsPt */
EIF[ ]\011/* EndIf */
PUSHW[ ]\011/* 1 value pushed */
0 
RCVT[ ]\011/* ReadCVT */
IF[ ]\011/* If */
PUSHW[ ]\011/* 1 value pushed */
1 
MDAP[1]\011/* MoveDirectAbsPt */
ELSE[ ]\011/* Else */
PUSHW[ ]\011/* 2 values pushed */
1 7 
MIAP[0]\011/* MoveIndirectAbsPt */
EIF[ ]\011/* EndIf */
PUSHW[ ]\011/* 2 values pushed */
3 3 
MIRP[10100]\011/* MoveIndirectRelPt */
PUSHW[ ]\011/* 3 values pushed */
8 1 11 
SRP1[ ]\011/* SetRefPoint1 */
SRP2[ ]\011/* SetRefPoint2 */
IP[ ]\011/* InterpolatePts */
PUSHW[ ]\011/* 3 values pushed */
9 1 11 
SRP1[ ]\011/* SetRefPoint1 */
SRP2[ ]\011/* SetRefPoint2 */
IP[ ]\011/* InterpolatePts */
IUP[0]\011/* InterpolateUntPts */
IUP[1]\011/* InterpolateUntPts */";
};
width = 173;
}
);
note = Lcaron;
unicode = 013D;
},
{
glyphname = Lcommaaccent;
layers = (
{
layerId = "14B2064F-49AA-4860-BD4E-8ABAFB41335C";
paths = (
{
closed = 1;
nodes = (
"24 699 LINE",
"24 0 LINE",
"147 0 LINE",
"147 27 LINE",
"60 27 LINE",
"60 699 LINE"
);
},
{
closed = 1;
nodes = (
"102 -30 LINE",
"66 -30 LINE",
"66 -105 LINE",
"82 -105 LINE",
"67 -161 LINE",
"83 -161 LINE",
"102 -105 LINE"
);
}
);
userData = {
assembly = "PUSHW[ ]\011/* 1 value pushed */
13 
MDAP[1]\011/* MoveDirectAbsPt */
PUSHW[ ]\011/* 1 value pushed */
10 
MDAP[1]\011/* MoveDirectAbsPt */
PUSHW[ ]\011/* 1 value pushed */
13 
SRP0[ ]\011/* SetRefPoint0 */
PUSHW[ ]\011/* 1 value pushed */
4 
MDRP[10000]\011/* MoveDirectRelPt */
PUSHW[ ]\011/* 1 value pushed */
4 
MDAP[1]\011/* MoveDirectAbsPt */
PUSHW[ ]\011/* 2 values pushed */
1 4 
MIRP[10100]\011/* MoveIndirectRelPt */
PUSHW[ ]\011/* 1 value pushed */
10 
SRP0[ ]\011/* SetRefPoint0 */
PUSHW[ ]\011/* 2 values pushed */
6 4 
MIRP[10100]\011/* MoveIndirectRelPt */
PUSHW[ ]\011/* 1 value pushed */
1 
SRP0[ ]\011/* SetRefPoint0 */
PUSHW[ ]\011/* 1 value pushed */
8 
MDRP[10000]\011/* MoveDirectRelPt */
PUSHW[ ]\011/* 1 value pushed */
8 
MDAP[1]\011/* MoveDirectAbsPt */
PUSHW[ ]\011/* 1 value pushed */
1 
SRP0[ ]\011/* SetRefPoint0 */
PUSHW[ ]\011/* 1 value pushed */
11 
MDRP[10000]\011/* MoveDirectRelPt */
PUSHW[ ]\011/* 1 value pushed */
11 
MDAP[1]\011/* MoveDirectAbsPt */
SVTCA[0]\011/* SetFreedomAndProjectionVectorToAxis */
PUSHW[ ]\011/* 1 value pushed */
7 
MDAP[1]\011/* MoveDirectAbsPt */
PUSHW[ ]\011/* 1 value pushed */
0 
RCVT[ ]\011/* ReadCVT */
IF[ ]\011/* If */
PUSHW[ ]\011/* 1 value pushed */
0 
MDAP[1]\011/* MoveDirectAbsPt */
ELSE[ ]\011/* Else */
PUSHW[ ]\011/* 2 values pushed */
0 13 
MIAP[0]\011/* MoveIndirectAbsPt */
EIF[ ]\011/* EndIf */
PUSHW[ ]\011/* 1 value pushed */
0 
RCVT[ ]\011/* ReadCVT */
IF[ ]\011/* If */
PUSHW[ ]\011/* 1 value pushed */
3 
MDAP[1]\011/* MoveDirectAbsPt */
ELSE[ ]\011/* Else */
PUSHW[ ]\011/* 2 values pushed */
3 7 
MIAP[0]\011/* MoveIndirectAbsPt */
EIF[ ]\011/* EndIf */
PUSHW[ ]\011/* 2 values pushed */
1 3 
MIRP[10100]\011/* MoveIndirectRelPt */
PUSHW[ ]\011/* 3 values pushed */
9 7 0 
SRP1[ ]\011/* SetRefPoint1 */
SRP2[ ]\011/* SetRefPoint2 */
IP[ ]\011/* InterpolatePts */
IUP[0]\011/* InterpolateUntPts */
IUP[1]\011/* InterpolateUntPts */";
};
width = 151;
}
);
note = uni013B;
unicode = 013B;
},
{
glyphname = Ldot;
layers = (
{
layerId = "14B2064F-49AA-4860-BD4E-8ABAFB41335C";
paths = (
{
closed = 1;
nodes = (
"24 699 LINE",
"24 0 LINE",
"147 0 LINE",
"147 27 LINE",
"60 27 LINE",
"60 699 LINE"
);
},
{
closed = 1;
nodes = (
"167 333 LINE",
"130 333 LINE",
"130 258 LINE",
"167 258 LINE"
);
}
);
userData = {
assembly = "PUSHW[ ]\011/* 1 value pushed */
10 
MDAP[1]\011/* MoveDirectAbsPt */
PUSHW[ ]\011/* 1 value pushed */
7 
MDAP[1]\011/* MoveDirectAbsPt */
PUSHW[ ]\011/* 1 value pushed */
10 
SRP0[ ]\011/* SetRefPoint0 */
PUSHW[ ]\011/* 1 value pushed */
4 
MDRP[10000]\011/* MoveDirectRelPt */
PUSHW[ ]\011/* 1 value pushed */
4 
MDAP[1]\011/* MoveDirectAbsPt */
PUSHW[ ]\011/* 2 values pushed */
1 4 
MIRP[10100]\011/* MoveIndirectRelPt */
PUSHW[ ]\011/* 1 value pushed */
7 
SRP0[ ]\011/* SetRefPoint0 */
PUSHW[ ]\011/* 2 values pushed */
6 4 
MIRP[10100]\011/* MoveIndirectRelPt */
PUSHW[ ]\011/* 1 value pushed */
11 
MDRP[11100]\011/* MoveDirectRelPt */
SVTCA[0]\011/* SetFreedomAndProjectionVectorToAxis */
PUSHW[ ]\011/* 1 value pushed */
0 
RCVT[ ]\011/* ReadCVT */
IF[ ]\011/* If */
PUSHW[ ]\011/* 1 value pushed */
0 
MDAP[1]\011/* MoveDirectAbsPt */
ELSE[ ]\011/* Else */
PUSHW[ ]\011/* 2 values pushed */
0 13 
MIAP[0]\011/* MoveIndirectAbsPt */
EIF[ ]\011/* EndIf */
PUSHW[ ]\011/* 1 value pushed */
0 
RCVT[ ]\011/* ReadCVT */
IF[ ]\011/* If */
PUSHW[ ]\011/* 1 value pushed */
3 
MDAP[1]\011/* MoveDirectAbsPt */
ELSE[ ]\011/* Else */
PUSHW[ ]\011/* 2 values pushed */
3 7 
MIAP[0]\011/* MoveIndirectAbsPt */
EIF[ ]\011/* EndIf */
PUSHW[ ]\011/* 2 values pushed */
1 3 
MIRP[10100]\011/* MoveIndirectRelPt */
IUP[0]\011/* InterpolateUntPts */
IUP[1]\011/* InterpolateUntPts */";
};
width = 179;
}
);
note = Ldot;
unicode = 013F;
},
{
glyphname = Lslash;
layers = (
{
layerId = "14B2064F-49AA-4860-BD4E-8ABAFB41335C";
paths = (
{
closed = 1;
nodes = (
"62 699 LINE",
"62 360 LINE",
"3 318 LINE",
"16 296 LINE",
"62 329 LINE",
"62 0 LINE",
"186 0 LINE",
"186 27 LINE",
"98 27 LINE",
"98 355 LINE",
"177 412 LINE",
"165 433 LINE",
"98 385 LINE",
"98 699 LINE"
);
}
);
userData = {
assembly = "PUSHW[ ]\011/* 4 values pushed */
5 4 8 4 
CALL[ ]\011/* CallFunction */
PUSHW[ ]\011/* 1 value pushed */
5 
SRP0[ ]\011/* SetRefPoint0 */
PUSHW[ ]\011/* 1 value pushed */
0 
MDRP[10000]\011/* MoveDirectRelPt */
PUSHW[ ]\011/* 1 value pushed */
8 
SRP0[ ]\011/* SetRefPoint0 */
PUSHW[ ]\011/* 1 value pushed */
12 
MDRP[10000]\011/* MoveDirectRelPt */
SVTCA[0]\011/* SetFreedomAndProjectionVectorToAxis */
PUSHW[ ]\011/* 1 value pushed */
0 
RCVT[ ]\011/* ReadCVT */
IF[ ]\011/* If */
PUSHW[ ]\011/* 1 value pushed */
0 
MDAP[1]\011/* MoveDirectAbsPt */
ELSE[ ]\011/* Else */
PUSHW[ ]\011/* 2 values pushed */
0 13 
MIAP[0]\011/* MoveIndirectAbsPt */
EIF[ ]\011/* EndIf */
PUSHW[ ]\011/* 1 value pushed */
0 
RCVT[ ]\011/* ReadCVT */
IF[ ]\011/* If */
PUSHW[ ]\011/* 1 value pushed */
7 
MDAP[1]\011/* MoveDirectAbsPt */
ELSE[ ]\011/* Else */
PUSHW[ ]\011/* 2 values pushed */
7 7 
MIAP[0]\011/* MoveIndirectAbsPt */
EIF[ ]\011/* EndIf */
PUSHW[ ]\011/* 3 values pushed */
1 7 0 
SRP1[ ]\011/* SetRefPoint1 */
SRP2[ ]\011/* SetRefPoint2 */
IP[ ]\011/* InterpolatePts */
PUSHW[ ]\011/* 2 values pushed */
5 3 
MIRP[10100]\011/* MoveIndirectRelPt */
PUSHW[ ]\011/* 3 values pushed */
9 7 0 
SRP1[ ]\011/* SetRefPoint1 */
SRP2[ ]\011/* SetRefPoint2 */
IP[ ]\011/* InterpolatePts */
IUP[0]\011/* InterpolateUntPts */
IUP[1]\011/* InterpolateUntPts */";
};
width = 193;
}
);
note = Lslash;
unicode = 0141;
},
{
glyphname = M;
layers = (
{
layerId = "14B2064F-49AA-4860-BD4E-8ABAFB41335C";
paths = (
{
closed = 1;
nodes = (
"205 699 LINE",
"137 128 LINE",
"136 128 LINE",
"69 699 LINE",
"21 699 LINE",
"21 0 LINE",
"52 0 LINE",
"52 595 LINE",
"122 0 LINE",
"151 0 LINE",
"222 595 LINE",
"223 595 LINE",
"223 0 LINE",
"253 0 LINE",
"253 699 LINE"
);
}
);
userData = {
assembly = "PUSHW[ ]\011/* 1 value pushed */
15 
MDAP[1]\011/* MoveDirectAbsPt */
PUSHW[ ]\011/* 1 value pushed */
2 
MDAP[1]\011/* MoveDirectAbsPt */
PUSHW[ ]\011/* 2 values pushed */
1 6 
MIRP[10100]\011/* MoveIndirectRelPt */
PUSHW[ ]\011/* 1 value pushed */
2 
SRP0[ ]\011/* SetRefPoint0 */
PUSHW[ ]\011/* 1 value pushed */
4 
MDRP[10000]\011/* MoveDirectRelPt */
PUSHW[ ]\011/* 1 value pushed */
4 
MDAP[1]\011/* MoveDirectAbsPt */
PUSHW[ ]\011/* 1 value pushed */
15 
SRP0[ ]\011/* SetRefPoint0 */
PUSHW[ ]\011/* 1 value pushed */
9 
MDRP[10000]\011/* MoveDirectRelPt */
PUSHW[ ]\011/* 1 value pushed */
9 
MDAP[1]\011/* MoveDirectAbsPt */
PUSHW[ ]\011/* 2 values pushed */
8 6 
MIRP[10100]\011/* MoveIndirectRelPt */
PUSHW[ ]\011/* 3 values pushed */
13 9 1 
SRP1[ ]\011/* SetRefPoint1 */
SRP2[ ]\011/* SetRefPoint2 */
IP[ ]\011/* InterpolatePts */
PUSHW[ ]\011/* 1 value pushed */
1 
SRP0[ ]\011/* SetRefPoint0 */
PUSHW[ ]\011/* 1 value pushed */
16 
MDRP[11100]\011/* MoveDirectRelPt */
SVTCA[0]\011/* SetFreedomAndProjectionVectorToAxis */
PUSHW[ ]\011/* 1 value pushed */
0 
RCVT[ ]\011/* ReadCVT */
IF[ ]\011/* If */
PUSHW[ ]\011/* 1 value pushed */
0 
MDAP[1]\011/* MoveDirectAbsPt */
ELSE[ ]\011/* Else */
PUSHW[ ]\011/* 2 values pushed */
0 13 
MIAP[0]\011/* MoveIndirectAbsPt */
EIF[ ]\011/* EndIf */
PUSHW[ ]\011/* 1 value pushed */
0 
RCVT[ ]\011/* ReadCVT */
IF[ ]\011/* If */
PUSHW[ ]\011/* 1 value pushed */
10 
MDAP[1]\011/* MoveDirectAbsPt */
ELSE[ ]\011/* Else */
PUSHW[ ]\011/* 2 values pushed */
10 13 
MIAP[0]\011/* MoveIndirectAbsPt */
EIF[ ]\011/* EndIf */
PUSHW[ ]\011/* 1 value pushed */
0 
RCVT[ ]\011/* ReadCVT */
IF[ ]\011/* If */
PUSHW[ ]\011/* 1 value pushed */
1 
MDAP[1]\011/* MoveDirectAbsPt */
ELSE[ ]\011/* Else */
PUSHW[ ]\011/* 2 values pushed */
1 7 
MIAP[0]\011/* MoveIndirectAbsPt */
EIF[ ]\011/* EndIf */
PUSHW[ ]\011/* 1 value pushed */
0 
RCVT[ ]\011/* ReadCVT */
IF[ ]\011/* If */
PUSHW[ ]\011/* 1 value pushed */
5 
MDAP[1]\011/* MoveDirectAbsPt */
ELSE[ ]\011/* Else */
PUSHW[ ]\011/* 2 values pushed */
5 7 
MIAP[0]\011/* MoveIndirectAbsPt */
EIF[ ]\011/* EndIf */
PUSHW[ ]\011/* 1 value pushed */
0 
RCVT[ ]\011/* ReadCVT */
IF[ ]\011/* If */
PUSHW[ ]\011/* 1 value pushed */
8 
MDAP[1]\011/* MoveDirectAbsPt */
ELSE[ ]\011/* Else */
PUSHW[ ]\011/* 2 values pushed */
8 7 
MIAP[0]\011/* MoveIndirectAbsPt */
EIF[ ]\011/* EndIf */
PUSHW[ ]\011/* 3 values pushed */
4 1 0 
SRP1[ ]\011/* SetRefPoint1 */
SRP2[ ]\011/* SetRefPoint2 */
IP[ ]\011/* InterpolatePts */
PUSHW[ ]\011/* 3 values pushed */
7 1 0 
SRP1[ ]\011/* SetRefPoint1 */
SRP2[ ]\011/* SetRefPoint2 */
IP[ ]\011/* InterpolatePts */
PUSHW[ ]\011/* 3 values pushed */
13 1 0 
SRP1[ ]\011/* SetRefPoint1 */
SRP2[ ]\011/* SetRefPoint2 */
IP[ ]\011/* InterpolatePts */
IUP[0]\011/* InterpolateUntPts */
IUP[1]\011/* InterpolateUntPts */";
};
width = 277;
}
);
note = M;
unicode = 004D;
},
{
glyphname = N;
layers = (
{
layerId = "14B2064F-49AA-4860-BD4E-8ABAFB41335C";
paths = (
{
closed = 1;
nodes = (
"206 0 LINE",
"206 699 LINE",
"174 699 LINE",
"174 108 LINE",
"173 108 LINE",
"63 699 LINE",
"21 699 LINE",
"21 0 LINE",
"52 0 LINE",
"52 595 LINE",
"165 0 LINE"
);
}
);
userData = {
assembly = "PUSHW[ ]\011/* 1 value pushed */
11 
MDAP[1]\011/* MoveDirectAbsPt */
PUSHW[ ]\011/* 1 value pushed */
7 
MDAP[1]\011/* MoveDirectAbsPt */
PUSHW[ ]\011/* 1 value pushed */
11 
SRP0[ ]\011/* SetRefPoint0 */
PUSHW[ ]\011/* 1 value pushed */
3 
MDRP[10000]\011/* MoveDirectRelPt */
PUSHW[ ]\011/* 1 value pushed */
3 
MDAP[1]\011/* MoveDirectAbsPt */
PUSHW[ ]\011/* 2 values pushed */
2 6 
MIRP[10100]\011/* MoveIndirectRelPt */
PUSHW[ ]\011/* 1 value pushed */
7 
SRP0[ ]\011/* SetRefPoint0 */
PUSHW[ ]\011/* 2 values pushed */
10 6 
MIRP[10100]\011/* MoveIndirectRelPt */
PUSHW[ ]\011/* 1 value pushed */
12 
MDRP[11100]\011/* MoveDirectRelPt */
SVTCA[0]\011/* SetFreedomAndProjectionVectorToAxis */
PUSHW[ ]\011/* 1 value pushed */
0 
RCVT[ ]\011/* ReadCVT */
IF[ ]\011/* If */
PUSHW[ ]\011/* 1 value pushed */
4 
MDAP[1]\011/* MoveDirectAbsPt */
ELSE[ ]\011/* Else */
PUSHW[ ]\011/* 2 values pushed */
4 13 
MIAP[0]\011/* MoveIndirectAbsPt */
EIF[ ]\011/* EndIf */
PUSHW[ ]\011/* 1 value pushed */
0 
RCVT[ ]\011/* ReadCVT */
IF[ ]\011/* If */
PUSHW[ ]\011/* 1 value pushed */
8 
MDAP[1]\011/* MoveDirectAbsPt */
ELSE[ ]\011/* Else */
PUSHW[ ]\011/* 2 values pushed */
8 13 
MIAP[0]\011/* MoveIndirectAbsPt */
EIF[ ]\011/* EndIf */
PUSHW[ ]\011/* 1 value pushed */
0 
RCVT[ ]\011/* ReadCVT */
IF[ ]\011/* If */
PUSHW[ ]\011/* 1 value pushed */
0 
MDAP[1]\011/* MoveDirectAbsPt */
ELSE[ ]\011/* Else */
PUSHW[ ]\011/* 2 values pushed */
0 7 
MIAP[0]\011/* MoveIndirectAbsPt */
EIF[ ]\011/* EndIf */
PUSHW[ ]\011/* 1 value pushed */
0 
RCVT[ ]\011/* ReadCVT */
IF[ ]\011/* If */
PUSHW[ ]\011/* 1 value pushed */
2 
MDAP[1]\011/* MoveDirectAbsPt */
ELSE[ ]\011/* Else */
PUSHW[ ]\011/* 2 values pushed */
2 7 
MIAP[0]\011/* MoveIndirectAbsPt */
EIF[ ]\011/* EndIf */
PUSHW[ ]\011/* 3 values pushed */
1 0 4 
SRP1[ ]\011/* SetRefPoint1 */
SRP2[ ]\011/* SetRefPoint2 */
IP[ ]\011/* InterpolatePts */
PUSHW[ ]\011/* 3 values pushed */
7 0 4 
SRP1[ ]\011/* SetRefPoint1 */
SRP2[ ]\011/* SetRefPoint2 */
IP[ ]\011/* InterpolatePts */
IUP[0]\011/* InterpolateUntPts */
IUP[1]\011/* InterpolateUntPts */";
};
width = 228;
}
);
note = N;
unicode = 004E;
},
{
glyphname = Nacute;
layers = (
{
layerId = "14B2064F-49AA-4860-BD4E-8ABAFB41335C";
paths = (
{
closed = 1;
nodes = (
"204 0 LINE",
"204 699 LINE",
"172 699 LINE",
"172 108 LINE",
"171 108 LINE",
"61 699 LINE",
"19 699 LINE",
"19 0 LINE",
"49 0 LINE",
"49 595 LINE",
"50 595 LINE",
"162 0 LINE"
);
},
{
closed = 1;
nodes = (
"123 738 LINE",
"178 824 LINE",
"146 824 LINE",
"100 738 LINE"
);
}
);
userData = {
assembly = "PUSHW[ ]\011/* 1 value pushed */
16 
MDAP[1]\011/* MoveDirectAbsPt */
PUSHW[ ]\011/* 1 value pushed */
8 
MDAP[1]\011/* MoveDirectAbsPt */
PUSHW[ ]\011/* 1 value pushed */
16 
SRP0[ ]\011/* SetRefPoint0 */
PUSHW[ ]\011/* 1 value pushed */
4 
MDRP[10000]\011/* MoveDirectRelPt */
PUSHW[ ]\011/* 1 value pushed */
4 
MDAP[1]\011/* MoveDirectAbsPt */
PUSHW[ ]\011/* 2 values pushed */
3 6 
MIRP[10100]\011/* MoveIndirectRelPt */
PUSHW[ ]\011/* 1 value pushed */
1 
MDRP[10000]\011/* MoveDirectRelPt */
PUSHW[ ]\011/* 1 value pushed */
1 
MDAP[1]\011/* MoveDirectAbsPt */
PUSHW[ ]\011/* 1 value pushed */
8 
SRP0[ ]\011/* SetRefPoint0 */
PUSHW[ ]\011/* 2 values pushed */
11 6 
MIRP[10100]\011/* MoveIndirectRelPt */
PUSHW[ ]\011/* 3 values pushed */
12 4 11 
SRP1[ ]\011/* SetRefPoint1 */
SRP2[ ]\011/* SetRefPoint2 */
IP[ ]\011/* InterpolatePts */
PUSHW[ ]\011/* 1 value pushed */
8 
SRP0[ ]\011/* SetRefPoint0 */
PUSHW[ ]\011/* 1 value pushed */
14 
MDRP[10000]\011/* MoveDirectRelPt */
PUSHW[ ]\011/* 1 value pushed */
14 
MDAP[1]\011/* MoveDirectAbsPt */
PUSHW[ ]\011/* 1 value pushed */
11 
SRP0[ ]\011/* SetRefPoint0 */
PUSHW[ ]\011/* 1 value pushed */
17 
MDRP[11100]\011/* MoveDirectRelPt */
SVTCA[0]\011/* SetFreedomAndProjectionVectorToAxis */
PUSHW[ ]\011/* 1 value pushed */
13 
MDAP[1]\011/* MoveDirectAbsPt */
PUSHW[ ]\011/* 1 value pushed */
0 
RCVT[ ]\011/* ReadCVT */
IF[ ]\011/* If */
PUSHW[ ]\011/* 1 value pushed */
5 
MDAP[1]\011/* MoveDirectAbsPt */
ELSE[ ]\011/* Else */
PUSHW[ ]\011/* 2 values pushed */
5 13 
MIAP[0]\011/* MoveIndirectAbsPt */
EIF[ ]\011/* EndIf */
PUSHW[ ]\011/* 1 value pushed */
0 
RCVT[ ]\011/* ReadCVT */
IF[ ]\011/* If */
PUSHW[ ]\011/* 1 value pushed */
9 
MDAP[1]\011/* MoveDirectAbsPt */
ELSE[ ]\011/* Else */
PUSHW[ ]\011/* 2 values pushed */
9 13 
MIAP[0]\011/* MoveIndirectAbsPt */
EIF[ ]\011/* EndIf */
PUSHW[ ]\011/* 1 value pushed */
0 
RCVT[ ]\011/* ReadCVT */
IF[ ]\011/* If */
PUSHW[ ]\011/* 1 value pushed */
0 
MDAP[1]\011/* MoveDirectAbsPt */
ELSE[ ]\011/* Else */
PUSHW[ ]\011/* 2 values pushed */
0 7 
MIAP[0]\011/* MoveIndirectAbsPt */
EIF[ ]\011/* EndIf */
PUSHW[ ]\011/* 1 value pushed */
0 
RCVT[ ]\011/* ReadCVT */
IF[ ]\011/* If */
PUSHW[ ]\011/* 1 value pushed */
3 
MDAP[1]\011/* MoveDirectAbsPt */
ELSE[ ]\011/* Else */
PUSHW[ ]\011/* 2 values pushed */
3 7 
MIAP[0]\011/* MoveIndirectAbsPt */
EIF[ ]\011/* EndIf */
PUSHW[ ]\011/* 3 values pushed */
2 0 13 
SRP1[ ]\011/* SetRefPoint1 */
SRP2[ ]\011/* SetRefPoint2 */
IP[ ]\011/* InterpolatePts */
PUSHW[ ]\011/* 3 values pushed */
8 0 13 
SRP1[ ]\011/* SetRefPoint1 */
SRP2[ ]\011/* SetRefPoint2 */
IP[ ]\011/* InterpolatePts */
PUSHW[ ]\011/* 3 values pushed */
12 0 13 
SRP1[ ]\011/* SetRefPoint1 */
SRP2[ ]\011/* SetRefPoint2 */
IP[ ]\011/* InterpolatePts */
IUP[0]\011/* InterpolateUntPts */
IUP[1]\011/* InterpolateUntPts */";
};
width = 223;
}
);
note = Nacute;
unicode = 0143;
},
{
glyphname = Ncaron;
layers = (
{
layerId = "14B2064F-49AA-4860-BD4E-8ABAFB41335C";
paths = (
{
closed = 1;
nodes = (
"204 0 LINE",
"204 699 LINE",
"172 699 LINE",
"172 108 LINE",
"171 108 LINE",
"61 699 LINE",
"19 699 LINE",
"19 0 LINE",
"49 0 LINE",
"49 595 LINE",
"50 595 LINE",
"162 0 LINE"
);
},
{
closed = 1;
nodes = (
"128 741 LINE",
"183 827 LINE",
"151 827 LINE",
"111 757 LINE",
"72 827 LINE",
"40 827 LINE",
"95 741 LINE"
);
}
);
userData = {
assembly = "PUSHW[ ]\011/* 1 value pushed */
19 
MDAP[1]\011/* MoveDirectAbsPt */
PUSHW[ ]\011/* 1 value pushed */
8 
MDAP[1]\011/* MoveDirectAbsPt */
PUSHW[ ]\011/* 1 value pushed */
19 
SRP0[ ]\011/* SetRefPoint0 */
PUSHW[ ]\011/* 1 value pushed */
4 
MDRP[10000]\011/* MoveDirectRelPt */
PUSHW[ ]\011/* 1 value pushed */
4 
MDAP[1]\011/* MoveDirectAbsPt */
PUSHW[ ]\011/* 2 values pushed */
3 6 
MIRP[10100]\011/* MoveIndirectRelPt */
PUSHW[ ]\011/* 1 value pushed */
1 
MDRP[10000]\011/* MoveDirectRelPt */
PUSHW[ ]\011/* 1 value pushed */
1 
MDAP[1]\011/* MoveDirectAbsPt */
PUSHW[ ]\011/* 1 value pushed */
8 
SRP0[ ]\011/* SetRefPoint0 */
PUSHW[ ]\011/* 2 values pushed */
11 6 
MIRP[10100]\011/* MoveIndirectRelPt */
PUSHW[ ]\011/* 3 values pushed */
13 4 3 
SRP1[ ]\011/* SetRefPoint1 */
SRP2[ ]\011/* SetRefPoint2 */
IP[ ]\011/* InterpolatePts */
PUSHW[ ]\011/* 3 values pushed */
15 4 11 
SRP1[ ]\011/* SetRefPoint1 */
SRP2[ ]\011/* SetRefPoint2 */
IP[ ]\011/* InterpolatePts */
PUSHW[ ]\011/* 3 values pushed */
17 8 11 
SRP1[ ]\011/* SetRefPoint1 */
SRP2[ ]\011/* SetRefPoint2 */
IP[ ]\011/* InterpolatePts */
PUSHW[ ]\011/* 1 value pushed */
20 
MDRP[11100]\011/* MoveDirectRelPt */
SVTCA[0]\011/* SetFreedomAndProjectionVectorToAxis */
PUSHW[ ]\011/* 1 value pushed */
13 
MDAP[1]\011/* MoveDirectAbsPt */
PUSHW[ ]\011/* 1 value pushed */
16 
MDAP[1]\011/* MoveDirectAbsPt */
PUSHW[ ]\011/* 1 value pushed */
0 
RCVT[ ]\011/* ReadCVT */
IF[ ]\011/* If */
PUSHW[ ]\011/* 1 value pushed */
5 
MDAP[1]\011/* MoveDirectAbsPt */
ELSE[ ]\011/* Else */
PUSHW[ ]\011/* 2 values pushed */
5 13 
MIAP[0]\011/* MoveIndirectAbsPt */
EIF[ ]\011/* EndIf */
PUSHW[ ]\011/* 1 value pushed */
0 
RCVT[ ]\011/* ReadCVT */
IF[ ]\011/* If */
PUSHW[ ]\011/* 1 value pushed */
9 
MDAP[1]\011/* MoveDirectAbsPt */
ELSE[ ]\011/* Else */
PUSHW[ ]\011/* 2 values pushed */
9 13 
MIAP[0]\011/* MoveIndirectAbsPt */
EIF[ ]\011/* EndIf */
PUSHW[ ]\011/* 1 value pushed */
0 
RCVT[ ]\011/* ReadCVT */
IF[ ]\011/* If */
PUSHW[ ]\011/* 1 value pushed */
0 
MDAP[1]\011/* MoveDirectAbsPt */
ELSE[ ]\011/* Else */
PUSHW[ ]\011/* 2 values pushed */
0 7 
MIAP[0]\011/* MoveIndirectAbsPt */
EIF[ ]\011/* EndIf */
PUSHW[ ]\011/* 1 value pushed */
0 
RCVT[ ]\011/* ReadCVT */
IF[ ]\011/* If */
PUSHW[ ]\011/* 1 value pushed */
3 
MDAP[1]\011/* MoveDirectAbsPt */
ELSE[ ]\011/* Else */
PUSHW[ ]\011/* 2 values pushed */
3 7 
MIAP[0]\011/* MoveIndirectAbsPt */
EIF[ ]\011/* EndIf */
PUSHW[ ]\011/* 3 values pushed */
2 0 13 
SRP1[ ]\011/* SetRefPoint1 */
SRP2[ ]\011/* SetRefPoint2 */
IP[ ]\011/* InterpolatePts */
PUSHW[ ]\011/* 3 values pushed */
8 0 13 
SRP1[ ]\011/* SetRefPoint1 */
SRP2[ ]\011/* SetRefPoint2 */
IP[ ]\011/* InterpolatePts */
PUSHW[ ]\011/* 3 values pushed */
15 0 13 
SRP1[ ]\011/* SetRefPoint1 */
SRP2[ ]\011/* SetRefPoint2 */
IP[ ]\011/* InterpolatePts */
IUP[0]\011/* InterpolateUntPts */
IUP[1]\011/* InterpolateUntPts */";
};
width = 223;
}
);
note = Ncaron;
unicode = 0147;
},
{
glyphname = Ncommaaccent;
layers = (
{
layerId = "14B2064F-49AA-4860-BD4E-8ABAFB41335C";
paths = (
{
closed = 1;
nodes = (
"204 0 LINE",
"204 699 LINE",
"172 699 LINE",
"172 108 LINE",
"171 108 LINE",
"61 699 LINE",
"19 699 LINE",
"19 0 LINE",
"49 0 LINE",
"49 595 LINE",
"50 595 LINE",
"162 0 LINE"
);
},
{
closed = 1;
nodes = (
"124 -9 LINE",
"88 -9 LINE",
"88 -84 LINE",
"103 -84 LINE",
"88 -140 LINE",
"105 -140 LINE",
"124 -84 LINE"
);
}
);
userData = {
assembly = "PUSHW[ ]\011/* 4 values pushed */
3 6 4 4 
CALL[ ]\011/* CallFunction */
PUSHW[ ]\011/* 4 values pushed */
12 4 16 4 
CALL[ ]\011/* CallFunction */
PUSHW[ ]\011/* 4 values pushed */
11 6 8 4 
CALL[ ]\011/* CallFunction */
PUSHW[ ]\011/* 1 value pushed */
3 
SRP0[ ]\011/* SetRefPoint0 */
PUSHW[ ]\011/* 1 value pushed */
1 
MDRP[10000]\011/* MoveDirectRelPt */
PUSHW[ ]\011/* 1 value pushed */
1 
MDAP[1]\011/* MoveDirectAbsPt */
PUSHW[ ]\011/* 3 values pushed */
14 4 11 
SRP1[ ]\011/* SetRefPoint1 */
SRP2[ ]\011/* SetRefPoint2 */
IP[ ]\011/* InterpolatePts */
PUSHW[ ]\011/* 1 value pushed */
11 
SRP0[ ]\011/* SetRefPoint0 */
PUSHW[ ]\011/* 1 value pushed */
20 
MDRP[11100]\011/* MoveDirectRelPt */
SVTCA[0]\011/* SetFreedomAndProjectionVectorToAxis */
PUSHW[ ]\011/* 1 value pushed */
13 
MDAP[1]\011/* MoveDirectAbsPt */
PUSHW[ ]\011/* 1 value pushed */
0 
RCVT[ ]\011/* ReadCVT */
IF[ ]\011/* If */
PUSHW[ ]\011/* 1 value pushed */
5 
MDAP[1]\011/* MoveDirectAbsPt */
ELSE[ ]\011/* Else */
PUSHW[ ]\011/* 2 values pushed */
5 13 
MIAP[0]\011/* MoveIndirectAbsPt */
EIF[ ]\011/* EndIf */
PUSHW[ ]\011/* 1 value pushed */
0 
RCVT[ ]\011/* ReadCVT */
IF[ ]\011/* If */
PUSHW[ ]\011/* 1 value pushed */
9 
MDAP[1]\011/* MoveDirectAbsPt */
ELSE[ ]\011/* Else */
PUSHW[ ]\011/* 2 values pushed */
9 13 
MIAP[0]\011/* MoveIndirectAbsPt */
EIF[ ]\011/* EndIf */
PUSHW[ ]\011/* 1 value pushed */
0 
RCVT[ ]\011/* ReadCVT */
IF[ ]\011/* If */
PUSHW[ ]\011/* 1 value pushed */
0 
MDAP[1]\011/* MoveDirectAbsPt */
ELSE[ ]\011/* Else */
PUSHW[ ]\011/* 2 values pushed */
0 7 
MIAP[0]\011/* MoveIndirectAbsPt */
EIF[ ]\011/* EndIf */
PUSHW[ ]\011/* 1 value pushed */
0 
RCVT[ ]\011/* ReadCVT */
IF[ ]\011/* If */
PUSHW[ ]\011/* 1 value pushed */
3 
MDAP[1]\011/* MoveDirectAbsPt */
ELSE[ ]\011/* Else */
PUSHW[ ]\011/* 2 values pushed */
3 7 
MIAP[0]\011/* MoveIndirectAbsPt */
EIF[ ]\011/* EndIf */
PUSHW[ ]\011/* 3 values pushed */
2 13 5 
SRP1[ ]\011/* SetRefPoint1 */
SRP2[ ]\011/* SetRefPoint2 */
IP[ ]\011/* InterpolatePts */
PUSHW[ ]\011/* 3 values pushed */
8 13 5 
SRP1[ ]\011/* SetRefPoint1 */
SRP2[ ]\011/* SetRefPoint2 */
IP[ ]\011/* InterpolatePts */
PUSHW[ ]\011/* 3 values pushed */
15 13 5 
SRP1[ ]\011/* SetRefPoint1 */
SRP2[ ]\011/* SetRefPoint2 */
IP[ ]\011/* InterpolatePts */
IUP[0]\011/* InterpolateUntPts */
IUP[1]\011/* InterpolateUntPts */";
};
width = 223;
}
);
note = uni0145;
unicode = 0145;
},
{
glyphname = Eng;
layers = (
{
layerId = "14B2064F-49AA-4860-BD4E-8ABAFB41335C";
paths = (
{
closed = 1;
nodes = (
"159 0 LINE",
"159 -84 LINE SMOOTH",
"159 -120 OFFCURVE",
"141.667 -137 OFFCURVE",
"115 -137 CURVE",
"115 -165 LINE",
"167 -165 OFFCURVE",
"199 -137.333 OFFCURVE",
"199 -84 CURVE SMOOTH",
"199 699 LINE",
"168 699 LINE",
"168 108 LINE",
"63 699 LINE",
"21 699 LINE",
"21 0 LINE",
"50 0 LINE",
"50 595 LINE",
"51 595 LINE",
"158 0 LINE"
);
}
);
userData = {
assembly = "PUSHW[ ]\011/* 1 value pushed */
19 
MDAP[1]\011/* MoveDirectAbsPt */
PUSHW[ ]\011/* 1 value pushed */
7 
MDAP[1]\011/* MoveDirectAbsPt */
PUSHW[ ]\011/* 1 value pushed */
19 
SRP0[ ]\011/* SetRefPoint0 */
PUSHW[ ]\011/* 1 value pushed */
4 
MDRP[10000]\011/* MoveDirectRelPt */
PUSHW[ ]\011/* 1 value pushed */
4 
MDAP[1]\011/* MoveDirectAbsPt */
PUSHW[ ]\011/* 2 values pushed */
3 6 
MIRP[10100]\011/* MoveIndirectRelPt */
PUSHW[ ]\011/* 1 value pushed */
1 
MDRP[10000]\011/* MoveDirectRelPt */
PUSHW[ ]\011/* 1 value pushed */
1 
MDAP[1]\011/* MoveDirectAbsPt */
PUSHW[ ]\011/* 1 value pushed */
7 
SRP0[ ]\011/* SetRefPoint0 */
PUSHW[ ]\011/* 2 values pushed */
10 6 
MIRP[10100]\011/* MoveIndirectRelPt */
PUSHW[ ]\011/* 1 value pushed */
20 
MDRP[11100]\011/* MoveDirectRelPt */
SVTCA[0]\011/* SetFreedomAndProjectionVectorToAxis */
PUSHW[ ]\011/* 1 value pushed */
0 
RCVT[ ]\011/* ReadCVT */
IF[ ]\011/* If */
PUSHW[ ]\011/* 1 value pushed */
5 
MDAP[1]\011/* MoveDirectAbsPt */
ELSE[ ]\011/* Else */
PUSHW[ ]\011/* 2 values pushed */
5 13 
MIAP[0]\011/* MoveIndirectAbsPt */
EIF[ ]\011/* EndIf */
PUSHW[ ]\011/* 1 value pushed */
0 
RCVT[ ]\011/* ReadCVT */
IF[ ]\011/* If */
PUSHW[ ]\011/* 1 value pushed */
8 
MDAP[1]\011/* MoveDirectAbsPt */
ELSE[ ]\011/* Else */
PUSHW[ ]\011/* 2 values pushed */
8 13 
MIAP[0]\011/* MoveIndirectAbsPt */
EIF[ ]\011/* EndIf */
PUSHW[ ]\011/* 1 value pushed */
0 
RCVT[ ]\011/* ReadCVT */
IF[ ]\011/* If */
PUSHW[ ]\011/* 1 value pushed */
13 
MDAP[1]\011/* MoveDirectAbsPt */
ELSE[ ]\011/* Else */
PUSHW[ ]\011/* 2 values pushed */
13 9 
MIAP[0]\011/* MoveIndirectAbsPt */
EIF[ ]\011/* EndIf */
PUSHW[ ]\011/* 1 value pushed */
0 
RCVT[ ]\011/* ReadCVT */
IF[ ]\011/* If */
PUSHW[ ]\011/* 1 value pushed */
0 
MDAP[1]\011/* MoveDirectAbsPt */
ELSE[ ]\011/* Else */
PUSHW[ ]\011/* 2 values pushed */
0 7 
MIAP[0]\011/* MoveIndirectAbsPt */
EIF[ ]\011/* EndIf */
PUSHW[ ]\011/* 1 value pushed */
0 
RCVT[ ]\011/* ReadCVT */
IF[ ]\011/* If */
PUSHW[ ]\011/* 1 value pushed */
3 
MDAP[1]\011/* MoveDirectAbsPt */
ELSE[ ]\011/* Else */
PUSHW[ ]\011/* 2 values pushed */
3 7 
MIAP[0]\011/* MoveIndirectAbsPt */
EIF[ ]\011/* EndIf */
PUSHW[ ]\011/* 3 values pushed */
2 13 5 
SRP1[ ]\011/* SetRefPoint1 */
SRP2[ ]\011/* SetRefPoint2 */
IP[ ]\011/* InterpolatePts */
PUSHW[ ]\011/* 3 values pushed */
7 13 5 
SRP1[ ]\011/* SetRefPoint1 */
SRP2[ ]\011/* SetRefPoint2 */
IP[ ]\011/* InterpolatePts */
IUP[0]\011/* InterpolateUntPts */
IUP[1]\011/* InterpolateUntPts */";
};
width = 221;
}
);
note = Eng;
unicode = 014A;
},
{
glyphname = Ntilde;
layers = (
{
layerId = "14B2064F-49AA-4860-BD4E-8ABAFB41335C";
paths = (
{
closed = 1;
nodes = (
"204 0 LINE",
"204 699 LINE",
"172 699 LINE",
"172 108 LINE",
"171 108 LINE",
"61 699 LINE",
"19 699 LINE",
"19 0 LINE",
"49 0 LINE",
"49 595 LINE",
"50 595 LINE",
"162 0 LINE"
);
},
{
closed = 1;
nodes = (
"55 770 LINE",
"63.667 779.333 OFFCURVE",
"73.667 784 OFFCURVE",
"85 784 CURVE SMOOTH",
"94.333 784 OFFCURVE",
"104 780.333 OFFCURVE",
"114 773 CURVE SMOOTH",
"124 765.667 OFFCURVE",
"134.667 762 OFFCURVE",
"146 762 CURVE SMOOTH",
"162 762 OFFCURVE",
"175.333 770 OFFCURVE",
"186 786 CURVE",
"169 797 LINE",
"161.667 787.667 OFFCURVE",
"152.667 783 OFFCURVE",
"142 783 CURVE SMOOTH",
"124.738 783 OFFCURVE",
"95.014 805 OFFCURVE",
"79 805 CURVE SMOOTH",
"63 805 OFFCURVE",
"50 797 OFFCURVE",
"40 781 CURVE"
);
}
);
userData = {
assembly = "PUSHW[ ]\011/* 1 value pushed */
30 
MDAP[1]\011/* MoveDirectAbsPt */
PUSHW[ ]\011/* 1 value pushed */
8 
MDAP[1]\011/* MoveDirectAbsPt */
PUSHW[ ]\011/* 1 value pushed */
30 
SRP0[ ]\011/* SetRefPoint0 */
PUSHW[ ]\011/* 1 value pushed */
4 
MDRP[10000]\011/* MoveDirectRelPt */
PUSHW[ ]\011/* 1 value pushed */
4 
MDAP[1]\011/* MoveDirectAbsPt */
PUSHW[ ]\011/* 2 values pushed */
3 6 
MIRP[10100]\011/* MoveIndirectRelPt */
PUSHW[ ]\011/* 1 value pushed */
1 
MDRP[10000]\011/* MoveDirectRelPt */
PUSHW[ ]\011/* 1 value pushed */
1 
MDAP[1]\011/* MoveDirectAbsPt */
PUSHW[ ]\011/* 1 value pushed */
8 
SRP0[ ]\011/* SetRefPoint0 */
PUSHW[ ]\011/* 2 values pushed */
11 6 
MIRP[10100]\011/* MoveIndirectRelPt */
PUSHW[ ]\011/* 1 value pushed */
8 
SRP0[ ]\011/* SetRefPoint0 */
PUSHW[ ]\011/* 1 value pushed */
21 
MDRP[10000]\011/* MoveDirectRelPt */
PUSHW[ ]\011/* 1 value pushed */
21 
MDAP[1]\011/* MoveDirectAbsPt */
PUSHW[ ]\011/* 1 value pushed */
3 
SRP0[ ]\011/* SetRefPoint0 */
PUSHW[ ]\011/* 1 value pushed */
29 
MDRP[10000]\011/* MoveDirectRelPt */
PUSHW[ ]\011/* 1 value pushed */
29 
MDAP[1]\011/* MoveDirectAbsPt */
PUSHW[ ]\011/* 1 value pushed */
11 
SRP0[ ]\011/* SetRefPoint0 */
PUSHW[ ]\011/* 1 value pushed */
31 
MDRP[11100]\011/* MoveDirectRelPt */
SVTCA[0]\011/* SetFreedomAndProjectionVectorToAxis */
PUSHW[ ]\011/* 1 value pushed */
0 
RCVT[ ]\011/* ReadCVT */
IF[ ]\011/* If */
PUSHW[ ]\011/* 1 value pushed */
5 
MDAP[1]\011/* MoveDirectAbsPt */
ELSE[ ]\011/* Else */
PUSHW[ ]\011/* 2 values pushed */
5 13 
MIAP[0]\011/* MoveIndirectAbsPt */
EIF[ ]\011/* EndIf */
PUSHW[ ]\011/* 1 value pushed */
0 
RCVT[ ]\011/* ReadCVT */
IF[ ]\011/* If */
PUSHW[ ]\011/* 1 value pushed */
9 
MDAP[1]\011/* MoveDirectAbsPt */
ELSE[ ]\011/* Else */
PUSHW[ ]\011/* 2 values pushed */
9 13 
MIAP[0]\011/* MoveIndirectAbsPt */
EIF[ ]\011/* EndIf */
PUSHW[ ]\011/* 1 value pushed */
0 
RCVT[ ]\011/* ReadCVT */
IF[ ]\011/* If */
PUSHW[ ]\011/* 1 value pushed */
0 
MDAP[1]\011/* MoveDirectAbsPt */
ELSE[ ]\011/* Else */
PUSHW[ ]\011/* 2 values pushed */
0 7 
MIAP[0]\011/* MoveIndirectAbsPt */
EIF[ ]\011/* EndIf */
PUSHW[ ]\011/* 1 value pushed */
0 
RCVT[ ]\011/* ReadCVT */
IF[ ]\011/* If */
PUSHW[ ]\011/* 1 value pushed */
3 
MDAP[1]\011/* MoveDirectAbsPt */
ELSE[ ]\011/* Else */
PUSHW[ ]\011/* 2 values pushed */
3 7 
MIAP[0]\011/* MoveIndirectAbsPt */
EIF[ ]\011/* EndIf */
PUSHW[ ]\011/* 4 values pushed */
14 2 27 4 
CALL[ ]\011/* CallFunction */
PUSHW[ ]\011/* 3 values pushed */
2 0 5 
SRP1[ ]\011/* SetRefPoint1 */
SRP2[ ]\011/* SetRefPoint2 */
IP[ ]\011/* InterpolatePts */
PUSHW[ ]\011/* 3 values pushed */
8 0 5 
SRP1[ ]\011/* SetRefPoint1 */
SRP2[ ]\011/* SetRefPoint2 */
IP[ ]\011/* InterpolatePts */
PUSHW[ ]\011/* 1 value pushed */
27 
SRP0[ ]\011/* SetRefPoint0 */
PUSHW[ ]\011/* 1 value pushed */
19 
MDRP[10000]\011/* MoveDirectRelPt */
PUSHW[ ]\011/* 1 value pushed */
19 
MDAP[1]\011/* MoveDirectAbsPt */
PUSHW[ ]\011/* 2 values pushed */
24 2 
MIRP[10100]\011/* MoveIndirectRelPt */
IUP[0]\011/* InterpolateUntPts */
IUP[1]\011/* InterpolateUntPts */";
};
width = 223;
}
);
note = Ntilde;
unicode = 00D1;
},
{
glyphname = O;
layers = (
{
layerId = "14B2064F-49AA-4860-BD4E-8ABAFB41335C";
paths = (
{
closed = 1;
nodes = (
"109 -6 LINE SMOOTH",
"145 -6 OFFCURVE",
"183 19.333 OFFCURVE",
"183 82 CURVE SMOOTH",
"183 617 LINE SMOOTH",
"183 679.667 OFFCURVE",
"145 705 OFFCURVE",
"109 705 CURVE SMOOTH",
"95 705 LINE SMOOTH",
"54.357 705 OFFCURVE",
"21 674.421 OFFCURVE",
"21 617 CURVE SMOOTH",
"21 82 LINE SMOOTH",
"21 24.579 OFFCURVE",
"54.357 -6 OFFCURVE",
"95 -6 CURVE SMOOTH"
);
},
{
closed = 1;
nodes = (
"106 675 LINE SMOOTH",
"127.333 675 OFFCURVE",
"148 657.333 OFFCURVE",
"148 612 CURVE SMOOTH",
"148 87 LINE SMOOTH",
"148 41.667 OFFCURVE",
"127.333 24 OFFCURVE",
"106 24 CURVE SMOOTH",
"98 24 LINE SMOOTH",
"78 24 OFFCURVE",
"57 41.667 OFFCURVE",
"57 87 CURVE SMOOTH",
"57 612 LINE SMOOTH",
"57 657.333 OFFCURVE",
"78 675 OFFCURVE",
"98 675 CURVE SMOOTH"
);
}
);
userData = {
assembly = "PUSHW[ ]\011/* 1 value pushed */
36 
MDAP[1]\011/* MoveDirectAbsPt */
PUSHW[ ]\011/* 1 value pushed */
31 
MDAP[1]\011/* MoveDirectAbsPt */
PUSHW[ ]\011/* 1 value pushed */
36 
SRP0[ ]\011/* SetRefPoint0 */
PUSHW[ ]\011/* 1 value pushed */
5 
MDRP[10000]\011/* MoveDirectRelPt */
PUSHW[ ]\011/* 1 value pushed */
5 
MDAP[1]\011/* MoveDirectAbsPt */
PUSHW[ ]\011/* 1 value pushed */
31 
SRP0[ ]\011/* SetRefPoint0 */
PUSHW[ ]\011/* 2 values pushed */
16 4 
MIRP[10100]\011/* MoveIndirectRelPt */
PUSHW[ ]\011/* 1 value pushed */
5 
SRP0[ ]\011/* SetRefPoint0 */
PUSHW[ ]\011/* 2 values pushed */
24 4 
MIRP[10100]\011/* MoveIndirectRelPt */
PUSHW[ ]\011/* 1 value pushed */
16 
SRP0[ ]\011/* SetRefPoint0 */
PUSHW[ ]\011/* 1 value pushed */
37 
MDRP[11100]\011/* MoveDirectRelPt */
SVTCA[0]\011/* SetFreedomAndProjectionVectorToAxis */
PUSHW[ ]\011/* 1 value pushed */
0 
RCVT[ ]\011/* ReadCVT */
IF[ ]\011/* If */
PUSHW[ ]\011/* 1 value pushed */
11 
MDAP[1]\011/* MoveDirectAbsPt */
ELSE[ ]\011/* Else */
PUSHW[ ]\011/* 2 values pushed */
11 13 
MIAP[0]\011/* MoveIndirectAbsPt */
EIF[ ]\011/* EndIf */
PUSHW[ ]\011/* 1 value pushed */
0 
RCVT[ ]\011/* ReadCVT */
IF[ ]\011/* If */
PUSHW[ ]\011/* 1 value pushed */
0 
MDAP[1]\011/* MoveDirectAbsPt */
ELSE[ ]\011/* Else */
PUSHW[ ]\011/* 2 values pushed */
0 7 
MIAP[0]\011/* MoveIndirectAbsPt */
EIF[ ]\011/* EndIf */
PUSHW[ ]\011/* 1 value pushed */
11 
SRP0[ ]\011/* SetRefPoint0 */
PUSHW[ ]\011/* 2 values pushed */
20 1 
MIRP[10100]\011/* MoveIndirectRelPt */
PUSHW[ ]\011/* 1 value pushed */
0 
SRP0[ ]\011/* SetRefPoint0 */
PUSHW[ ]\011/* 2 values pushed */
27 1 
MIRP[10100]\011/* MoveIndirectRelPt */
IUP[0]\011/* InterpolateUntPts */
IUP[1]\011/* InterpolateUntPts */";
};
width = 205;
}
);
note = O;
unicode = 004F;
},
{
glyphname = Oacute;
layers = (
{
layerId = "14B2064F-49AA-4860-BD4E-8ABAFB41335C";
paths = (
{
closed = 1;
nodes = (
"109 -6 LINE SMOOTH",
"145 -6 OFFCURVE",
"183 19.333 OFFCURVE",
"183 82 CURVE SMOOTH",
"183 617 LINE SMOOTH",
"183 679.667 OFFCURVE",
"145 705 OFFCURVE",
"109 705 CURVE SMOOTH",
"95 705 LINE SMOOTH",
"54.357 705 OFFCURVE",
"21 674.421 OFFCURVE",
"21 617 CURVE SMOOTH",
"21 82 LINE SMOOTH",
"21 24.579 OFFCURVE",
"54.357 -6 OFFCURVE",
"95 -6 CURVE SMOOTH"
);
},
{
closed = 1;
nodes = (
"106 675 LINE SMOOTH",
"127.333 675 OFFCURVE",
"148 657.333 OFFCURVE",
"148 612 CURVE SMOOTH",
"148 87 LINE SMOOTH",
"148 41.667 OFFCURVE",
"127.333 24 OFFCURVE",
"106 24 CURVE SMOOTH",
"98 24 LINE SMOOTH",
"78 24 OFFCURVE",
"57 41.667 OFFCURVE",
"57 87 CURVE SMOOTH",
"57 612 LINE SMOOTH",
"57 657.333 OFFCURVE",
"78 675 OFFCURVE",
"98 675 CURVE SMOOTH"
);
},
{
closed = 1;
nodes = (
"113 738 LINE",
"168 824 LINE",
"136 824 LINE",
"90 738 LINE"
);
}
);
userData = {
assembly = "PUSHW[ ]\011/* 1 value pushed */
40 
MDAP[1]\011/* MoveDirectAbsPt */
PUSHW[ ]\011/* 1 value pushed */
31 
MDAP[1]\011/* MoveDirectAbsPt */
PUSHW[ ]\011/* 1 value pushed */
40 
SRP0[ ]\011/* SetRefPoint0 */
PUSHW[ ]\011/* 1 value pushed */
5 
MDRP[10000]\011/* MoveDirectRelPt */
PUSHW[ ]\011/* 1 value pushed */
5 
MDAP[1]\011/* MoveDirectAbsPt */
PUSHW[ ]\011/* 1 value pushed */
31 
SRP0[ ]\011/* SetRefPoint0 */
PUSHW[ ]\011/* 2 values pushed */
16 4 
MIRP[10100]\011/* MoveIndirectRelPt */
PUSHW[ ]\011/* 1 value pushed */
5 
SRP0[ ]\011/* SetRefPoint0 */
PUSHW[ ]\011/* 2 values pushed */
24 4 
MIRP[10100]\011/* MoveIndirectRelPt */
PUSHW[ ]\011/* 3 values pushed */
36 5 16 
SRP1[ ]\011/* SetRefPoint1 */
SRP2[ ]\011/* SetRefPoint2 */
IP[ ]\011/* InterpolatePts */
PUSHW[ ]\011/* 3 values pushed */
38 31 16 
SRP1[ ]\011/* SetRefPoint1 */
SRP2[ ]\011/* SetRefPoint2 */
IP[ ]\011/* InterpolatePts */
PUSHW[ ]\011/* 1 value pushed */
16 
SRP0[ ]\011/* SetRefPoint0 */
PUSHW[ ]\011/* 1 value pushed */
41 
MDRP[11100]\011/* MoveDirectRelPt */
SVTCA[0]\011/* SetFreedomAndProjectionVectorToAxis */
PUSHW[ ]\011/* 1 value pushed */
37 
MDAP[1]\011/* MoveDirectAbsPt */
PUSHW[ ]\011/* 1 value pushed */
0 
RCVT[ ]\011/* ReadCVT */
IF[ ]\011/* If */
PUSHW[ ]\011/* 1 value pushed */
11 
MDAP[1]\011/* MoveDirectAbsPt */
ELSE[ ]\011/* Else */
PUSHW[ ]\011/* 2 values pushed */
11 13 
MIAP[0]\011/* MoveIndirectAbsPt */
EIF[ ]\011/* EndIf */
PUSHW[ ]\011/* 1 value pushed */
0 
RCVT[ ]\011/* ReadCVT */
IF[ ]\011/* If */
PUSHW[ ]\011/* 1 value pushed */
0 
MDAP[1]\011/* MoveDirectAbsPt */
ELSE[ ]\011/* Else */
PUSHW[ ]\011/* 2 values pushed */
0 7 
MIAP[0]\011/* MoveIndirectAbsPt */
EIF[ ]\011/* EndIf */
PUSHW[ ]\011/* 1 value pushed */
11 
SRP0[ ]\011/* SetRefPoint0 */
PUSHW[ ]\011/* 2 values pushed */
20 1 
MIRP[10100]\011/* MoveIndirectRelPt */
PUSHW[ ]\011/* 1 value pushed */
0 
SRP0[ ]\011/* SetRefPoint0 */
PUSHW[ ]\011/* 2 values pushed */
27 1 
MIRP[10100]\011/* MoveIndirectRelPt */
PUSHW[ ]\011/* 3 values pushed */
36 0 37 
SRP1[ ]\011/* SetRefPoint1 */
SRP2[ ]\011/* SetRefPoint2 */
IP[ ]\011/* InterpolatePts */
IUP[0]\011/* InterpolateUntPts */
IUP[1]\011/* InterpolateUntPts */";
};
width = 205;
}
);
note = Oacute;
unicode = 00D3;
},
{
glyphname = Obreve;
layers = (
{
layerId = "14B2064F-49AA-4860-BD4E-8ABAFB41335C";
paths = (
{
closed = 1;
nodes = (
"109 -6 LINE SMOOTH",
"145 -6 OFFCURVE",
"183 19.333 OFFCURVE",
"183 82 CURVE SMOOTH",
"183 617 LINE SMOOTH",
"183 679.667 OFFCURVE",
"145 705 OFFCURVE",
"109 705 CURVE SMOOTH",
"95 705 LINE SMOOTH",
"54.357 705 OFFCURVE",
"21 674.421 OFFCURVE",
"21 617 CURVE SMOOTH",
"21 82 LINE SMOOTH",
"21 24.579 OFFCURVE",
"54.357 -6 OFFCURVE",
"95 -6 CURVE SMOOTH"
);
},
{
closed = 1;
nodes = (
"106 675 LINE SMOOTH",
"127.333 675 OFFCURVE",
"148 657.333 OFFCURVE",
"148 612 CURVE SMOOTH",
"148 87 LINE SMOOTH",
"148 41.667 OFFCURVE",
"127.333 24 OFFCURVE",
"106 24 CURVE SMOOTH",
"98 24 LINE SMOOTH",
"78 24 OFFCURVE",
"57 41.667 OFFCURVE",
"57 87 CURVE SMOOTH",
"57 612 LINE SMOOTH",
"57 657.333 OFFCURVE",
"78 675 OFFCURVE",
"98 675 CURVE SMOOTH"
);
},
{
closed = 1;
nodes = (
"46 813 LINE",
"46 781 OFFCURVE",
"72.667 756 OFFCURVE",
"102 756 CURVE SMOOTH",
"135.333 756 OFFCURVE",
"160 782.333 OFFCURVE",
"160 813 CURVE",
"139 813 LINE",
"139 794.333 OFFCURVE",
"122 777 OFFCURVE",
"102 777 CURVE SMOOTH",
"83.333 777 OFFCURVE",
"67 794.333 OFFCURVE",
"67 813 CURVE"
);
}
);
userData = {
assembly = "PUSHW[ ]\011/* 1 value pushed */
50 
MDAP[1]\011/* MoveDirectAbsPt */
PUSHW[ ]\011/* 1 value pushed */
31 
MDAP[1]\011/* MoveDirectAbsPt */
PUSHW[ ]\011/* 1 value pushed */
50 
SRP0[ ]\011/* SetRefPoint0 */
PUSHW[ ]\011/* 1 value pushed */
5 
MDRP[10000]\011/* MoveDirectRelPt */
PUSHW[ ]\011/* 1 value pushed */
5 
MDAP[1]\011/* MoveDirectAbsPt */
PUSHW[ ]\011/* 1 value pushed */
31 
SRP0[ ]\011/* SetRefPoint0 */
PUSHW[ ]\011/* 2 values pushed */
16 4 
MIRP[10100]\011/* MoveIndirectRelPt */
PUSHW[ ]\011/* 1 value pushed */
5 
SRP0[ ]\011/* SetRefPoint0 */
PUSHW[ ]\011/* 2 values pushed */
24 4 
MIRP[10100]\011/* MoveIndirectRelPt */
PUSHW[ ]\011/* 1 value pushed */
16 
SRP0[ ]\011/* SetRefPoint0 */
PUSHW[ ]\011/* 1 value pushed */
51 
MDRP[11100]\011/* MoveDirectRelPt */
SVTCA[0]\011/* SetFreedomAndProjectionVectorToAxis */
PUSHW[ ]\011/* 1 value pushed */
36 
MDAP[1]\011/* MoveDirectAbsPt */
PUSHW[ ]\011/* 1 value pushed */
42 
MDAP[1]\011/* MoveDirectAbsPt */
PUSHW[ ]\011/* 1 value pushed */
0 
RCVT[ ]\011/* ReadCVT */
IF[ ]\011/* If */
PUSHW[ ]\011/* 1 value pushed */
11 
MDAP[1]\011/* MoveDirectAbsPt */
ELSE[ ]\011/* Else */
PUSHW[ ]\011/* 2 values pushed */
11 13 
MIAP[0]\011/* MoveIndirectAbsPt */
EIF[ ]\011/* EndIf */
PUSHW[ ]\011/* 1 value pushed */
0 
RCVT[ ]\011/* ReadCVT */
IF[ ]\011/* If */
PUSHW[ ]\011/* 1 value pushed */
0 
MDAP[1]\011/* MoveDirectAbsPt */
ELSE[ ]\011/* Else */
PUSHW[ ]\011/* 2 values pushed */
0 7 
MIAP[0]\011/* MoveIndirectAbsPt */
EIF[ ]\011/* EndIf */
PUSHW[ ]\011/* 4 values pushed */
39 2 46 4 
CALL[ ]\011/* CallFunction */
PUSHW[ ]\011/* 1 value pushed */
11 
SRP0[ ]\011/* SetRefPoint0 */
PUSHW[ ]\011/* 2 values pushed */
20 1 
MIRP[10100]\011/* MoveIndirectRelPt */
PUSHW[ ]\011/* 1 value pushed */
0 
SRP0[ ]\011/* SetRefPoint0 */
PUSHW[ ]\011/* 2 values pushed */
27 1 
MIRP[10100]\011/* MoveIndirectRelPt */
IUP[0]\011/* InterpolateUntPts */
IUP[1]\011/* InterpolateUntPts */";
};
width = 205;
}
);
note = Obreve;
unicode = 014E;
},
{
glyphname = Ocircumflex;
layers = (
{
layerId = "14B2064F-49AA-4860-BD4E-8ABAFB41335C";
paths = (
{
closed = 1;
nodes = (
"109 -6 LINE SMOOTH",
"145 -6 OFFCURVE",
"183 19.333 OFFCURVE",
"183 82 CURVE SMOOTH",
"183 617 LINE SMOOTH",
"183 679.667 OFFCURVE",
"145 705 OFFCURVE",
"109 705 CURVE SMOOTH",
"95 705 LINE SMOOTH",
"54.357 705 OFFCURVE",
"21 674.421 OFFCURVE",
"21 617 CURVE SMOOTH",
"21 82 LINE SMOOTH",
"21 24.579 OFFCURVE",
"54.357 -6 OFFCURVE",
"95 -6 CURVE SMOOTH"
);
},
{
closed = 1;
nodes = (
"106 675 LINE SMOOTH",
"127.333 675 OFFCURVE",
"148 657.333 OFFCURVE",
"148 612 CURVE SMOOTH",
"148 87 LINE SMOOTH",
"148 41.667 OFFCURVE",
"127.333 24 OFFCURVE",
"106 24 CURVE SMOOTH",
"98 24 LINE SMOOTH",
"78 24 OFFCURVE",
"57 41.667 OFFCURVE",
"57 87 CURVE SMOOTH",
"57 612 LINE SMOOTH",
"57 657.333 OFFCURVE",
"78 675 OFFCURVE",
"98 675 CURVE SMOOTH"
);
},
{
closed = 1;
nodes = (
"86 824 LINE",
"31 738 LINE",
"63 738 LINE",
"102 807 LINE",
"142 738 LINE",
"174 738 LINE",
"119 824 LINE"
);
}
);
userData = {
assembly = "PUSHW[ ]\011/* 1 value pushed */
43 
MDAP[1]\011/* MoveDirectAbsPt */
PUSHW[ ]\011/* 1 value pushed */
31 
MDAP[1]\011/* MoveDirectAbsPt */
PUSHW[ ]\011/* 1 value pushed */
43 
SRP0[ ]\011/* SetRefPoint0 */
PUSHW[ ]\011/* 1 value pushed */
5 
MDRP[10000]\011/* MoveDirectRelPt */
PUSHW[ ]\011/* 1 value pushed */
5 
MDAP[1]\011/* MoveDirectAbsPt */
PUSHW[ ]\011/* 1 value pushed */
31 
SRP0[ ]\011/* SetRefPoint0 */
PUSHW[ ]\011/* 2 values pushed */
16 4 
MIRP[10100]\011/* MoveIndirectRelPt */
PUSHW[ ]\011/* 1 value pushed */
5 
SRP0[ ]\011/* SetRefPoint0 */
PUSHW[ ]\011/* 2 values pushed */
24 4 
MIRP[10100]\011/* MoveIndirectRelPt */
PUSHW[ ]\011/* 3 values pushed */
37 31 16 
SRP1[ ]\011/* SetRefPoint1 */
SRP2[ ]\011/* SetRefPoint2 */
IP[ ]\011/* InterpolatePts */
PUSHW[ ]\011/* 1 value pushed */
31 
SRP0[ ]\011/* SetRefPoint0 */
PUSHW[ ]\011/* 1 value pushed */
38 
MDRP[10000]\011/* MoveDirectRelPt */
PUSHW[ ]\011/* 1 value pushed */
38 
MDAP[1]\011/* MoveDirectAbsPt */
PUSHW[ ]\011/* 1 value pushed */
24 
SRP0[ ]\011/* SetRefPoint0 */
PUSHW[ ]\011/* 1 value pushed */
40 
MDRP[10000]\011/* MoveDirectRelPt */
PUSHW[ ]\011/* 1 value pushed */
40 
MDAP[1]\011/* MoveDirectAbsPt */
PUSHW[ ]\011/* 3 values pushed */
41 5 24 
SRP1[ ]\011/* SetRefPoint1 */
SRP2[ ]\011/* SetRefPoint2 */
IP[ ]\011/* InterpolatePts */
PUSHW[ ]\011/* 1 value pushed */
16 
SRP0[ ]\011/* SetRefPoint0 */
PUSHW[ ]\011/* 1 value pushed */
44 
MDRP[11100]\011/* MoveDirectRelPt */
SVTCA[0]\011/* SetFreedomAndProjectionVectorToAxis */
PUSHW[ ]\011/* 1 value pushed */
36 
MDAP[1]\011/* MoveDirectAbsPt */
PUSHW[ ]\011/* 1 value pushed */
0 
RCVT[ ]\011/* ReadCVT */
IF[ ]\011/* If */
PUSHW[ ]\011/* 1 value pushed */
11 
MDAP[1]\011/* MoveDirectAbsPt */
ELSE[ ]\011/* Else */
PUSHW[ ]\011/* 2 values pushed */
11 13 
MIAP[0]\011/* MoveIndirectAbsPt */
EIF[ ]\011/* EndIf */
PUSHW[ ]\011/* 1 value pushed */
0 
RCVT[ ]\011/* ReadCVT */
IF[ ]\011/* If */
PUSHW[ ]\011/* 1 value pushed */
0 
MDAP[1]\011/* MoveDirectAbsPt */
ELSE[ ]\011/* Else */
PUSHW[ ]\011/* 2 values pushed */
0 7 
MIAP[0]\011/* MoveIndirectAbsPt */
EIF[ ]\011/* EndIf */
PUSHW[ ]\011/* 1 value pushed */
11 
SRP0[ ]\011/* SetRefPoint0 */
PUSHW[ ]\011/* 2 values pushed */
20 1 
MIRP[10100]\011/* MoveIndirectRelPt */
PUSHW[ ]\011/* 1 value pushed */
0 
SRP0[ ]\011/* SetRefPoint0 */
PUSHW[ ]\011/* 2 values pushed */
27 1 
MIRP[10100]\011/* MoveIndirectRelPt */
PUSHW[ ]\011/* 1 value pushed */
11 
SRP0[ ]\011/* SetRefPoint0 */
PUSHW[ ]\011/* 2 values pushed */
40 1 
MIRP[10100]\011/* MoveIndirectRelPt */
PUSHW[ ]\011/* 1 value pushed */
37 
MDRP[10000]\011/* MoveDirectRelPt */
IUP[0]\011/* InterpolateUntPts */
IUP[1]\011/* InterpolateUntPts */";
};
width = 205;
}
);
note = Ocircumflex;
unicode = 00D4;
},
{
glyphname = Odieresis;
layers = (
{
layerId = "14B2064F-49AA-4860-BD4E-8ABAFB41335C";
paths = (
{
closed = 1;
nodes = (
"109 -6 LINE SMOOTH",
"145 -6 OFFCURVE",
"183 19.333 OFFCURVE",
"183 82 CURVE SMOOTH",
"183 617 LINE SMOOTH",
"183 679.667 OFFCURVE",
"145 705 OFFCURVE",
"109 705 CURVE SMOOTH",
"95 705 LINE SMOOTH",
"54.357 705 OFFCURVE",
"21 674.421 OFFCURVE",
"21 617 CURVE SMOOTH",
"21 82 LINE SMOOTH",
"21 24.579 OFFCURVE",
"54.357 -6 OFFCURVE",
"95 -6 CURVE SMOOTH"
);
},
{
closed = 1;
nodes = (
"106 675 LINE SMOOTH",
"127.333 675 OFFCURVE",
"148 657.333 OFFCURVE",
"148 612 CURVE SMOOTH",
"148 87 LINE SMOOTH",
"148 41.667 OFFCURVE",
"127.333 24 OFFCURVE",
"106 24 CURVE SMOOTH",
"98 24 LINE SMOOTH",
"78 24 OFFCURVE",
"57 41.667 OFFCURVE",
"57 87 CURVE SMOOTH",
"57 612 LINE SMOOTH",
"57 657.333 OFFCURVE",
"78 675 OFFCURVE",
"98 675 CURVE SMOOTH"
);
},
{
closed = 1;
nodes = (
"86 816 LINE",
"61 816 LINE",
"61 753 LINE",
"86 753 LINE"
);
},
{
closed = 1;
nodes = (
"142 816 LINE",
"118 816 LINE",
"118 753 LINE",
"142 753 LINE"
);
}
);
userData = {
assembly = "PUSHW[ ]\011/* 4 values pushed */
24 4 5 4 
CALL[ ]\011/* CallFunction */
PUSHW[ ]\011/* 4 values pushed */
40 5 41 4 
CALL[ ]\011/* CallFunction */
PUSHW[ ]\011/* 1 value pushed */
40 
SRP0[ ]\011/* SetRefPoint0 */
PUSHW[ ]\011/* 2 values pushed */
16 4 
MIRP[10100]\011/* MoveIndirectRelPt */
PUSHW[ ]\011/* 1 value pushed */
40 
SRP0[ ]\011/* SetRefPoint0 */
PUSHW[ ]\011/* 1 value pushed */
31 
MDRP[10000]\011/* MoveDirectRelPt */
PUSHW[ ]\011/* 1 value pushed */
31 
MDAP[1]\011/* MoveDirectAbsPt */
PUSHW[ ]\011/* 1 value pushed */
24 
SRP0[ ]\011/* SetRefPoint0 */
PUSHW[ ]\011/* 2 values pushed */
36 5 
MIRP[10100]\011/* MoveIndirectRelPt */
PUSHW[ ]\011/* 1 value pushed */
24 
SRP0[ ]\011/* SetRefPoint0 */
PUSHW[ ]\011/* 1 value pushed */
37 
MDRP[10000]\011/* MoveDirectRelPt */
PUSHW[ ]\011/* 1 value pushed */
37 
MDAP[1]\011/* MoveDirectAbsPt */
SVTCA[0]\011/* SetFreedomAndProjectionVectorToAxis */
PUSHW[ ]\011/* 1 value pushed */
38 
MDAP[1]\011/* MoveDirectAbsPt */
PUSHW[ ]\011/* 1 value pushed */
42 
MDAP[1]\011/* MoveDirectAbsPt */
PUSHW[ ]\011/* 1 value pushed */
0 
RCVT[ ]\011/* ReadCVT */
IF[ ]\011/* If */
PUSHW[ ]\011/* 1 value pushed */
11 
MDAP[1]\011/* MoveDirectAbsPt */
ELSE[ ]\011/* Else */
PUSHW[ ]\011/* 2 values pushed */
11 13 
MIAP[0]\011/* MoveIndirectAbsPt */
EIF[ ]\011/* EndIf */
PUSHW[ ]\011/* 1 value pushed */
0 
RCVT[ ]\011/* ReadCVT */
IF[ ]\011/* If */
PUSHW[ ]\011/* 1 value pushed */
0 
MDAP[1]\011/* MoveDirectAbsPt */
ELSE[ ]\011/* Else */
PUSHW[ ]\011/* 2 values pushed */
0 7 
MIAP[0]\011/* MoveIndirectAbsPt */
EIF[ ]\011/* EndIf */
PUSHW[ ]\011/* 1 value pushed */
11 
SRP0[ ]\011/* SetRefPoint0 */
PUSHW[ ]\011/* 2 values pushed */
20 1 
MIRP[10100]\011/* MoveIndirectRelPt */
PUSHW[ ]\011/* 1 value pushed */
0 
SRP0[ ]\011/* SetRefPoint0 */
PUSHW[ ]\011/* 2 values pushed */
27 1 
MIRP[10100]\011/* MoveIndirectRelPt */
IUP[0]\011/* InterpolateUntPts */
IUP[1]\011/* InterpolateUntPts */";
};
width = 205;
}
);
note = Odieresis;
unicode = 00D6;
},
